<?xml version="1.0" standalone="no"?>
<!DOCTYPE svg PUBLIC "-//W3C//DTD SVG 1.1//EN" "http://www.w3.org/Graphics/SVG/1.1/DTD/svg11.dtd" >
<svg xmlns="http://www.w3.org/2000/svg" xmlns:xlink="http://www.w3.org/1999/xlink" version="1.1">
<metadata></metadata>
<defs>
<font id="d-dindin-italic" horiz-adv-x="1048" >
<font-face units-per-em="2048" ascent="1702" descent="-346" />
<missing-glyph horiz-adv-x="444" />
<glyph unicode="&#xfb01;" horiz-adv-x="1118" d="M125 0l197 928h-134l25 110h131l25 117q24 120 106 188q84 70 199 70h108l-24 -110h-86q-131 0 -160 -142l-27 -123h217l-22 -110h-217l-199 -928h-139zM717 0l219 1038h139l-221 -1038h-137zM969 1208l39 185h147l-39 -185h-147z" />
<glyph unicode="&#xfb02;" horiz-adv-x="1230" d="M125 0l197 928h-134l25 110h131l25 117q24 120 106 188q84 70 199 70h108l-24 -110h-86q-131 0 -160 -142l-27 -123h217l-22 -110h-217l-199 -928h-139zM762 184q0 35 10 88l244 1141h139l-240 -1132q-8 -35 -8 -64q0 -48 26 -69t79 -21h84l-27 -127h-98q-103 0 -156 47 t-53 137z" />
<glyph horiz-adv-x="0" />
<glyph unicode="&#xd;" horiz-adv-x="1228" />
<glyph unicode=" "  horiz-adv-x="444" />
<glyph unicode="&#x09;" horiz-adv-x="444" />
<glyph unicode="&#xa0;" horiz-adv-x="444" />
<glyph unicode="!" horiz-adv-x="489" d="M43 0l41 190h182l-41 -190h-182zM164 401l186 1012h172l-246 -1012h-112z" />
<glyph unicode="&#x22;" horiz-adv-x="630" d="M197 942l100 471h135l-100 -471h-135zM475 942l100 471h136l-99 -471h-137z" />
<glyph unicode="#" d="M37 453l24 114h185l108 314h-176l23 112h192l144 420h122l-143 -420h281l145 420h121l-143 -420h178l-25 -112h-192l-109 -314h184l-24 -114h-199l-155 -453h-123l155 453h-280l-156 -453h-123l156 453h-170zM369 567h282l107 314h-281z" />
<glyph unicode="$" horiz-adv-x="935" d="M43 342q0 41 6 86h141q-4 -36 -4 -55q0 -157 150 -187l100 471l-24 5q-112 24 -171 81t-59 158q0 48 11 94q38 161 139 253q103 94 252 104l34 166h119l-37 -170q106 -18 168 -87q62 -70 62 -190q0 -50 -4 -74h-142q4 36 4 60q0 134 -114 164l-94 -449l22 -4 q229 -45 229 -248q0 -57 -10 -98q-39 -162 -139 -256t-254 -109l-39 -178h-119l39 180q-128 15 -196 86q-70 73 -70 197zM330 944q0 -117 135 -147l90 426q-85 -12 -143 -70t-74 -147q-8 -48 -8 -62zM373 1411zM455 186q92 15 143 71q55 60 78 155q8 37 8 69q0 62 -33 98 q-32 35 -102 52z" />
<glyph unicode="%" horiz-adv-x="1822" d="M170 733q0 61 14 117l62 285q30 145 105 219q74 73 198 73q205 0 205 -182q0 -43 -13 -110l-59 -285q-30 -150 -104 -227q-73 -76 -203 -76q-205 0 -205 186zM311 752q0 -45 21 -66q20 -20 65 -20q65 0 95 43q30 44 51 147l55 266q14 67 14 101q0 43 -20 63 q-21 21 -66 21q-62 0 -92 -42t-51 -143l-57 -266q-15 -72 -15 -104zM354 0l1067 1413h127l-1065 -1413h-129zM1145 174q0 61 14 117l62 284q30 147 105 220q74 73 198 73q205 0 205 -182q0 -44 -13 -111l-59 -284q-30 -150 -105 -228q-72 -75 -202 -75q-205 0 -205 186z M1286 193q0 -45 21 -66t65 -21q64 0 94 44q32 46 52 147l55 266q14 67 14 101q0 43 -20 63q-21 21 -66 21q-62 0 -92 -42t-51 -143l-58 -266q-14 -67 -14 -104z" />
<glyph unicode="&#x26;" horiz-adv-x="1228" d="M78 266q0 137 85 255q86 119 290 265q-52 106 -79 183q-24 67 -24 125q0 96 45 174q45 79 123 122q79 44 172 44q121 0 194 -65q72 -65 72 -175q0 -116 -73 -208q-72 -91 -260 -226l176 -365l196 203l80 -84l-221 -233l45 -93q15 -27 35 -41t45 -14h47l-29 -133h-69 q-54 0 -82 19q-27 18 -55 73l-39 80q-102 -102 -197 -147t-197 -45q-133 0 -206 77q-74 79 -74 209zM221 285q0 -81 45 -127q45 -47 125 -47q72 0 139 40q68 41 166 136l-190 389q-153 -112 -220 -202q-65 -88 -65 -189zM494 1114q0 -43 16 -94q20 -65 59 -150 q100 72 152 119q51 46 74 91q22 43 22 102q0 57 -38 93t-101 36q-79 0 -132 -56q-52 -55 -52 -141z" />
<glyph unicode="'" horiz-adv-x="350" d="M197 942l100 471h135l-100 -471h-135z" />
<glyph unicode="(" horiz-adv-x="591" d="M119 346q0 156 35 326q92 443 421 844h107q-143 -198 -244 -416q-97 -210 -143 -428q-39 -180 -39 -375q0 -247 68 -469h-107q-98 249 -98 518z" />
<glyph unicode=")" horiz-adv-x="591" d="M-27 -172q145 197 246 416q99 214 143 428q39 191 39 368q0 248 -69 476h106q101 -247 101 -521q0 -151 -35 -323q-90 -440 -424 -844h-107z" />
<glyph unicode="*" horiz-adv-x="774" d="M229 1034l203 105l-158 102l58 74l155 -103l43 201h95l-43 -199l196 101l27 -74l-201 -102l158 -105l-57 -73l-156 100l-45 -211h-94l45 211l-197 -100z" />
<glyph unicode="+" d="M127 498v135h340v340h135v-340h340v-135h-340v-340h-135v340h-340z" />
<glyph unicode="," horiz-adv-x="356" d="M-63 -281l104 471h135l-72 -344z" />
<glyph unicode="-" horiz-adv-x="806" d="M150 643l26 135h563l-26 -135h-563z" />
<glyph unicode="." horiz-adv-x="489" d="M45 0l39 188h182l-41 -188h-180z" />
<glyph unicode="/" horiz-adv-x="802" d="M6 -20l744 1433h122l-743 -1433h-123z" />
<glyph unicode="0" horiz-adv-x="1007" d="M98 279q0 63 19 153l119 557q50 228 156 335q108 110 290 110q150 0 230 -74q79 -73 79 -219q0 -68 -18 -152l-119 -557q-50 -231 -157 -341q-108 -111 -289 -111q-152 0 -230 75q-80 77 -80 224zM250 301q0 -99 43 -142q44 -44 133 -44q118 0 181 79q64 81 104 267 l104 491q21 94 21 164q0 96 -42 139t-132 43q-119 0 -182 -78q-65 -80 -105 -268l-105 -491q-20 -86 -20 -160z" />
<glyph unicode="1" horiz-adv-x="673" d="M217 1059l35 168l283 186h149l-301 -1413h-147l264 1241z" />
<glyph unicode="2" horiz-adv-x="960" d="M12 0l25 121l620 680q126 137 144 246q12 72 12 92q0 75 -46 118t-126 43q-97 0 -161 -58t-91 -171l-8 -37h-150l9 45q29 162 142 258q115 97 277 97q142 0 225 -77t83 -198q0 -33 -15 -110q-17 -89 -62 -161q-49 -78 -128 -165l-535 -590h531l-29 -133h-717z" />
<glyph unicode="3" horiz-adv-x="1013" d="M80 252q0 57 10 98h150q-9 -59 -9 -69q0 -83 49 -126q48 -42 140 -42q108 0 180 65q74 66 96 178q19 95 19 127q0 86 -48 134q-49 49 -143 49h-80l31 135h72q102 0 177 63t93 168q14 74 14 101q0 77 -48 122t-130 45q-204 0 -254 -243h-143q77 377 422 377q141 0 225 -72 t84 -197q0 -45 -20 -131q-24 -102 -89 -176t-155 -113q71 -27 107 -88q36 -62 36 -145q0 -51 -20 -147q-38 -179 -157 -282t-290 -103q-154 0 -236 70q-83 71 -83 202z" />
<glyph unicode="4" horiz-adv-x="1021" d="M43 276l31 136l635 1001h161l-637 -1001h369l82 385h150l-82 -385h153l-28 -136h-154l-59 -276h-150l59 276h-530z" />
<glyph unicode="5" horiz-adv-x="989" d="M84 231q0 47 12 103h140q-5 -42 -5 -53q0 -166 179 -166q215 0 266 266l26 133q11 49 11 98q0 170 -172 170q-76 0 -137 -38q-60 -38 -93 -105h-131l164 774h676l-29 -137h-538l-97 -451q35 41 96 67t130 26q141 0 214 -71q72 -71 72 -202q0 -66 -14 -125l-33 -155 q-39 -188 -149 -286q-111 -99 -281 -99q-148 0 -227 64q-80 65 -80 187z" />
<glyph unicode="6" horiz-adv-x="1011" d="M82 274q0 37 4 68q6 46 20 107q30 140 142 299l471 665h162l-437 -620q27 18 69 30q45 13 89 13q130 0 207 -76q78 -76 78 -209q0 -38 -7 -77q-5 -26 -20 -97q-41 -187 -164 -292t-290 -105q-154 0 -238 77q-86 78 -86 217zM236 305q0 -89 50 -141q50 -51 140 -51 q109 0 183 68q76 70 100 190q7 31 12 59q12 52 12 82q0 89 -52 138q-53 50 -142 50q-108 0 -183 -68q-76 -68 -100 -188q-10 -47 -16 -84q-4 -25 -4 -55z" />
<glyph unicode="7" horiz-adv-x="882" d="M80 0l737 1278h-573l28 135h719l-28 -135l-734 -1278h-149z" />
<glyph unicode="8" d="M96 279q0 35 19 139q21 111 92 197t174 130q-115 64 -115 218q0 39 6 67q2 8 5.5 25.5t5.5 25.5q29 154 143 253q115 100 276 100q144 0 226 -78t82 -205q0 -35 -6 -72l-9 -43q-18 -101 -82 -179q-63 -76 -149 -114q69 -34 103 -97q34 -62 34 -144q0 -26 -5 -61 q-4 -29 -15 -74q-40 -177 -164 -283q-122 -104 -293 -104q-152 0 -239 80q-89 81 -89 219zM246 309q0 -91 52 -143q53 -53 144 -53q110 0 186 69q76 68 103 187q7 30 14 66q5 27 5 48q0 87 -51 141q-49 52 -144 52q-106 0 -187 -70q-80 -69 -104 -184q-18 -84 -18 -113z M416 979q0 -77 47 -124q46 -46 127 -46q99 0 168 63q70 64 88 164l8 45q6 29 6 54q0 75 -47 120t-129 45q-95 0 -166 -62t-88 -159q-14 -74 -14 -100z" />
<glyph unicode="9" horiz-adv-x="1011" d="M205 866q0 30 5 65q3 21 11 63q7 38 10 48q38 187 159 289q123 103 290 103q152 0 241 -80t89 -219q0 -27 -6 -67q0 -3 -19 -105q-15 -79 -49 -146q-32 -65 -92 -151l-469 -666h-164l436 621q-31 -19 -73 -31q-44 -12 -89 -12q-130 0 -205 76t-75 212zM358 899 q0 -86 51 -137q49 -49 140 -49q109 0 186 68q79 70 101 186q22 110 22 145q0 88 -51 138q-52 50 -141 50q-108 0 -184 -69q-77 -69 -101 -191q-23 -109 -23 -141z" />
<glyph unicode=":" horiz-adv-x="397" d="M-2 0l39 188h182l-41 -188h-180zM145 692l39 189h183l-41 -189h-181z" />
<glyph unicode=";" horiz-adv-x="399" d="M-20 -281l104 471h135l-72 -344zM145 692l39 189h183l-41 -189h-181z" />
<glyph unicode="&#x3c;" d="M90 506v121l815 331v-145l-624 -248l624 -248v-145z" />
<glyph unicode="=" d="M125 301v135h815v-135h-815zM125 692v137h815v-137h-815z" />
<glyph unicode="&#x3e;" d="M162 172v145l624 248l-624 248v145l815 -331v-121z" />
<glyph unicode="?" horiz-adv-x="880" d="M195 1075q41 175 151 266q113 93 281 93q136 0 212 -70q74 -68 74 -188q0 -42 -8 -84q-16 -76 -52 -136q-35 -57 -112 -139l-151 -164q-46 -48 -64 -82t-30 -88l-27 -118h-150l27 120q17 76 40 119q25 46 85 111l141 149q72 76 102 123q30 46 42 105q6 30 6 57 q0 72 -43 111q-42 38 -125 38q-199 0 -250 -223h-149zM225 0l41 190h183l-41 -190h-183z" />
<glyph unicode="@" horiz-adv-x="1785" d="M98 330q0 90 21 180l31 139q51 229 171 402t306 267q187 95 424 95q195 0 346 -74q150 -73 232 -208q83 -136 83 -312q0 -81 -18 -166l-29 -137q-44 -202 -149 -301q-106 -100 -244 -100q-84 0 -137 38q-53 37 -70 107q-94 -145 -277 -145q-127 0 -191 67q-65 68 -65 189 q0 47 13 114l35 164q80 373 376 373q78 0 131 -30q54 -31 78 -83l19 92h135l-127 -591q-6 -33 -6 -60q0 -58 31 -89q30 -30 81 -30q80 0 132 66q54 68 88 217l30 137q19 90 19 162q0 220 -136 344q-137 125 -382 125q-308 0 -501 -167q-191 -166 -253 -462l-31 -145 q-18 -86 -18 -164q0 -218 136 -345q137 -128 380 -128q134 0 244 26q109 26 221 78l39 -116q-125 -63 -247 -92q-124 -29 -269 -29q-193 0 -342 73q-148 72 -229 206q-81 133 -81 313zM674 391q0 -158 151 -158q189 0 244 252l37 168q10 41 10 92q0 158 -149 158 q-196 0 -248 -256l-33 -151q-12 -57 -12 -105z" />
<glyph unicode="A" horiz-adv-x="1167" d="M-102 0l813 1413h127l211 -1413h-156l-47 340h-600l-191 -340h-157zM317 467h512l-100 737z" />
<glyph unicode="B" horiz-adv-x="1263" d="M53 0l301 1413h508q173 0 267 -77t94 -216q0 -135 -82 -244q-83 -111 -215 -149q88 -28 134 -97q46 -68 46 -163q0 -143 -68 -249q-68 -105 -186 -162q-116 -56 -268 -56h-531zM231 133h355q168 0 268 87t100 237q0 99 -61 148q-62 50 -180 50h-371zM371 788h329 q160 0 265 81q104 80 104 225q0 186 -235 186h-359z" />
<glyph unicode="C" horiz-adv-x="1249" d="M119 358q0 74 18 166l78 367q60 286 214 413q155 128 380 128q198 0 305 -99t107 -272q0 -28 -7 -68h-149q4 16 4 51q0 121 -71 187q-69 65 -207 65q-169 0 -274 -96q-106 -97 -152 -315l-80 -369q-17 -80 -17 -131q0 -136 78 -200q77 -64 217 -64q152 0 248 78 q97 79 131 217l2 8h146l-3 -8q-51 -202 -193 -317t-357 -115q-192 0 -305 91t-113 283z" />
<glyph unicode="D" horiz-adv-x="1269" d="M53 0l301 1413h480q184 0 290 -87q107 -87 107 -275q0 -83 -21 -177l-71 -335q-60 -281 -219 -410t-383 -129h-484zM233 135h332q338 0 422 395l72 338q20 97 20 162q0 129 -67 189q-66 59 -197 59h-340z" />
<glyph unicode="E" horiz-adv-x="1138" d="M53 0l301 1413h858l-28 -135h-709l-104 -492h606l-29 -135h-606l-111 -516h711l-31 -135h-858z" />
<glyph unicode="F" horiz-adv-x="1103" d="M53 0l301 1413h858l-28 -135h-709l-106 -496h606l-29 -135h-606l-137 -647h-150z" />
<glyph unicode="G" horiz-adv-x="1249" d="M119 360q0 72 18 164l78 367q60 284 214 412q155 129 378 129q199 0 304 -99q106 -100 106 -268q0 -4 -1.5 -13.5t-1.5 -14.5q-2 -24 -2 -42h-149l2 56q0 118 -67 182q-66 63 -203 63q-171 0 -277 -97q-107 -98 -153 -314l-80 -369q-17 -85 -17 -139q0 -256 283 -256 q164 0 264 85t139 269l27 123h-338l29 129h485l-47 -225q-108 -518 -571 -518q-194 0 -307 91t-113 285z" />
<glyph unicode="H" horiz-adv-x="1288" d="M53 0l301 1413h150l-133 -622h661l133 622h150l-301 -1413h-150l140 655h-662l-139 -655h-150z" />
<glyph unicode="I" horiz-adv-x="509" d="M70 0l301 1413h149l-301 -1413h-149z" />
<glyph unicode="J" horiz-adv-x="643" d="M-45 0l31 135h114q71 0 109 37q39 37 55 119l238 1122h149l-241 -1141q-27 -133 -108 -202q-82 -70 -208 -70h-139z" />
<glyph unicode="K" horiz-adv-x="1212" d="M53 0l301 1413h150l-172 -805l821 805h182l-573 -559l323 -854h-159l-277 745l-362 -356l-84 -389h-150z" />
<glyph unicode="L" horiz-adv-x="1085" d="M55 0l299 1413h150l-271 -1278h705l-29 -135h-854z" />
<glyph unicode="M" horiz-adv-x="1540" d="M53 0l301 1413h150l256 -952l657 952h150l-301 -1413h-150l234 1096l-568 -813h-116l-230 817l-233 -1100h-150z" />
<glyph unicode="N" horiz-adv-x="1357" d="M53 0l301 1413h150l489 -1134l244 1134h147l-301 -1413h-149l-490 1139l-241 -1139h-150z" />
<glyph unicode="O" horiz-adv-x="1247" d="M119 358q0 74 18 166l78 367q114 541 582 541q188 0 301 -92q112 -91 112 -283q0 -75 -18 -166l-78 -367q-114 -540 -577 -540q-194 0 -306 91t-112 283zM268 381q0 -260 289 -260q160 0 260 94q101 95 146 301l79 369q17 76 17 145q0 266 -281 266q-165 0 -266 -96 q-100 -96 -147 -315l-80 -369q-17 -80 -17 -135z" />
<glyph unicode="P" horiz-adv-x="1185" d="M53 0l299 1403h506q174 0 271 -85q98 -86 98 -241q0 -149 -69 -263t-193 -177q-126 -64 -285 -64h-354l-123 -573h-150zM354 707h340q174 0 278 90q103 90 103 260q0 211 -256 211h-346z" />
<glyph unicode="Q" horiz-adv-x="1247" d="M119 358q0 74 18 166l78 367q114 541 582 541q188 0 301 -92q112 -91 112 -283q0 -75 -18 -166l-78 -367q-78 -364 -315 -483l94 -285l-131 -65l-100 303q-64 -10 -125 -10q-194 0 -306 91t-112 283zM268 381q0 -260 289 -260q160 0 260 94q101 95 146 301l79 369 q17 76 17 145q0 266 -281 266q-165 0 -266 -96q-100 -96 -147 -315l-80 -369q-17 -80 -17 -135z" />
<glyph unicode="R" horiz-adv-x="1226" d="M53 0l301 1413h520q169 0 264 -80t95 -227q0 -178 -108 -305q-107 -127 -294 -166l203 -635h-170l-188 621h-340l-133 -621h-150zM362 750h355q160 0 261 88t101 241q0 100 -61 149q-62 50 -178 50h-365z" />
<glyph unicode="S" horiz-adv-x="1126" d="M39 330q0 48 4 69h145q-2 -22 -2 -47q0 -233 281 -233q188 0 289 86q100 85 100 235q0 86 -52 134t-161 69l-160 31q-288 55 -288 293q0 142 66 247q65 103 188 161q122 57 276 57q177 0 283 -85t106 -255q0 -30 -2 -54h-147q4 33 4 52q0 213 -254 213q-172 0 -272 -86 q-99 -85 -99 -222q0 -80 50 -127t153 -65l164 -31q144 -27 221 -99q76 -72 76 -202q0 -228 -148 -356q-146 -127 -405 -127q-201 0 -308 88q-108 88 -108 254z" />
<glyph unicode="T" horiz-adv-x="989" d="M178 1278l29 135h956l-28 -135h-406l-270 -1278h-148l271 1278h-404z" />
<glyph unicode="U" horiz-adv-x="1300" d="M141 362q0 47 13 107l200 944h152l-201 -940q-10 -53 -10 -92q0 -122 76 -191q77 -69 209 -69q153 0 258 93t139 259l201 940h149l-203 -952q-45 -216 -194 -344q-150 -129 -365 -129q-187 0 -306 102q-118 102 -118 272z" />
<glyph unicode="V" horiz-adv-x="1056" d="M199 1413h153l117 -1171l612 1171h158l-762 -1413h-121z" />
<glyph unicode="W" horiz-adv-x="1615" d="M199 1413h143l39 -1171l524 1171h189l39 -1171l528 1171h137l-653 -1413h-133l-54 1227l-567 -1227h-133z" />
<glyph unicode="X" horiz-adv-x="1142" d="M-102 0l632 739l-294 674h176l231 -557l467 557h174l-579 -676l319 -737h-178l-254 621l-518 -621h-176z" />
<glyph unicode="Y" horiz-adv-x="1007" d="M199 1413h159l191 -682l479 682h162l-596 -823l-127 -590h-148l125 594z" />
<glyph unicode="Z" horiz-adv-x="1067" d="M-29 0l29 135l965 1143h-693l27 135h868l-28 -135l-967 -1143h731l-29 -135h-903z" />
<glyph unicode="[" horiz-adv-x="604" d="M16 -172l359 1688h319l-28 -136h-168l-301 -1417h168l-29 -135h-320z" />
<glyph unicode="\" horiz-adv-x="802" d="M311 1413h123l133 -1433h-123z" />
<glyph unicode="]" horiz-adv-x="604" d="M-27 -172l31 135h168l301 1417h-168l27 136h319l-358 -1688h-320z" />
<glyph unicode="^" d="M123 584l354 829h123l352 -829h-121l-292 698l-293 -698h-123z" />
<glyph unicode="_" horiz-adv-x="935" d="M-156 -213l23 102h936l-21 -102h-938z" />
<glyph unicode="`" horiz-adv-x="997" d="M500 1427h159l150 -256h-117z" />
<glyph unicode="a" horiz-adv-x="1044" d="M82 274q0 60 16 140l45 213q46 218 166 321t277 103q92 0 154 -40q63 -40 91 -118l31 145h139l-221 -1038h-137l31 139q-112 -151 -309 -151q-125 0 -204 69t-79 217zM227 305q0 -192 185 -192q129 0 210 86q80 85 109 225l39 182q10 44 10 103q0 103 -49 159 q-50 58 -149 58q-231 0 -299 -310l-43 -196q-13 -55 -13 -115z" />
<glyph unicode="b" horiz-adv-x="1044" d="M43 0l301 1413h139l-110 -520q115 160 295 160q133 0 213 -71t80 -220q0 -66 -15 -135l-45 -215q-45 -221 -162 -323q-116 -101 -268 -101q-97 0 -164 38q-66 38 -96 111l-29 -137h-139zM262 330q0 -100 53 -159q52 -58 158 -58q103 0 177 70t112 239l43 196 q12 51 12 115q0 193 -190 193q-123 0 -203 -87t-113 -235l-39 -180q-10 -53 -10 -94z" />
<glyph unicode="c" horiz-adv-x="1032" d="M86 295q0 67 14 131l43 201q91 426 478 426q161 0 245 -78t84 -227q0 -30 -2 -52h-135l2 35q0 99 -50 147q-49 48 -153 48q-127 0 -211 -69q-82 -67 -120 -239l-39 -184q-15 -63 -15 -119q0 -112 60 -157t164 -45q123 0 194 59q72 60 90 170h133q-18 -164 -133 -259 t-295 -95q-163 0 -258 73q-96 73 -96 234z" />
<glyph unicode="d" horiz-adv-x="1046" d="M82 274q0 60 16 140l45 213q46 218 164 321t273 103q185 0 251 -158l109 520h141l-299 -1413h-141l31 137q-110 -149 -307 -149q-125 0 -204 69t-79 217zM227 307q0 -194 187 -194q127 0 208 86q80 85 109 225l39 180q10 44 10 105q0 103 -49 159q-50 58 -149 58 q-230 0 -299 -310l-43 -194q-13 -55 -13 -115z" />
<glyph unicode="e" horiz-adv-x="1032" d="M88 299q0 57 16 137l37 178q47 225 173 332q127 107 302 107q150 0 240 -75t90 -228q0 -60 -16 -140l-25 -118h-649l-12 -64q-15 -63 -15 -119q0 -108 59 -152t161 -44q105 0 178 53q71 52 98 153h135q-33 -160 -144 -245q-112 -86 -286 -86q-158 0 -249 75 q-93 77 -93 236zM279 596h507l9 37q12 61 12 106q0 100 -53 144q-52 43 -150 43q-119 0 -203 -69q-83 -68 -118 -239z" />
<glyph unicode="f" horiz-adv-x="671" d="M125 0l197 928h-134l25 110h131l25 117q24 120 106 188q84 70 199 70h108l-24 -110h-86q-131 0 -160 -142l-27 -123h217l-22 -110h-217l-199 -928h-139z" />
<glyph unicode="g" horiz-adv-x="1046" d="M18 -51h140q6 -152 200 -152q242 0 299 273l31 145q-107 -152 -305 -152q-125 0 -205 71t-80 220q0 53 17 138l30 143q46 219 163 322q116 102 270 102q95 0 162 -41q68 -42 96 -117l30 146h140l-207 -965q-40 -189 -157 -298q-116 -108 -296 -108q-161 0 -245 73 q-83 72 -83 200zM244 383q0 -193 184 -193q130 0 209 85q81 87 111 227l24 112q12 56 12 103q0 101 -51 159t-151 58q-104 0 -182 -70q-76 -68 -115 -239l-29 -129q-12 -51 -12 -113z" />
<glyph unicode="h" horiz-adv-x="1069" d="M43 0l301 1413h139l-106 -502q113 140 299 140q134 0 211 -69q76 -69 76 -196q0 -44 -13 -104l-145 -682h-139l139 662q10 49 10 83q0 89 -51 135q-50 46 -143 46q-113 0 -192 -69q-78 -68 -105 -195l-142 -662h-139z" />
<glyph unicode="i" horiz-adv-x="446" d="M45 0l219 1038h139l-221 -1038h-137zM297 1208l39 185h147l-39 -185h-147z" />
<glyph unicode="j" horiz-adv-x="483" d="M-219 -311l26 127h84q71 0 109 37q39 37 55 116l228 1069h139l-229 -1077q-28 -133 -109 -203q-80 -69 -205 -69h-98zM317 1229l39 184h148l-39 -184h-148z" />
<glyph unicode="k" horiz-adv-x="1001" d="M43 0l301 1413h139l-192 -905l557 530h176l-426 -401l254 -637h-154l-206 537l-244 -230l-66 -307h-139z" />
<glyph unicode="l" horiz-adv-x="559" d="M90 184q0 35 10 88l244 1141h139l-239 -1132q-8 -35 -8 -64q0 -48 25 -69t79 -21h84l-27 -127h-98q-103 0 -156 47t-53 137z" />
<glyph unicode="m" horiz-adv-x="1691" d="M45 0l219 1038h139l-28 -127q58 68 135 104q78 36 168 36q109 0 178 -45t90 -129q134 174 346 174q138 0 216 -70q77 -69 77 -195q0 -48 -12 -104l-146 -682h-139l142 662q10 49 10 81q0 91 -51 137q-50 46 -144 46q-114 0 -192 -69t-105 -189l-141 -668h-141l141 662 q10 44 10 81q0 91 -51 137q-50 46 -143 46q-113 0 -192 -69q-78 -68 -105 -195l-142 -662h-139z" />
<glyph unicode="n" horiz-adv-x="1071" d="M45 0l219 1038h139l-28 -127q59 72 136 105q81 35 169 35q138 0 211 -69q74 -69 74 -194q0 -46 -13 -106l-145 -682h-139l139 659q10 53 10 89q0 88 -49 133q-50 45 -139 45q-113 0 -195 -69q-81 -68 -108 -195l-142 -662h-139z" />
<glyph unicode="o" horiz-adv-x="1034" d="M84 283q0 67 14 131l45 213q47 221 173 323q127 103 307 103q149 0 239 -72t90 -221q0 -57 -16 -133l-45 -213q-46 -222 -172 -325q-123 -101 -301 -101q-155 0 -244 70q-90 70 -90 225zM227 309q0 -109 57 -152q58 -44 154 -44q118 0 198 68q82 70 116 241l41 196 q14 59 14 115q0 193 -205 193q-120 0 -203 -69q-80 -67 -118 -239l-41 -198q-13 -68 -13 -111z" />
<glyph unicode="p" d="M-20 -311l284 1349h142l-31 -145q56 77 134 118q76 40 167 40q130 0 210 -72q79 -72 79 -219q0 -64 -15 -133l-47 -224q-46 -216 -163 -316q-116 -99 -267 -99q-186 0 -258 157l-96 -456h-139zM264 332q0 -103 52 -161t157 -58q230 0 293 307l41 196q12 66 12 111 q0 107 -52 153t-136 46q-125 0 -206 -87q-82 -88 -112 -233l-37 -172q-12 -56 -12 -102z" />
<glyph unicode="q" horiz-adv-x="1044" d="M82 274q0 60 16 140l45 213q47 219 165 321q120 103 272 103q191 0 251 -158l31 145h139l-286 -1349h-140l97 448q-110 -149 -307 -149q-125 0 -204 69t-79 217zM227 307q0 -194 185 -194q129 0 210 86q80 85 109 225l39 180q10 44 10 103q0 101 -51 160t-151 59 q-226 0 -295 -310l-43 -194q-13 -55 -13 -115z" />
<glyph unicode="r" horiz-adv-x="692" d="M45 0l219 1038h139l-30 -139q61 80 138 116q81 38 167 38q38 0 76 -6l-31 -140q-45 17 -102 17q-109 0 -191 -76q-81 -75 -108 -205l-138 -643h-139z" />
<glyph unicode="s" horiz-adv-x="954" d="M49 299h131q0 -96 57 -144q58 -49 179 -49q112 0 190 58q76 57 76 155q0 65 -39 95t-121 45l-121 22q-126 23 -188 76q-59 50 -59 150q0 99 50 179t141 123q93 44 214 44q177 0 259 -78q83 -78 83 -219h-135q0 94 -53 138t-170 44q-114 0 -182 -58t-68 -147q0 -57 37 -87 q36 -29 114 -44l129 -24q131 -24 191 -81q59 -56 59 -157q0 -161 -116 -256q-117 -96 -308 -96q-173 0 -262 81q-88 81 -88 230z" />
<glyph unicode="t" horiz-adv-x="718" d="M166 928l22 110h162l51 238l154 65l-66 -303h236l-23 -110h-235l-141 -664q-4 -15 -4 -47q0 -94 108 -94h82l-27 -123h-104q-100 0 -152 49q-53 50 -53 135q0 37 8 74l144 670h-162z" />
<glyph unicode="u" horiz-adv-x="1071" d="M113 266q0 50 14 121l137 651h142l-138 -641q-14 -67 -14 -112q0 -85 47 -129q46 -43 150 -43q132 0 200 68q72 72 101 218l137 639h139l-139 -657q-84 -393 -451 -393q-161 0 -242 71q-83 72 -83 207z" />
<glyph unicode="v" horiz-adv-x="899" d="M139 1038h148l94 -833l448 833h152l-580 -1038h-125z" />
<glyph unicode="w" horiz-adv-x="1462" d="M139 1038h148l57 -831l432 831h127l80 -831l412 831h149l-536 -1038h-127l-84 838l-437 -838h-127z" />
<glyph unicode="x" horiz-adv-x="868" d="M-80 0l449 539l-201 499h147l154 -387l305 387h158l-418 -497l213 -541h-143l-168 422l-336 -422h-160z" />
<glyph unicode="y" horiz-adv-x="901" d="M-39 -311l27 127h49q78 0 120 29q44 31 83 102l36 67l-137 1024h150l96 -823l449 823h149l-645 -1151q-60 -105 -134 -151q-76 -47 -181 -47h-62z" />
<glyph unicode="z" horiz-adv-x="935" d="M10 0l29 129l694 780h-528l26 129h693l-27 -129l-696 -780h530l-26 -129h-695z" />
<glyph unicode="{" horiz-adv-x="696" d="M139 610l29 133q77 1 119 40q41 38 59 126l80 381q47 226 258 226h102l-26 -125h-74q-47 0 -75 -25t-40 -80l-77 -366q-24 -112 -63 -167q-38 -53 -114 -77q45 -17 66 -46q20 -29 20 -81q0 -53 -14 -115l-80 -377q-4 -15 -4 -39q0 -65 76 -65h72l-25 -125h-102 q-170 0 -170 147q0 36 8 78l82 391q8 37 8 68q0 51 -28 74q-27 22 -87 24z" />
<glyph unicode="|" horiz-adv-x="978" d="M453 -170v1686h137v-1686h-137z" />
<glyph unicode="}" horiz-adv-x="940" d="M94 -172l27 125h72q47 0 75 24q29 24 41 80l80 377q23 110 63 165q38 53 111 77q-45 16 -64 46q-20 31 -20 83q0 49 15 115l77 366q4 13 4 39q0 66 -75 66h-74l27 125h102q172 0 172 -152q0 -37 -8 -74l-82 -381q-8 -37 -8 -67q0 -52 27 -74q28 -24 89 -25l-30 -133 q-75 -1 -118 -40q-42 -38 -60 -126l-82 -391q-47 -225 -258 -225h-103z" />
<glyph unicode="~" d="M102 504q43 94 111 142t149 48q52 0 93 -18q39 -17 98 -53q46 -27 79 -43q30 -15 64 -15q48 0 85 28q35 27 75 95l100 -63q-46 -94 -112 -142q-67 -49 -150 -49q-51 0 -95 19q-41 18 -95 53q-45 29 -77 45q-28 14 -65 14q-49 0 -84 -26t-75 -97z" />
<glyph unicode="&#xa1;" horiz-adv-x="489" d="M-16 -311l229 948h115l-172 -948h-172zM223 846l41 192h185l-41 -192h-185z" />
<glyph unicode="&#xa2;" horiz-adv-x="1032" d="M86 295q0 67 14 131l43 201q84 394 420 424l41 192h119l-41 -194q131 -15 200 -92q68 -75 68 -209q0 -30 -2 -52h-135l2 35q0 175 -160 193l-174 -809q109 8 173 66t81 161h133q-18 -161 -128 -256q-108 -93 -285 -98l-41 -193h-119l43 201q-117 21 -184 94 q-68 74 -68 205zM227 315q0 -85 36 -132q35 -45 102 -62l170 799q-95 -16 -159 -87q-65 -71 -95 -215l-39 -184q-15 -63 -15 -119z" />
<glyph unicode="&#xa3;" horiz-adv-x="892" d="M0 0l29 127q57 30 89 80t48 131l53 256h-135l29 135h135l74 352q34 165 137 259t250 94q113 0 180 -59q65 -58 65 -167q0 -37 -10 -86h-147q6 28 6 52q0 58 -33 89q-32 31 -92 31q-76 0 -128 -48t-73 -142l-80 -375h285l-29 -135h-284l-50 -238q-17 -75 -43 -126 q-27 -53 -71 -91h540l-30 -139h-715z" />
<glyph unicode="&#xa4;" horiz-adv-x="1255" d="M106 295l175 141q-33 69 -33 144q0 84 36 171q36 86 97 152l-115 146l117 96l115 -144q117 72 247 72q129 0 220 -72l174 144l75 -96l-176 -144q35 -67 35 -147q0 -86 -36 -171q-36 -86 -97 -151l115 -143l-117 -98l-115 145q-115 -74 -248 -74q-135 0 -221 74l-174 -143 zM381 602q0 -94 59 -152q61 -59 160 -59q87 0 166 47t125 126q47 80 47 169q0 96 -59 155q-60 60 -160 60q-93 0 -170 -49q-78 -50 -123 -130q-45 -81 -45 -167z" />
<glyph unicode="&#xa5;" horiz-adv-x="929" d="M57 317l25 115h291l28 137h-288l24 117h250l-176 727h168l137 -665l418 665h166l-484 -727h250l-26 -117h-289l-29 -137h289l-25 -115h-288l-68 -317h-149l67 317h-291z" />
<glyph unicode="&#xa6;" horiz-adv-x="978" d="M453 -170v725h137v-725h-137zM453 795v721h137v-721h-137z" />
<glyph unicode="&#xa7;" horiz-adv-x="1046" d="M66 -113q0 45 12 105h141q-8 -37 -8 -70q0 -135 151 -135q90 0 149 47q58 46 75 133q6 30 6 56q0 64 -50 105q-49 40 -165 69q-215 53 -215 258q0 51 12 108q24 118 95 206t177 122q-110 67 -110 190q0 110 49 196q49 87 136 136q86 49 200 49q133 0 199 -59 q67 -60 67 -166q0 -55 -10 -96h-139q8 48 8 63q0 127 -141 127q-98 0 -158 -61q-60 -62 -60 -168q0 -64 45 -101q42 -35 158 -69q117 -33 166 -94t49 -164q0 -50 -12 -111q-23 -118 -94 -204t-174 -119q118 -63 118 -191q0 -37 -10 -86q-29 -142 -129 -224 q-101 -83 -248 -83q-139 0 -214 59q-76 60 -76 172zM313 489q0 -76 44 -120q43 -43 126 -43q100 0 168 62q70 64 94 175q9 47 9 76q0 80 -43 122t-125 42q-100 0 -169 -63q-68 -62 -95 -177q-9 -41 -9 -74zM659 1448z" />
<glyph unicode="&#xa8;" horiz-adv-x="1024" d="M399 1184l37 176h156l-37 -176h-156zM750 1184l36 176h156l-37 -176h-155z" />
<glyph unicode="&#xa9;" horiz-adv-x="1718" d="M193 696q0 208 89 372q87 162 248 254q158 91 367 91t367 -91q161 -92 248 -254q90 -166 90 -372q0 -205 -90 -371q-87 -162 -248 -254q-158 -91 -367 -91q-208 0 -368 91t-248 254t-88 371zM307 696q0 -181 73 -319q71 -135 207 -213q133 -76 310 -76q176 0 309 76 q134 77 206 213q73 138 73 319q0 182 -73 320q-72 136 -206 213q-133 76 -309 76q-177 0 -310 -76q-136 -78 -207 -213q-73 -138 -73 -320zM600 623v157q0 168 82 244t221 76q132 0 211 -70q78 -69 78 -188v-11h-107v7q0 77 -48 119t-130 42q-93 0 -145 -50 q-51 -49 -51 -175v-145q0 -127 51 -177q53 -51 145 -51q83 0 130 43q48 44 48 119v8h107v-10q0 -119 -78 -188q-79 -70 -209 -70q-141 0 -223 76t-82 244z" />
<glyph unicode="&#xaa;" horiz-adv-x="679" d="M205 1051q0 37 10 86l27 131q27 132 96 198t164 66q106 0 149 -94l19 86h127l-135 -643h-134l19 75q-57 -84 -170 -84q-78 0 -125 44t-47 135zM340 1087q0 -48 26 -72t68 -24q62 0 100 41q36 39 52 111l24 114q6 29 6 52q0 47 -24 75q-24 29 -74 29q-112 0 -145 -149 l-27 -125q-6 -27 -6 -52zM524 1735z" />
<glyph unicode="&#xab;" horiz-adv-x="978" d="M55 541l486 405l-35 -170l-283 -235l183 -236l-37 -170zM430 541l485 405l-34 -170l-283 -235l182 -236l-37 -170z" />
<glyph unicode="&#xac;" d="M102 541v127h822v-402h-142v275h-680z" />
<glyph unicode="&#xad;" horiz-adv-x="806" d="M150 643l26 135h563l-26 -135h-563z" />
<glyph unicode="&#xae;" horiz-adv-x="1118" d="M281 1020q0 111 50 200t138 140t197 51q110 0 197 -51t137 -140q51 -91 51 -200q0 -113 -50 -202q-50 -90 -137 -140q-88 -51 -198 -51q-111 0 -198 51q-88 51 -137 141q-50 91 -50 201zM348 1020q0 -143 89 -237q89 -93 229 -93t228 93q89 94 89 237t-89 235 q-90 93 -228 93q-139 0 -229 -93q-89 -92 -89 -235zM522 803v438h166q71 0 108 -34q38 -35 38 -95q0 -42 -22 -75q-21 -31 -58 -46l90 -188h-80l-86 180h-82v-180h-74zM596 1049h92q72 0 72 63q0 64 -72 64h-92v-127z" />
<glyph unicode="&#xaf;" horiz-adv-x="997" d="M391 1208l27 127h532l-26 -127h-533z" />
<glyph unicode="&#xb0;" horiz-adv-x="751" d="M223 1147q0 123 82 205t205 82q122 0 204 -82q83 -83 83 -205t-83 -205q-82 -82 -204 -82q-123 0 -205 82t-82 205zM328 1147q0 -81 51 -133q51 -53 131 -53q78 0 129 53q51 52 51 133q0 82 -50 135t-130 53t-131 -53q-51 -52 -51 -135z" />
<glyph unicode="&#xb1;" d="M80 -8v135h815v-135h-815zM80 571v136h340v340h135v-340h340v-136h-340v-340h-135v340h-340z" />
<glyph unicode="&#xb2;" horiz-adv-x="788" d="M233 881l25 106l365 385q88 94 88 182q0 38 -22 60q-20 20 -62 20q-49 0 -84 -30t-47 -93l-4 -22h-134l7 31q22 105 101 167q78 62 191 62q93 0 147 -45t54 -121q0 -81 -36 -147q-37 -67 -101 -133l-283 -302h299l-24 -120h-480z" />
<glyph unicode="&#xb3;" horiz-adv-x="735" d="M236 1026q0 31 14 84h123q-6 -33 -6 -47q0 -37 24 -59q25 -23 68 -23q72 0 112 59q41 61 41 134q0 43 -25 67q-27 25 -75 25h-43l25 114h43q67 0 105 53t38 119q0 39 -22 61q-21 21 -62 21q-51 0 -85 -28q-33 -27 -44 -78l-4 -21h-125l4 23q18 99 91 160q71 59 183 59 q92 0 148 -47q55 -46 55 -131q0 -76 -42 -145q-41 -68 -118 -95q46 -17 68 -54q23 -38 23 -89q0 -88 -40 -159q-42 -74 -111 -117q-71 -44 -157 -44q-95 0 -151 42q-55 42 -55 116z" />
<glyph unicode="&#xb4;" horiz-adv-x="1024" d="M463 1171l256 256h172l-299 -256h-129z" />
<glyph unicode="&#xb5;" horiz-adv-x="1056" d="M-20 -311l284 1349h142l-144 -673q-10 -49 -10 -93q0 -77 49 -119t135 -42q104 0 186 67q83 68 107 187l143 673h142l-221 -1038h-140l27 123q-117 -139 -293 -139q-133 0 -188 79l-80 -374h-139z" />
<glyph unicode="&#xb6;" horiz-adv-x="1171" d="M250 879q0 51 12 106q23 118 97 218q71 95 186 154q111 56 252 56h401l-367 -1724h-137l338 1591h-186l-338 -1591h-137l184 868q-146 11 -225 97q-80 88 -80 225z" />
<glyph unicode="&#xb7;" horiz-adv-x="489" d="M141 457l41 190h180l-38 -190h-183z" />
<glyph unicode="&#xb8;" horiz-adv-x="997" d="M209 -307l201 332h122l-176 -332h-147z" />
<glyph unicode="&#xb9;" horiz-adv-x="514" d="M313 1473l31 151l174 111h144l-183 -854h-141l149 704z" />
<glyph unicode="&#xba;" horiz-adv-x="675" d="M205 1061q0 36 10 80l27 123q30 138 104 203t193 65q101 0 160 -47t59 -144q0 -33 -8 -75l-25 -125q-51 -269 -295 -269q-102 0 -164 47q-61 46 -61 142zM340 1087q0 -96 106 -96q55 0 92 35q36 34 54 117l26 121q7 35 7 53q0 48 -28 73q-26 23 -75 23q-56 0 -94 -35 q-37 -34 -55 -114l-27 -125q-6 -27 -6 -52zM543 1735z" />
<glyph unicode="&#xbb;" horiz-adv-x="980" d="M74 135l37 170l280 236l-182 235l37 170l313 -405zM449 135l36 170l281 236l-182 235l37 170l313 -405z" />
<glyph unicode="&#xbc;" horiz-adv-x="1585" d="M139 0l1067 1413h127l-1065 -1413h-129zM246 1151l30 152l175 110h143l-182 -854h-142l150 705zM885 154l24 120l363 580h139l-362 -580h182l43 201h139l-43 -201h82l-27 -120h-79l-33 -154h-142l33 154h-319z" />
<glyph unicode="&#xbd;" horiz-adv-x="1667" d="M139 0l1067 1413h127l-1065 -1413h-129zM246 1151l30 152l175 110h143l-182 -854h-142l150 705zM924 0l24 106l365 386q88 94 88 182q0 37 -22 59q-21 21 -62 21q-48 0 -84 -31q-35 -30 -47 -92l-4 -23h-133l6 31q22 105 101 167q78 62 192 62q92 0 146 -45t54 -121 q0 -81 -36 -147q-37 -67 -101 -133l-283 -301h299l-24 -121h-479z" />
<glyph unicode="&#xbe;" horiz-adv-x="1806" d="M164 705q0 30 14 83h123q-6 -33 -6 -47q0 -37 24 -59q25 -23 68 -23q72 0 113 60q41 61 41 133q0 44 -26 68q-25 24 -75 24h-43l25 115h43q68 0 105 52q38 53 38 120q0 39 -21 60q-22 22 -63 22q-50 0 -85 -29q-33 -27 -44 -78l-4 -20h-125l4 22q18 99 91 160 q71 59 184 59q91 0 147 -47t56 -131q0 -75 -42 -144q-41 -68 -118 -95q44 -16 67 -55q23 -38 23 -89q0 -87 -40 -158q-42 -74 -111 -117q-71 -44 -156 -44q-97 0 -152 42t-55 116zM360 0l1067 1413h127l-1065 -1413h-129zM1106 154l24 120l363 580h139l-362 -580h182l43 201 h139l-43 -201h82l-26 -120h-80l-33 -154h-141l32 154h-319z" />
<glyph unicode="&#xbf;" horiz-adv-x="880" d="M-20 -74q0 109 45 193t137 176l123 123q52 52 72 89q19 35 34 101l17 72h149l-18 -74q-21 -85 -46 -133q-24 -47 -94 -117l-120 -118q-74 -71 -112 -141q-36 -66 -36 -146q0 -72 43 -111q44 -39 129 -39q203 0 244 226h149q-33 -173 -141 -266t-279 -93q-137 0 -218 70 q-78 68 -78 188zM430 848l41 190h182l-41 -190h-182z" />
<glyph unicode="&#xc0;" horiz-adv-x="1167" d="M-102 0l813 1413h127l211 -1413h-156l-47 340h-600l-191 -340h-157zM317 467h512l-100 737zM578 1774h159l150 -256h-117z" />
<glyph unicode="&#xc1;" horiz-adv-x="1167" d="M-102 0l813 1413h127l211 -1413h-156l-47 340h-600l-191 -340h-157zM317 467h512l-100 737zM631 1518l256 256h172l-299 -256h-129z" />
<glyph unicode="&#xc2;" horiz-adv-x="1167" d="M-102 0l813 1413h127l211 -1413h-156l-47 340h-600l-191 -340h-157zM317 467h512l-100 737zM489 1497l281 295h113l155 -295h-127l-104 195l-193 -195h-125z" />
<glyph unicode="&#xc3;" horiz-adv-x="1167" d="M-102 0l813 1413h127l211 -1413h-156l-47 340h-600l-191 -340h-157zM317 467h512l-100 737zM512 1511l27 125q48 43 79 59q37 19 78 19q35 0 58 -10q29 -12 55 -31t51 -29t49 -10q37 0 69 18q36 21 83 62l-27 -125q-82 -76 -157 -76q-35 0 -60 11q-32 14 -57 30 q-36 23 -52 29q-21 8 -44 8q-39 0 -69 -17q-33 -19 -83 -63z" />
<glyph unicode="&#xc4;" horiz-adv-x="1167" d="M-102 0l813 1413h127l211 -1413h-156l-47 340h-600l-191 -340h-157zM317 467h512l-100 737zM516 1530l37 176h156l-37 -176h-156zM866 1530l37 176h156l-37 -176h-156z" />
<glyph unicode="&#xc5;" horiz-adv-x="1167" d="M-102 0l811 1411q-47 23 -74 68t-27 100q0 83 52 135q53 53 135 53q80 0 133 -53t53 -135q0 -67 -39 -117q-38 -48 -102 -65l209 -1397h-156l-47 340h-600l-191 -340h-157zM317 467h512l-100 737zM688 1579q0 -47 31 -78t76 -31q44 0 75 31t31 78q0 46 -31 79 q-30 32 -75 32q-46 0 -76 -32q-31 -33 -31 -79zM770 1413z" />
<glyph unicode="&#xc6;" horiz-adv-x="1783" d="M-102 0l1069 1413h891l-29 -135h-655l-105 -492h551l-27 -135h-553l-108 -516h655l-31 -135h-802l73 350h-495l-264 -350h-170zM428 477h428l168 793z" />
<glyph unicode="&#xc7;" horiz-adv-x="1249" d="M119 358q0 74 18 166l78 367q60 286 214 413q155 128 380 128q198 0 305 -99t107 -272q0 -28 -7 -68h-149q4 16 4 51q0 121 -71 187q-69 65 -207 65q-169 0 -274 -96q-106 -97 -152 -315l-80 -369q-17 -80 -17 -131q0 -136 78 -200q77 -64 217 -64q152 0 248 78 q97 79 131 217l2 8h146l-3 -8q-47 -185 -173 -299q-127 -115 -316 -131l-156 -293h-147l178 293q-166 15 -259 105q-95 92 -95 267z" />
<glyph unicode="&#xc8;" horiz-adv-x="1138" d="M53 0l301 1413h858l-28 -135h-709l-104 -492h606l-29 -135h-606l-111 -516h711l-31 -135h-858zM602 1802h160l149 -256h-116z" />
<glyph unicode="&#xc9;" horiz-adv-x="1138" d="M53 0l301 1413h858l-28 -135h-709l-104 -492h606l-29 -135h-606l-111 -516h711l-31 -135h-858zM655 1546l256 256h172l-299 -256h-129z" />
<glyph unicode="&#xca;" horiz-adv-x="1138" d="M53 0l301 1413h858l-28 -135h-709l-104 -492h606l-29 -135h-606l-111 -516h711l-31 -135h-858zM514 1526l281 295h112l156 -295h-127l-105 194l-192 -194h-125z" />
<glyph unicode="&#xcb;" horiz-adv-x="1138" d="M53 0l301 1413h858l-28 -135h-709l-104 -492h606l-29 -135h-606l-111 -516h711l-31 -135h-858zM541 1559l37 176h155l-37 -176h-155zM891 1559l37 176h155l-36 -176h-156z" />
<glyph unicode="&#xcc;" horiz-adv-x="509" d="M70 0l301 1413h149l-301 -1413h-149zM283 1802h159l150 -256h-117z" />
<glyph unicode="&#xcd;" horiz-adv-x="509" d="M70 0l301 1413h149l-301 -1413h-149zM336 1546l256 256h172l-299 -256h-129z" />
<glyph unicode="&#xce;" horiz-adv-x="509" d="M70 0l301 1413h149l-301 -1413h-149zM195 1526l280 295h113l155 -295h-127l-104 194l-193 -194h-124z" />
<glyph unicode="&#xcf;" horiz-adv-x="509" d="M70 0l301 1413h149l-301 -1413h-149zM221 1559l37 176h156l-37 -176h-156zM571 1559l37 176h156l-37 -176h-156z" />
<glyph unicode="&#xd0;" horiz-adv-x="1345" d="M102 647l29 135h164l135 631h479q185 0 291 -87q107 -87 107 -275q0 -83 -21 -177l-72 -335q-60 -281 -219 -410t-383 -129h-483l137 647h-164zM309 135h332q338 0 422 395l72 338q20 97 20 162q0 129 -68 189q-66 59 -196 59h-340l-105 -496h308l-27 -135h-309z" />
<glyph unicode="&#xd1;" horiz-adv-x="1357" d="M53 0l301 1413h150l489 -1134l244 1134h147l-301 -1413h-149l-490 1139l-241 -1139h-150zM621 1540l26 125q44 39 80 58q38 20 78 20q34 0 57 -10q31 -14 56 -31q28 -21 51 -30q22 -9 49 -9q38 0 68 17q33 19 83 63l-26 -125q-82 -76 -158 -76q-36 0 -59 10 q-30 13 -58 31q-36 23 -52 29q-21 8 -44 8q-39 0 -69 -17t-82 -63z" />
<glyph unicode="&#xd2;" horiz-adv-x="1247" d="M119 358q0 74 18 166l78 367q114 541 582 541q188 0 301 -92q112 -91 112 -283q0 -75 -18 -166l-78 -367q-114 -540 -577 -540q-194 0 -306 91t-112 283zM268 381q0 -260 289 -260q160 0 260 94q101 95 146 301l79 369q17 76 17 145q0 266 -281 266q-165 0 -266 -96 q-100 -96 -147 -315l-80 -369q-17 -80 -17 -135zM631 1802h160l149 -256h-117z" />
<glyph unicode="&#xd3;" horiz-adv-x="1247" d="M119 358q0 74 18 166l78 367q114 541 582 541q188 0 301 -92q112 -91 112 -283q0 -75 -18 -166l-78 -367q-114 -540 -577 -540q-194 0 -306 91t-112 283zM268 381q0 -260 289 -260q160 0 260 94q101 95 146 301l79 369q17 76 17 145q0 266 -281 266q-165 0 -266 -96 q-100 -96 -147 -315l-80 -369q-17 -80 -17 -135zM684 1546l256 256h172l-299 -256h-129z" />
<glyph unicode="&#xd4;" horiz-adv-x="1247" d="M119 358q0 74 18 166l78 367q114 541 582 541q188 0 301 -92q112 -91 112 -283q0 -75 -18 -166l-78 -367q-114 -540 -577 -540q-194 0 -306 91t-112 283zM268 381q0 -260 289 -260q160 0 260 94q101 95 146 301l79 369q17 76 17 145q0 266 -281 266q-165 0 -266 -96 q-100 -96 -147 -315l-80 -369q-17 -80 -17 -135zM543 1526l280 295h113l156 -295h-127l-105 194l-192 -194h-125z" />
<glyph unicode="&#xd5;" horiz-adv-x="1247" d="M119 358q0 74 18 166l78 367q114 541 582 541q188 0 301 -92q112 -91 112 -283q0 -75 -18 -166l-78 -367q-114 -540 -577 -540q-194 0 -306 91t-112 283zM268 381q0 -260 289 -260q160 0 260 94q101 95 146 301l79 369q17 76 17 145q0 266 -281 266q-165 0 -266 -96 q-100 -96 -147 -315l-80 -369q-17 -80 -17 -135zM565 1540l27 125q44 39 80 58q38 20 78 20q34 0 57 -10q29 -13 55 -31q28 -21 51 -30t50 -9q38 0 68 17q33 19 83 63l-27 -125q-82 -76 -157 -76q-37 0 -60 10q-27 12 -57 31q-36 23 -52 29q-21 8 -44 8q-39 0 -69 -17 q-33 -19 -83 -63z" />
<glyph unicode="&#xd6;" horiz-adv-x="1247" d="M119 358q0 74 18 166l78 367q114 541 582 541q188 0 301 -92q112 -91 112 -283q0 -75 -18 -166l-78 -367q-114 -540 -577 -540q-194 0 -306 91t-112 283zM268 381q0 -260 289 -260q160 0 260 94q101 95 146 301l79 369q17 76 17 145q0 266 -281 266q-165 0 -266 -96 q-100 -96 -147 -315l-80 -369q-17 -80 -17 -135zM569 1559l37 176h156l-37 -176h-156zM920 1559l36 176h156l-37 -176h-155z" />
<glyph unicode="&#xd7;" d="M190 313l254 254l-254 252l93 90l252 -252l253 252l91 -90l-252 -252l252 -254l-91 -90l-253 252l-252 -252z" />
<glyph unicode="&#xd8;" horiz-adv-x="1247" d="M16 -41l152 193q-49 85 -49 206q0 74 18 166l78 367q114 541 582 541q196 0 303 -95l92 117h119l-150 -190q49 -85 49 -207q0 -75 -18 -166l-78 -367q-114 -540 -577 -540q-202 0 -308 94l-94 -119h-119zM268 381q0 -41 11 -88l725 921q-69 82 -226 82q-165 0 -266 -96 q-100 -96 -147 -315l-80 -369q-17 -80 -17 -135zM326 201q72 -80 231 -80q160 0 260 94q101 95 146 301l79 369q17 76 17 145q0 47 -10 90z" />
<glyph unicode="&#xd9;" horiz-adv-x="1300" d="M141 362q0 47 13 107l200 944h152l-201 -940q-10 -53 -10 -92q0 -122 76 -191q77 -69 209 -69q153 0 258 93t139 259l201 940h149l-203 -952q-45 -216 -194 -344q-150 -129 -365 -129q-187 0 -306 102q-118 102 -118 272zM668 1802h159l150 -256h-117z" />
<glyph unicode="&#xda;" horiz-adv-x="1300" d="M141 362q0 47 13 107l200 944h152l-201 -940q-10 -53 -10 -92q0 -122 76 -191q77 -69 209 -69q153 0 258 93t139 259l201 940h149l-203 -952q-45 -216 -194 -344q-150 -129 -365 -129q-187 0 -306 102q-118 102 -118 272zM721 1546l256 256h172l-299 -256h-129z" />
<glyph unicode="&#xdb;" horiz-adv-x="1300" d="M141 362q0 47 13 107l200 944h152l-201 -940q-10 -53 -10 -92q0 -122 76 -191q77 -69 209 -69q153 0 258 93t139 259l201 940h149l-203 -952q-45 -216 -194 -344q-150 -129 -365 -129q-187 0 -306 102q-118 102 -118 272zM580 1526l280 295h113l155 -295h-127l-104 194 l-192 -194h-125z" />
<glyph unicode="&#xdc;" horiz-adv-x="1300" d="M141 362q0 47 13 107l200 944h152l-201 -940q-10 -53 -10 -92q0 -122 76 -191q77 -69 209 -69q153 0 258 93t139 259l201 940h149l-203 -952q-45 -216 -194 -344q-150 -129 -365 -129q-187 0 -306 102q-118 102 -118 272zM606 1559l37 176h156l-37 -176h-156zM956 1559 l37 176h156l-37 -176h-156z" />
<glyph unicode="&#xdd;" horiz-adv-x="1007" d="M199 1413h159l191 -682l479 682h162l-596 -823l-127 -590h-148l125 594zM571 1546l256 256h172l-299 -256h-129z" />
<glyph unicode="&#xde;" horiz-adv-x="1185" d="M53 0l301 1413h150l-55 -258h337q176 0 271 -79q96 -79 96 -224q0 -42 -10 -96q-35 -200 -177 -315t-356 -115h-338l-69 -326h-150zM301 461h326q153 0 246 71q96 73 120 220q6 38 6 69q0 201 -254 201h-325z" />
<glyph unicode="&#xdf;" horiz-adv-x="1036" d="M45 0l219 1036q40 192 147 293q104 98 302 98q152 0 236 -65q85 -66 85 -176q0 -103 -50 -186q-50 -82 -144 -126q52 -26 75 -67t23 -105q0 -81 -35 -241q-40 -180 -86 -280q-45 -97 -127 -143t-227 -46h-60l27 127h55q95 0 144 33q48 32 74 99q27 69 59 210 q31 144 31 205q0 73 -39 106t-135 33h-44l27 127h55q115 0 173 61q59 62 59 168q0 68 -48 104q-47 35 -143 35q-124 0 -192 -58q-69 -59 -96 -187l-226 -1055h-139z" />
<glyph unicode="&#xe0;" horiz-adv-x="1044" d="M82 274q0 60 16 140l45 213q46 218 166 321t277 103q92 0 154 -40q63 -40 91 -118l31 145h139l-221 -1038h-137l31 139q-112 -151 -309 -151q-125 0 -204 69t-79 217zM227 305q0 -192 185 -192q129 0 210 86q80 85 109 225l39 182q10 44 10 103q0 103 -49 159 q-50 58 -149 58q-231 0 -299 -310l-43 -196q-13 -55 -13 -115zM440 1427h160l150 -256h-117z" />
<glyph unicode="&#xe1;" horiz-adv-x="1044" d="M82 274q0 60 16 140l45 213q46 218 166 321t277 103q92 0 154 -40q63 -40 91 -118l31 145h139l-221 -1038h-137l31 139q-112 -151 -309 -151q-125 0 -204 69t-79 217zM227 305q0 -192 185 -192q129 0 210 86q80 85 109 225l39 182q10 44 10 103q0 103 -49 159 q-50 58 -149 58q-231 0 -299 -310l-43 -196q-13 -55 -13 -115zM494 1171l256 256h172l-299 -256h-129z" />
<glyph unicode="&#xe2;" horiz-adv-x="1044" d="M82 274q0 60 16 140l45 213q46 218 166 321t277 103q92 0 154 -40q63 -40 91 -118l31 145h139l-221 -1038h-137l31 139q-112 -151 -309 -151q-125 0 -204 69t-79 217zM227 305q0 -192 185 -192q129 0 210 86q80 85 109 225l39 182q10 44 10 103q0 103 -49 159 q-50 58 -149 58q-231 0 -299 -310l-43 -196q-13 -55 -13 -115zM352 1151l281 295h112l156 -295h-127l-104 195l-193 -195h-125z" />
<glyph unicode="&#xe3;" horiz-adv-x="1044" d="M82 274q0 60 16 140l45 213q46 218 166 321t277 103q92 0 154 -40q63 -40 91 -118l31 145h139l-221 -1038h-137l31 139q-112 -151 -309 -151q-125 0 -204 69t-79 217zM227 305q0 -192 185 -192q129 0 210 86q80 85 109 225l39 182q10 44 10 103q0 103 -49 159 q-50 58 -149 58q-231 0 -299 -310l-43 -196q-13 -55 -13 -115zM375 1165l26 125q46 41 80 59q37 19 78 19q34 0 57 -10q31 -14 56 -31q28 -21 51 -30t49 -9q38 0 69 18q36 21 83 62l-27 -125q-82 -76 -158 -76q-34 0 -59 11q-32 14 -57 30q-34 22 -53 29q-21 8 -44 8 q-38 0 -68 -17q-33 -19 -83 -63z" />
<glyph unicode="&#xe4;" horiz-adv-x="1044" d="M82 274q0 60 16 140l45 213q46 218 166 321t277 103q92 0 154 -40q63 -40 91 -118l31 145h139l-221 -1038h-137l31 139q-112 -151 -309 -151q-125 0 -204 69t-79 217zM227 305q0 -192 185 -192q129 0 210 86q80 85 109 225l39 182q10 44 10 103q0 103 -49 159 q-50 58 -149 58q-231 0 -299 -310l-43 -196q-13 -55 -13 -115zM379 1184l37 176h155l-36 -176h-156zM729 1184l37 176h156l-37 -176h-156z" />
<glyph unicode="&#xe5;" horiz-adv-x="1044" d="M82 274q0 60 16 140l45 213q46 218 166 321t277 103q92 0 154 -40q63 -40 91 -118l31 145h139l-221 -1038h-137l31 139q-112 -151 -309 -151q-125 0 -204 69t-79 217zM227 305q0 -192 185 -192q129 0 210 86q80 85 109 225l39 182q10 44 10 103q0 103 -49 159 q-50 58 -149 58q-231 0 -299 -310l-43 -196q-13 -55 -13 -115zM471 1331q0 83 52 135q54 54 134 54t134 -54q53 -53 53 -135q0 -80 -53 -133t-134 -53t-134 53q-52 52 -52 133zM551 1331q0 -47 31 -78q30 -30 75 -30t75 30t30 78q0 47 -30 79t-75 32t-75 -32 q-31 -33 -31 -79z" />
<glyph unicode="&#xe6;" horiz-adv-x="1662" d="M70 242q0 102 54 182t151 123q96 43 223 43h270q33 147 33 184q0 162 -199 162q-111 0 -176 -49q-66 -50 -84 -137h-137q28 144 139 223q112 80 281 80q218 0 290 -144q62 74 154 109q93 35 195 35q146 0 231 -73q84 -72 84 -226q0 -70 -16 -140l-27 -122h-647l-12 -62 q-10 -48 -13 -66q-4 -28 -4 -69q0 -95 58 -139q56 -43 153 -43q109 0 179 51q72 52 106 155h137q-50 -165 -164 -248q-113 -83 -264 -83q-245 0 -317 164q-66 -80 -155 -122t-210 -42q-149 0 -231 64t-82 190zM209 258q0 -78 48 -118q47 -40 151 -40q136 0 212 74 q74 72 107 229l18 84h-247q-136 0 -213 -63q-76 -63 -76 -166zM909 596h508q23 101 23 147q0 183 -205 183q-258 0 -315 -281z" />
<glyph unicode="&#xe7;" horiz-adv-x="1032" d="M86 295q0 67 14 131l43 201q91 426 478 426q161 0 245 -78t84 -227q0 -30 -2 -52h-135l2 35q0 99 -50 147q-49 48 -153 48q-127 0 -211 -69q-82 -67 -120 -239l-39 -184q-15 -63 -15 -119q0 -112 60 -157t164 -45q123 0 194 59q72 60 90 170h133q-17 -153 -115 -245 t-259 -107l-158 -297h-148l181 299q-131 15 -207 88t-76 215z" />
<glyph unicode="&#xe8;" horiz-adv-x="1032" d="M88 299q0 57 16 137l37 178q47 225 173 332q127 107 302 107q150 0 240 -75t90 -228q0 -60 -16 -140l-25 -118h-649l-12 -64q-15 -63 -15 -119q0 -108 59 -152t161 -44q105 0 178 53q71 52 98 153h135q-33 -160 -144 -245q-112 -86 -286 -86q-158 0 -249 75 q-93 77 -93 236zM279 596h507l9 37q12 61 12 106q0 100 -53 144q-52 43 -150 43q-119 0 -203 -69q-83 -68 -118 -239zM453 1427h159l150 -256h-117z" />
<glyph unicode="&#xe9;" horiz-adv-x="1032" d="M88 299q0 57 16 137l37 178q47 225 173 332q127 107 302 107q150 0 240 -75t90 -228q0 -60 -16 -140l-25 -118h-649l-12 -64q-15 -63 -15 -119q0 -108 59 -152t161 -44q105 0 178 53q71 52 98 153h135q-33 -160 -144 -245q-112 -86 -286 -86q-158 0 -249 75 q-93 77 -93 236zM279 596h507l9 37q12 61 12 106q0 100 -53 144q-52 43 -150 43q-119 0 -203 -69q-83 -68 -118 -239zM506 1171l256 256h172l-299 -256h-129z" />
<glyph unicode="&#xea;" horiz-adv-x="1032" d="M88 299q0 57 16 137l37 178q47 225 173 332q127 107 302 107q150 0 240 -75t90 -228q0 -60 -16 -140l-25 -118h-649l-12 -64q-15 -63 -15 -119q0 -108 59 -152t161 -44q105 0 178 53q71 52 98 153h135q-33 -160 -144 -245q-112 -86 -286 -86q-158 0 -249 75 q-93 77 -93 236zM279 596h507l9 37q12 61 12 106q0 100 -53 144q-52 43 -150 43q-119 0 -203 -69q-83 -68 -118 -239zM365 1151l280 295h113l155 -295h-127l-104 195l-193 -195h-124z" />
<glyph unicode="&#xeb;" horiz-adv-x="1032" d="M88 299q0 57 16 137l37 178q47 225 173 332q127 107 302 107q150 0 240 -75t90 -228q0 -60 -16 -140l-25 -118h-649l-12 -64q-15 -63 -15 -119q0 -108 59 -152t161 -44q105 0 178 53q71 52 98 153h135q-33 -160 -144 -245q-112 -86 -286 -86q-158 0 -249 75 q-93 77 -93 236zM279 596h507l9 37q12 61 12 106q0 100 -53 144q-52 43 -150 43q-119 0 -203 -69q-83 -68 -118 -239zM391 1184l37 176h156l-37 -176h-156zM741 1184l37 176h156l-37 -176h-156z" />
<glyph unicode="&#xec;" horiz-adv-x="446" d="M45 0l219 1038h139l-221 -1038h-137zM172 1427h160l149 -256h-116z" />
<glyph unicode="&#xed;" horiz-adv-x="446" d="M45 0l219 1038h139l-221 -1038h-137zM225 1171l256 256h172l-299 -256h-129z" />
<glyph unicode="&#xee;" horiz-adv-x="446" d="M45 0l219 1038h139l-221 -1038h-137zM84 1151l281 295h112l156 -295h-127l-105 195l-192 -195h-125z" />
<glyph unicode="&#xef;" horiz-adv-x="446" d="M45 0l219 1038h139l-221 -1038h-137zM111 1184l36 176h156l-37 -176h-155zM461 1184l37 176h155l-37 -176h-155z" />
<glyph unicode="&#xf0;" horiz-adv-x="1017" d="M84 281q0 73 16 143l25 113q45 209 163 321q119 113 281 113q85 0 138 -29l-99 191l-223 -64l-6 111l180 51l-94 182h170l72 -139l217 61l6 -110l-174 -49l82 -160q80 -160 80 -316q0 -65 -17 -153l-22 -113q-45 -226 -172 -339q-126 -113 -314 -113q-152 0 -230 75 q-79 76 -79 224zM227 309q0 -194 197 -194q122 0 201 76q80 77 110 231l23 115q14 71 14 116q0 189 -192 189q-251 0 -314 -301l-24 -117q-15 -77 -15 -115z" />
<glyph unicode="&#xf1;" horiz-adv-x="1071" d="M45 0l219 1038h139l-28 -127q59 72 136 105q81 35 169 35q138 0 211 -69q74 -69 74 -194q0 -46 -13 -106l-145 -682h-139l139 659q10 53 10 89q0 88 -49 133q-50 45 -139 45q-113 0 -195 -69q-81 -68 -108 -195l-142 -662h-139zM410 1165l26 125q46 41 80 59q37 19 78 19 q34 0 57 -10q31 -14 56 -31q29 -21 51 -30q23 -9 49 -9q37 0 69 18q33 19 82 62l-26 -125q-82 -76 -158 -76q-34 0 -59 11q-35 15 -58 30q-36 23 -52 29q-21 8 -44 8q-38 0 -68 -17q-33 -19 -83 -63z" />
<glyph unicode="&#xf2;" horiz-adv-x="1034" d="M84 283q0 67 14 131l45 213q47 221 173 323q127 103 307 103q149 0 239 -72t90 -221q0 -57 -16 -133l-45 -213q-46 -222 -172 -325q-123 -101 -301 -101q-155 0 -244 70q-90 70 -90 225zM227 309q0 -109 57 -152q58 -44 154 -44q118 0 198 68q82 70 116 241l41 196 q14 59 14 115q0 193 -205 193q-120 0 -203 -69q-80 -67 -118 -239l-41 -198q-13 -68 -13 -111zM457 1427h159l150 -256h-117z" />
<glyph unicode="&#xf3;" horiz-adv-x="1034" d="M84 283q0 67 14 131l45 213q47 221 173 323q127 103 307 103q149 0 239 -72t90 -221q0 -57 -16 -133l-45 -213q-46 -222 -172 -325q-123 -101 -301 -101q-155 0 -244 70q-90 70 -90 225zM227 309q0 -109 57 -152q58 -44 154 -44q118 0 198 68q82 70 116 241l41 196 q14 59 14 115q0 193 -205 193q-120 0 -203 -69q-80 -67 -118 -239l-41 -198q-13 -68 -13 -111zM510 1171l256 256h172l-299 -256h-129z" />
<glyph unicode="&#xf4;" horiz-adv-x="1034" d="M84 283q0 67 14 131l45 213q47 221 173 323q127 103 307 103q149 0 239 -72t90 -221q0 -57 -16 -133l-45 -213q-46 -222 -172 -325q-123 -101 -301 -101q-155 0 -244 70q-90 70 -90 225zM227 309q0 -109 57 -152q58 -44 154 -44q118 0 198 68q82 70 116 241l41 196 q14 59 14 115q0 193 -205 193q-120 0 -203 -69q-80 -67 -118 -239l-41 -198q-13 -68 -13 -111zM369 1151l280 295h113l156 -295h-127l-105 195l-192 -195h-125z" />
<glyph unicode="&#xf5;" horiz-adv-x="1034" d="M84 283q0 67 14 131l45 213q47 221 173 323q127 103 307 103q149 0 239 -72t90 -221q0 -57 -16 -133l-45 -213q-46 -222 -172 -325q-123 -101 -301 -101q-155 0 -244 70q-90 70 -90 225zM227 309q0 -109 57 -152q58 -44 154 -44q118 0 198 68q82 70 116 241l41 196 q14 59 14 115q0 193 -205 193q-120 0 -203 -69q-80 -67 -118 -239l-41 -198q-13 -68 -13 -111zM391 1165l27 125q46 41 80 59q37 19 77 19q35 0 58 -10q29 -12 55 -31q28 -21 51 -30q22 -9 49 -9q38 0 69 18q36 21 83 62l-27 -125q-82 -76 -157 -76q-35 0 -60 11 q-32 14 -57 30q-36 23 -52 29q-21 8 -44 8q-39 0 -69 -17q-33 -19 -83 -63z" />
<glyph unicode="&#xf6;" horiz-adv-x="1034" d="M84 283q0 67 14 131l45 213q47 221 173 323q127 103 307 103q149 0 239 -72t90 -221q0 -57 -16 -133l-45 -213q-46 -222 -172 -325q-123 -101 -301 -101q-155 0 -244 70q-90 70 -90 225zM227 309q0 -109 57 -152q58 -44 154 -44q118 0 198 68q82 70 116 241l41 196 q14 59 14 115q0 193 -205 193q-120 0 -203 -69q-80 -67 -118 -239l-41 -198q-13 -68 -13 -111zM395 1184l37 176h156l-37 -176h-156zM745 1184l37 176h156l-37 -176h-156z" />
<glyph unicode="&#xf7;" d="M127 498v135h815v-135h-815zM436 279q0 40 29 69t70 29q40 0 69 -29t29 -69q0 -41 -29 -70t-69 -29q-41 0 -70 29t-29 70zM436 856q0 41 29 70q28 28 70 28q41 0 69 -28q29 -29 29 -70t-29 -70q-28 -28 -69 -28q-42 0 -70 28q-29 29 -29 70z" />
<glyph unicode="&#xf8;" horiz-adv-x="1034" d="M0 -61l135 163q-53 67 -53 177q0 70 16 135l47 213q96 426 469 426q153 0 244 -70l88 109h88l-129 -158q49 -68 49 -170q0 -57 -16 -137l-45 -213q-90 -426 -465 -426q-157 0 -246 67l-94 -116h-88zM227 305q0 -39 11 -78l528 645q-52 54 -158 54q-121 0 -206 -69 q-84 -68 -119 -239l-41 -196q-15 -63 -15 -117zM274 164q51 -51 160 -51q118 0 201 68q85 70 119 241l41 196q14 59 14 119q0 41 -8 70z" />
<glyph unicode="&#xf9;" horiz-adv-x="1071" d="M113 266q0 50 14 121l137 651h142l-138 -641q-14 -67 -14 -112q0 -85 47 -129q46 -43 150 -43q132 0 200 68q72 72 101 218l137 639h139l-139 -657q-84 -393 -451 -393q-161 0 -242 71q-83 72 -83 207zM483 1427h160l150 -256h-117z" />
<glyph unicode="&#xfa;" horiz-adv-x="1071" d="M113 266q0 50 14 121l137 651h142l-138 -641q-14 -67 -14 -112q0 -85 47 -129q46 -43 150 -43q132 0 200 68q72 72 101 218l137 639h139l-139 -657q-84 -393 -451 -393q-161 0 -242 71q-83 72 -83 207zM537 1171l256 256h172l-299 -256h-129z" />
<glyph unicode="&#xfb;" horiz-adv-x="1071" d="M113 266q0 50 14 121l137 651h142l-138 -641q-14 -67 -14 -112q0 -85 47 -129q46 -43 150 -43q132 0 200 68q72 72 101 218l137 639h139l-139 -657q-84 -393 -451 -393q-161 0 -242 71q-83 72 -83 207zM395 1151l281 295h112l156 -295h-127l-104 195l-193 -195h-125z" />
<glyph unicode="&#xfc;" horiz-adv-x="1071" d="M113 266q0 50 14 121l137 651h142l-138 -641q-14 -67 -14 -112q0 -85 47 -129q46 -43 150 -43q132 0 200 68q72 72 101 218l137 639h139l-139 -657q-84 -393 -451 -393q-161 0 -242 71q-83 72 -83 207zM422 1184l37 176h155l-36 -176h-156zM772 1184l37 176h156l-37 -176 h-156z" />
<glyph unicode="&#xfd;" horiz-adv-x="901" d="M-39 -311l27 127h49q78 0 120 29q44 31 83 102l36 67l-137 1024h150l96 -823l449 823h149l-645 -1151q-60 -105 -134 -151q-76 -47 -181 -47h-62zM434 1171l256 256h172l-299 -256h-129z" />
<glyph unicode="&#xfe;" d="M-23 -311l367 1724h139l-110 -520q61 79 136 119q77 41 167 41q129 0 210 -70q79 -69 79 -217q0 -64 -21 -158l-43 -194q-50 -223 -169 -324q-120 -102 -271 -102q-198 0 -250 149l-94 -448h-140zM262 326q0 -99 51 -156t154 -57q104 0 182 72q77 71 115 241l41 192 q14 59 14 117q0 191 -186 191q-126 0 -208 -88q-85 -91 -114 -232l-30 -141q-19 -90 -19 -139z" />
<glyph unicode="&#xff;" horiz-adv-x="901" d="M-39 -311l27 127h49q78 0 120 29q44 31 83 102l36 67l-137 1024h150l96 -823l449 823h149l-645 -1151q-60 -105 -134 -151q-76 -47 -181 -47h-62zM319 1184l37 176h156l-37 -176h-156zM670 1184l37 176h155l-37 -176h-155z" />
<glyph unicode="&#x152;" horiz-adv-x="1941" d="M119 358q0 74 18 166l78 367q114 541 582 541q230 0 338 -129l22 110h858l-28 -135h-709l-104 -492h606l-29 -135h-606l-111 -516h711l-31 -135h-858l18 88q-132 -104 -337 -104q-194 0 -306 91t-112 283zM268 381q0 -260 289 -260q160 0 260 94q101 95 146 301l79 369 q17 76 17 145q0 266 -281 266q-165 0 -266 -96q-100 -96 -147 -315l-80 -369q-17 -80 -17 -135z" />
<glyph unicode="&#x153;" horiz-adv-x="1685" d="M84 283q0 67 14 131l45 213q47 221 173 323q127 103 307 103q107 0 185 -37q79 -37 116 -115q129 152 346 152q149 0 239 -75t90 -228q0 -60 -16 -140l-24 -118h-650l-12 -64q-14 -59 -14 -119q0 -109 58 -152q59 -44 161 -44q105 0 178 53q71 52 98 153h135 q-33 -160 -144 -245q-112 -86 -286 -86q-108 0 -189 39q-82 39 -122 118q-127 -157 -354 -157q-155 0 -244 70q-90 70 -90 225zM227 309q0 -109 57 -152q58 -44 154 -44q118 0 198 68q82 70 116 241l41 196q14 59 14 115q0 193 -205 193q-120 0 -203 -69q-80 -67 -118 -239 l-41 -198q-13 -68 -13 -111zM932 596h508l8 37q12 61 12 106q0 100 -53 144q-53 43 -150 43q-118 0 -202 -69t-119 -239z" />
<glyph unicode="&#x178;" horiz-adv-x="1007" d="M199 1413h159l191 -682l479 682h162l-596 -823l-127 -590h-148l125 594zM457 1559l37 176h155l-37 -176h-155zM807 1559l37 176h155l-36 -176h-156z" />
<glyph unicode="&#x2c6;" horiz-adv-x="997" d="M371 1151l280 295h113l156 -295h-127l-105 195l-192 -195h-125z" />
<glyph unicode="&#x2dc;" horiz-adv-x="997" d="M395 1165l27 125q46 41 80 59q37 19 78 19q34 0 57 -10q29 -12 55 -31q28 -21 51 -30t50 -9q37 0 68 18q36 21 83 62l-26 -125q-82 -76 -158 -76q-35 0 -60 11q-32 14 -57 30q-36 23 -52 29q-21 8 -44 8q-39 0 -69 -17q-33 -19 -83 -63z" />
<glyph unicode="&#x2000;" horiz-adv-x="910" />
<glyph unicode="&#x2001;" horiz-adv-x="1821" />
<glyph unicode="&#x2002;" horiz-adv-x="910" />
<glyph unicode="&#x2003;" horiz-adv-x="1821" />
<glyph unicode="&#x2004;" horiz-adv-x="607" />
<glyph unicode="&#x2005;" horiz-adv-x="455" />
<glyph unicode="&#x2006;" horiz-adv-x="303" />
<glyph unicode="&#x2007;" horiz-adv-x="303" />
<glyph unicode="&#x2008;" horiz-adv-x="227" />
<glyph unicode="&#x2009;" horiz-adv-x="364" />
<glyph unicode="&#x200a;" horiz-adv-x="101" />
<glyph unicode="&#x2010;" horiz-adv-x="806" d="M150 643l26 135h563l-26 -135h-563z" />
<glyph unicode="&#x2011;" horiz-adv-x="806" d="M150 643l26 135h563l-26 -135h-563z" />
<glyph unicode="&#x2012;" horiz-adv-x="806" d="M150 643l26 135h563l-26 -135h-563z" />
<glyph unicode="&#x2013;" horiz-adv-x="854" d="M27 643l28 135h854l-28 -135h-854z" />
<glyph unicode="&#x2014;" horiz-adv-x="1705" d="M27 643l28 135h1706l-28 -135h-1706z" />
<glyph unicode="&#x2018;" horiz-adv-x="356" d="M205 973l71 344l168 127l-104 -471h-135zM334 1413z" />
<glyph unicode="&#x2019;" horiz-adv-x="356" d="M197 942l104 471h135l-71 -344z" />
<glyph unicode="&#x201a;" horiz-adv-x="356" d="M-63 -281l104 471h135l-72 -344z" />
<glyph unicode="&#x201c;" horiz-adv-x="641" d="M207 973l72 344l167 127l-104 -471h-135zM352 1413zM489 973l72 344l168 127l-104 -471h-136z" />
<glyph unicode="&#x201d;" horiz-adv-x="641" d="M199 944l104 471h135l-71 -344zM481 944l105 471h135l-72 -344z" />
<glyph unicode="&#x201e;" horiz-adv-x="636" d="M-61 -281l104 471h135l-72 -344zM217 -281l105 471h135l-72 -344z" />
<glyph unicode="&#x2022;" horiz-adv-x="978" d="M262 631q0 109 72 179q73 71 180 71q108 0 179 -71t71 -179t-71 -179t-179 -71q-107 0 -180 71q-72 71 -72 179z" />
<glyph unicode="&#x2026;" horiz-adv-x="1452" d="M45 0l39 188h182l-41 -188h-180zM526 0l39 188h183l-41 -188h-181zM1008 0l39 188h182l-41 -188h-180z" />
<glyph unicode="&#x202f;" horiz-adv-x="364" />
<glyph unicode="&#x2039;" horiz-adv-x="604" d="M55 541l486 405l-35 -170l-283 -235l183 -236l-37 -170z" />
<glyph unicode="&#x203a;" horiz-adv-x="606" d="M74 135l37 170l280 236l-182 235l37 170l313 -405z" />
<glyph unicode="&#x205f;" horiz-adv-x="455" />
<glyph unicode="&#x20ac;" horiz-adv-x="1134" d="M104 522l25 117h123l31 147h-123l24 115h123l23 107q40 189 159 308q118 118 304 118q160 0 242 -82q83 -83 83 -244h-135q0 190 -203 190q-135 0 -203 -75q-70 -77 -98 -213l-22 -109h424l-47 -115h-402l-31 -147h373l-45 -117h-352l-23 -104q-12 -56 -12 -107 q0 -91 51 -143q51 -53 156 -53q103 0 166 48q64 49 98 142h141q-46 -154 -153 -240q-106 -85 -262 -85q-167 0 -257 81q-92 83 -92 220q0 61 17 141l20 100h-123z" />
<glyph unicode="&#x2122;" horiz-adv-x="1849" d="M272 1305v108h590v-108h-233v-699h-121v699h-236zM1004 606v807h110l240 -541h6l233 541h111v-807h-115v535h-4l-186 -416h-88l-189 416h-4v-535h-114z" />
<glyph unicode="&#x25fc;" horiz-adv-x="1034" d="M0 0v1034h1034v-1034h-1034z" />
</font>
</defs>
</svg>
