<?xml version="1.0" standalone="no"?>
<!DOCTYPE svg PUBLIC "-//W3C//DTD SVG 1.1//EN" "http://www.w3.org/Graphics/SVG/1.1/DTD/svg11.dtd" >
<svg xmlns="http://www.w3.org/2000/svg" xmlns:xlink="http://www.w3.org/1999/xlink" version="1.1">
<metadata></metadata>
<defs>
<font id="d-din_condensedregular" horiz-adv-x="978" >
<font-face units-per-em="2048" ascent="1702" descent="-346" />
<missing-glyph horiz-adv-x="358" />
<glyph unicode="&#xfb01;" horiz-adv-x="997" d="M80 950v109h127v78q0 136 68 205q69 71 200 71h53v-110h-41q-75 0 -108 -35q-33 -34 -33 -113v-96h182v-109h-182v-950h-139v950h-127zM723 0v1059h139v-1059h-139zM723 1227v184h141v-184h-141z" />
<glyph unicode="&#xfb02;" horiz-adv-x="1069" d="M80 950v109h127v78q0 136 68 205q69 71 200 71h53v-110h-41q-75 0 -108 -35q-33 -34 -33 -113v-96h182v-109h-182v-950h-139v950h-127zM711 281v1132h141v-1126q0 -162 145 -162h31v-125h-35q-138 0 -210 72t-72 209z" />
<glyph horiz-adv-x="0" />
<glyph unicode="&#xd;" horiz-adv-x="358" />
<glyph unicode=" "  horiz-adv-x="358" />
<glyph unicode="&#x09;" horiz-adv-x="358" />
<glyph unicode="&#xa0;" horiz-adv-x="358" />
<glyph unicode="!" horiz-adv-x="417" d="M121 1413h176l-31 -1012h-116zM129 0v199h160v-199h-160z" />
<glyph unicode="&#x22;" horiz-adv-x="573" d="M84 938v475h139v-475h-139zM350 938v475h139v-475h-139z" />
<glyph unicode="#" horiz-adv-x="946" d="M41 457v123h156l32 292h-145v123h160l45 418h135l-47 -418h241l46 418h135l-47 -418h153v-123h-166l-32 -292h157v-123h-172l-51 -457h-133l51 457h-242l-51 -457h-133l51 457h-143zM332 580h239l33 292h-239z" />
<glyph unicode="$" horiz-adv-x="761" d="M53 399h142q10 -190 131 -223v477l-23 11q-134 57 -190 135q-56 79 -56 205q0 153 73 243q71 88 196 103v192h108v-194q222 -35 240 -344h-127q-6 178 -113 213v-445q132 -56 193 -142t61 -227q0 -152 -64 -240q-66 -90 -190 -108v-202h-108v200q-261 21 -273 346z M119 1413zM195 1024q0 -81 31 -128t100 -81v408q-64 -15 -98 -66q-33 -49 -33 -133zM434 178q117 34 117 207q0 82 -28 133q-27 49 -89 84v-424z" />
<glyph unicode="%" horiz-adv-x="1415" d="M68 801v370q0 129 53 193q53 63 162 63t162 -63q53 -64 53 -193v-370q0 -131 -53 -196q-52 -64 -162 -64q-111 0 -163 64t-52 196zM209 801q0 -74 16 -103q16 -30 58 -30q41 0 57 30q16 29 16 103v370q0 71 -16 100t-57 29q-42 0 -58 -29t-16 -100v-370zM391 0l508 1413 h129l-508 -1413h-129zM920 244v370q0 129 53 193q53 63 162 63t162 -63q53 -64 53 -193v-370q0 -131 -53 -196q-52 -64 -162 -64q-111 0 -163 64t-52 196zM1061 244q0 -74 16 -103q17 -30 58 -30t57 30q16 29 16 103v370q0 71 -16 100t-57 29q-42 0 -58 -29t-16 -100v-370z " />
<glyph unicode="&#x26;" horiz-adv-x="1062" d="M102 301q0 106 59 213q61 111 191 254l-10 16q-83 140 -117 218q-32 74 -32 149q0 128 77 205q78 78 199 78q123 0 200 -78q76 -77 76 -205q0 -92 -47 -181q-47 -90 -168 -218l193 -328l111 184l110 -71l-145 -240l57 -98q22 -36 38 -48q19 -14 44 -14h23v-139h-68 q-52 0 -80 19t-59 73l-41 68q-62 -93 -139 -136q-75 -42 -171 -42q-139 0 -220 88t-81 233zM252 309q0 -89 44 -139q43 -49 120 -49q59 0 110 36q50 36 111 128l-209 356q-95 -106 -136 -181q-40 -74 -40 -151zM342 1155q0 -43 23 -103q23 -58 90 -171q81 93 113 153 q30 57 30 121q0 72 -34 112t-93 40t-94 -41t-35 -111z" />
<glyph unicode="'" horiz-adv-x="307" d="M84 938v475h139v-475h-139z" />
<glyph unicode="(" horiz-adv-x="530" d="M102 672q0 215 53 432q54 220 152 412h121q-91 -204 -137 -418q-47 -217 -47 -426t47 -427q46 -214 137 -417h-121q-98 193 -152 414q-53 217 -53 430z" />
<glyph unicode=")" horiz-adv-x="530" d="M102 -172q93 207 138 417q47 218 47 427t-47 426q-45 210 -138 418h121q100 -196 153 -412q52 -212 52 -432q0 -218 -52 -430q-53 -217 -153 -414h-121z" />
<glyph unicode="*" horiz-adv-x="712" d="M102 1038l160 92l-160 93l48 82l155 -91v199h103v-201l155 91l45 -80l-159 -93l161 -92l-47 -80l-155 91v-211h-103v211l-155 -91z" />
<glyph unicode="+" horiz-adv-x="860" d="M82 498v135h283v280h133v-280h282v-135h-282v-281h-133v281h-283z" />
<glyph unicode="," horiz-adv-x="307" d="M84 190h139v-358l-139 -121v479z" />
<glyph unicode="-" horiz-adv-x="768" d="M102 645v133h564v-133h-564z" />
<glyph unicode="." horiz-adv-x="327" d="M84 0v182h160v-182h-160z" />
<glyph unicode="/" horiz-adv-x="606" d="M102 -20l269 1433h133l-268 -1433h-134z" />
<glyph unicode="0" horiz-adv-x="825" d="M106 356v703q0 373 308 373q305 0 305 -373v-703q0 -374 -305 -374q-308 0 -308 374zM256 379q0 -144 35 -205q34 -59 123 -59q88 0 122 59q33 57 33 205v655q0 148 -33 205q-34 59 -122 59q-89 0 -123 -59q-35 -61 -35 -205v-655z" />
<glyph unicode="1" horiz-adv-x="561" d="M80 1075v174l209 164h137v-1413h-137v1239z" />
<glyph unicode="2" horiz-adv-x="802" d="M96 0v119l391 694q36 63 53 116q17 54 17 126v57q0 91 -40 138q-40 48 -122 48q-69 0 -110 -48q-41 -49 -41 -136v-82h-148v96q0 140 82 222t223 82q142 0 224 -82t82 -220v-75q0 -87 -23 -158t-72 -154l-344 -610h432v-133h-604z" />
<glyph unicode="3" horiz-adv-x="829" d="M96 279v90h148v-78q0 -84 43 -130t121 -46q81 0 123 49t42 139v158q0 101 -41 154t-133 53h-59v133h59q90 0 129 50q39 49 39 148v111q0 92 -42 140t-119 48t-117 -46q-41 -47 -41 -130v-82h-148v84q0 145 80 227q80 81 230 81q146 0 226 -80q79 -79 79 -226v-120 q0 -103 -34 -165t-114 -100q88 -40 122 -106q34 -65 34 -176v-150q0 -157 -82 -242t-235 -85q-152 0 -230 77q-80 78 -80 220z" />
<glyph unicode="4" horiz-adv-x="851" d="M74 285v133l297 995h149l-301 -995h285v370h149v-370h125v-133h-125v-285h-149v285h-430z" />
<glyph unicode="5" horiz-adv-x="815" d="M106 299v37h142v-35q0 -186 155 -186q81 0 118 49q38 50 38 153v254q0 105 -37 154t-116 49q-104 0 -156 -100h-127v739h573v-139h-434v-434q29 31 73 49q43 18 99 18q275 0 275 -334v-249q0 -342 -303 -342q-147 0 -223 80q-77 82 -77 237z" />
<glyph unicode="6" horiz-adv-x="808" d="M96 309v205q0 86 15 146q17 70 51 149l254 604h149l-248 -598q19 14 48 21q32 8 65 8q131 0 207 -82t76 -225v-232q0 -149 -84 -236t-223 -87q-145 0 -227 88q-83 89 -83 239zM246 305q0 -91 41 -141q40 -49 119 -49q76 0 116 49q41 50 41 139v221q0 90 -41 140 q-40 49 -116 49t-118 -47q-42 -46 -42 -134v-227z" />
<glyph unicode="7" horiz-adv-x="739" d="M63 1280v133h613v-133l-381 -1280h-150l383 1280h-465z" />
<glyph unicode="8" horiz-adv-x="825" d="M106 313v156q0 195 142 272q-63 34 -98 102q-35 67 -35 150v131q0 140 81 224t216 84q137 0 218 -84t81 -224v-131q0 -85 -35 -152t-98 -100q141 -77 141 -272v-156q0 -155 -81 -243t-226 -88q-144 0 -225 88t-81 243zM244 317q0 -97 41 -153q40 -55 127 -55 q170 0 170 208v154q0 207 -170 207q-87 0 -127 -55q-41 -56 -41 -152v-154zM252 993q0 -90 41 -140t119 -50q82 0 122 51q39 49 39 139v131q0 85 -43 132q-44 49 -118 49q-76 0 -118 -50q-42 -49 -42 -131v-131z" />
<glyph unicode="9" horiz-adv-x="808" d="M96 877v231q0 152 84 238t226 86t225 -89q82 -88 82 -239v-205q0 -86 -15 -146q-17 -70 -51 -149l-254 -604h-149l250 598q-17 -12 -49 -20q-38 -9 -66 -9q-131 0 -207 82t-76 226zM246 889q0 -89 41 -139t119 -50q74 0 116 48q41 47 41 133v227q0 91 -41 141 q-40 49 -116 49q-79 0 -119 -49q-41 -50 -41 -139v-221z" />
<glyph unicode=":" horiz-adv-x="327" d="M84 0v182h160v-182h-160zM84 692v182h160v-182h-160z" />
<glyph unicode=";" horiz-adv-x="327" d="M84 692v182h160v-182h-160zM100 190h140v-358l-140 -121v479z" />
<glyph unicode="&#x3c;" horiz-adv-x="860" d="M82 500v131l698 284v-137l-528 -213l528 -213v-137z" />
<glyph unicode="=" horiz-adv-x="860" d="M82 305v135h698v-135h-698zM82 688v133h698v-133h-698z" />
<glyph unicode="&#x3e;" horiz-adv-x="860" d="M82 215v137l528 213l-528 213v137l698 -284v-131z" />
<glyph unicode="?" horiz-adv-x="743" d="M61 1049q0 385 304 385q147 0 225 -88t78 -242q0 -72 -22 -135q-19 -54 -79 -160l-75 -127q-33 -56 -42 -92q-10 -42 -10 -96v-129h-149v139q0 68 13 113q14 47 58 124l87 144q40 67 54 110q15 45 15 109q0 196 -151 196q-88 0 -122 -59t-34 -192h-150zM285 0v199h159 v-199h-159z" />
<glyph unicode="@" horiz-adv-x="1503" d="M102 426v315q0 203 80 357q80 153 227 236q148 83 341 83q192 0 341 -83q148 -82 229 -232t81 -342v-318q0 -162 -69 -244q-69 -83 -193 -83q-77 0 -135 35q-57 34 -84 98q-28 -67 -79 -101q-48 -32 -132 -32q-122 0 -177 79t-55 226v301q0 145 53 222q54 77 175 77 q119 0 176 -94v78h139v-623q0 -70 34 -107q33 -36 87 -36q67 0 97 48t30 142v330q0 245 -139 390q-138 144 -379 144q-245 0 -378 -145q-134 -146 -134 -406v-313q0 -265 134 -416q133 -149 378 -149q110 0 194 24t164 80l66 -102q-95 -65 -199 -96q-105 -31 -225 -31 q-200 0 -346 85t-224 239t-78 364zM618 422q0 -88 30 -134t100 -46q73 0 103 48t30 134v293q0 84 -31 131q-30 45 -102 45t-101 -45q-29 -46 -29 -129v-297z" />
<glyph unicode="A" horiz-adv-x="944" d="M18 0l385 1413h138l385 -1413h-158l-90 360h-414l-90 -360h-156zM297 489h348l-174 699z" />
<glyph unicode="B" horiz-adv-x="962" d="M123 0v1413h360q189 0 274 -91t85 -278q0 -242 -187 -311q201 -55 201 -344q0 -191 -89 -291q-88 -98 -282 -98h-362zM272 133h201q123 0 178 66q56 67 56 200q0 267 -234 267h-201v-533zM272 799h199q221 0 221 237q0 132 -52 188t-167 56h-201v-481z" />
<glyph unicode="C" d="M106 412v589q0 214 106 323q105 108 280 108q166 0 274 -103q106 -102 106 -309v-19h-149v15q0 146 -63 213t-166 67q-120 0 -179 -74t-59 -235v-577q0 -291 238 -291q107 0 168 67t61 207v19h145v-21q0 -205 -104 -306t-270 -101q-175 0 -281 107q-107 109 -107 321z " />
<glyph unicode="D" horiz-adv-x="976" d="M123 0v1413h366q172 0 277 -106q104 -105 104 -322v-557q0 -213 -104 -320q-105 -108 -277 -108h-366zM272 133h217q111 0 171 74q61 75 61 219v545q0 157 -59 232q-60 77 -173 77h-217v-1147z" />
<glyph unicode="E" horiz-adv-x="825" d="M123 0v1413h629v-133h-482v-494h414v-135h-414v-518h482v-133h-629z" />
<glyph unicode="F" horiz-adv-x="813" d="M123 0v1413h629v-133h-480v-500h414v-135h-414v-645h-149z" />
<glyph unicode="G" d="M106 412v589q0 214 106 323q105 108 280 108q170 0 275 -102t105 -290v-24h-149v24q0 124 -63 190t-168 66q-236 0 -236 -309v-577q0 -291 236 -291q112 0 172 70q59 69 59 214v197h-234v125h383v-315q0 -215 -104 -320q-105 -106 -276 -106q-176 0 -280 107 q-106 109 -106 321z" />
<glyph unicode="H" d="M123 0v1413h149v-627h435v627h149v-1413h-149v653h-435v-653h-149z" />
<glyph unicode="I" horiz-adv-x="417" d="M135 0v1413h148v-1413h-148z" />
<glyph unicode="J" horiz-adv-x="538" d="M49 0v133h60q71 0 108 42q37 41 37 122v1116h149v-1132q0 -137 -72 -209t-210 -72h-72z" />
<glyph unicode="K" horiz-adv-x="944" d="M123 0v1413h149v-786l453 786h158l-340 -575l389 -838h-164l-315 686l-181 -307v-379h-149z" />
<glyph unicode="L" horiz-adv-x="800" d="M123 0v1413h149v-1280h480v-133h-629z" />
<glyph unicode="M" horiz-adv-x="1224" d="M123 0v1413h149l342 -872l338 872h150v-1413h-150v1085l-290 -757h-99l-291 751v-1079h-149z" />
<glyph unicode="N" horiz-adv-x="1028" d="M123 0v1413h149l484 -1087v1087h149v-1413h-149l-484 1085v-1085h-149z" />
<glyph unicode="O" d="M106 412v589q0 217 105 324t278 107q174 0 279 -107q104 -105 104 -324v-589q0 -213 -105 -321q-104 -107 -278 -107t-278 107q-105 108 -105 321zM256 410q0 -291 236 -291q111 0 171 72t60 219v577q0 158 -59 233q-60 76 -172 76q-121 0 -178 -75q-58 -76 -58 -234 v-577z" />
<glyph unicode="P" horiz-adv-x="901" d="M123 0v1413h366q189 0 276 -103q87 -104 87 -309q0 -403 -363 -403h-217v-598h-149zM272 731h209q114 0 169 64t55 206q0 146 -55 213q-54 66 -169 66h-209v-549z" />
<glyph unicode="Q" d="M106 412v589q0 217 105 324t278 107q174 0 279 -107q104 -105 104 -324v-589q0 -141 -47 -237q-47 -95 -133 -142l115 -277l-123 -49l-117 283q-37 -6 -78 -6q-174 0 -278 107q-105 108 -105 321zM256 410q0 -291 236 -291q111 0 171 72t60 219v577q0 158 -59 233 q-60 76 -172 76q-121 0 -178 -75q-58 -76 -58 -234v-577z" />
<glyph unicode="R" horiz-adv-x="954" d="M123 0v1413h373q186 0 271 -98t85 -301q0 -304 -209 -373l250 -641h-160l-233 618h-228v-618h-149zM272 750h222q108 0 158 66q50 67 50 198q0 133 -48 199q-49 67 -160 67h-222v-530z" />
<glyph unicode="S" horiz-adv-x="872" d="M53 387h146q6 -144 64 -206t167 -62q112 0 165 62q54 63 54 192q0 113 -48 170t-173 108l-82 33q-140 56 -209 141t-69 232q0 173 97 274q98 103 267 103q160 0 256 -96t103 -285h-142q-15 247 -219 247q-108 0 -160 -61q-53 -62 -53 -174q0 -101 48 -158t165 -102 l84 -33q142 -56 213 -145q72 -90 72 -252q0 -185 -97 -288q-95 -101 -278 -101q-180 0 -273 102q-94 103 -98 299z" />
<glyph unicode="T" horiz-adv-x="753" d="M12 1280v133h729v-133h-290v-1280h-148v1280h-291z" />
<glyph unicode="U" horiz-adv-x="983" d="M123 360v1053h149v-1044q0 -121 59 -186q58 -64 161 -64q102 0 160 65q59 67 59 185v1044h149v-1053q0 -170 -102 -273t-266 -103q-106 0 -191 47q-84 46 -131 133q-47 86 -47 196z" />
<glyph unicode="V" horiz-adv-x="866" d="M18 1413h160l256 -1180l254 1180h160l-342 -1413h-144z" />
<glyph unicode="W" horiz-adv-x="1341" d="M18 1413h156l205 -1188l199 1188h196l201 -1188l201 1188h147l-274 -1413h-160l-217 1192l-215 -1192h-160z" />
<glyph unicode="X" horiz-adv-x="851" d="M18 0l322 733l-295 680h168l215 -530l211 530h168l-297 -678l324 -735h-170l-238 586l-240 -586h-168z" />
<glyph unicode="Y" horiz-adv-x="802" d="M18 1413h164l219 -647l220 647h163l-309 -825v-588h-147v588z" />
<glyph unicode="Z" horiz-adv-x="788" d="M61 0v133l510 1147h-487v133h635v-133l-512 -1147h526v-133h-672z" />
<glyph unicode="[" horiz-adv-x="518" d="M123 -172v1688h293v-134h-152v-1421h152v-133h-293z" />
<glyph unicode="\" horiz-adv-x="606" d="M102 1413h134l268 -1433h-133z" />
<glyph unicode="]" horiz-adv-x="516" d="M102 -39h150v1421h-150v134h291v-1688h-291v133z" />
<glyph unicode="^" horiz-adv-x="860" d="M74 573l288 840h134l290 -840h-135l-221 656l-223 -656h-133z" />
<glyph unicode="_" horiz-adv-x="851" d="M0 -111h852v-102h-852v102z" />
<glyph unicode="`" horiz-adv-x="1026" d="M328 1444h151l187 -264h-115z" />
<glyph unicode="a" horiz-adv-x="821" d="M82 299q0 143 81 224t234 81h164v170q0 178 -164 178q-75 0 -116 -41t-41 -114v-17h-131v19q0 130 78 202q80 74 210 74q148 0 226 -81q77 -80 77 -226v-768h-133v98q-72 -114 -215 -114q-131 0 -200 83q-70 84 -70 232zM221 301q0 -197 164 -197q83 0 130 53 q46 52 46 146v197h-149q-191 0 -191 -199z" />
<glyph unicode="b" horiz-adv-x="843" d="M121 0v1413h139v-457q69 119 201 119q127 0 204 -89q76 -88 76 -271v-371q0 -183 -76 -271q-77 -89 -202 -89q-134 0 -203 112v-96h-139zM260 358q0 -123 45 -186t131 -63q82 0 124 58q42 59 42 193v338q0 252 -166 252q-86 0 -131 -64q-45 -65 -45 -190v-338z" />
<glyph unicode="c" horiz-adv-x="837" d="M102 344v371q0 186 84 273t236 87q148 0 231 -84q82 -83 82 -254v-28h-139v28q0 213 -172 213q-90 0 -136 -57q-46 -56 -46 -195v-338q0 -138 46 -194q46 -57 134 -57q174 0 174 213v28h139v-26q0 -170 -82 -255t-229 -85q-154 0 -238 87t-84 273z" />
<glyph unicode="d" horiz-adv-x="843" d="M102 344v371q0 182 77 271t202 89q134 0 203 -119v457h139v-1413h-139v96q-69 -112 -203 -112q-125 0 -202 89t-77 271zM242 360q0 -134 42 -193q42 -58 124 -58q86 0 131 63t45 186v338q0 254 -176 254q-166 0 -166 -252v-338z" />
<glyph unicode="e" horiz-adv-x="835" d="M102 360v342q0 184 83 279q82 94 231 94q147 0 232 -94t85 -279v-215h-491v-125q0 -138 48 -198t136 -60q168 0 168 211v9h137v-7q0 -165 -81 -249t-228 -84q-320 0 -320 376zM242 594h354v108q0 135 -46 191q-46 57 -132 57t-131 -58t-45 -194v-104z" />
<glyph unicode="f" horiz-adv-x="589" d="M80 950v109h127v78q0 136 68 205q69 71 200 71h53v-110h-41q-75 0 -108 -35q-33 -34 -33 -113v-96h182v-109h-182v-950h-139v950h-127z" />
<glyph unicode="g" horiz-adv-x="843" d="M102 424v293q0 180 77 269t202 89q135 0 203 -119v103h139v-1026q0 -166 -77 -266q-76 -99 -234 -99q-140 0 -216 72t-81 197h133q5 -68 47 -108q43 -40 117 -40q91 0 131 57q41 58 41 174v156q-67 -110 -203 -110q-125 0 -202 89t-77 269zM242 440q0 -135 42 -192 q43 -58 124 -58q85 0 131 64q45 63 45 186v258q0 252 -176 252q-78 0 -122 -57q-44 -58 -44 -193v-260z" />
<glyph unicode="h" horiz-adv-x="851" d="M121 0v1413h139v-446q33 52 87 80q53 28 118 28q128 0 197 -81t69 -228v-766h-139v760q0 92 -45 141t-121 49q-74 0 -120 -49t-46 -141v-760h-139z" />
<glyph unicode="i" horiz-adv-x="407" d="M133 0v1059h139v-1059h-139zM133 1227v184h141v-184h-141z" />
<glyph unicode="j" horiz-adv-x="399" d="M-51 -186h31q145 0 145 161v1084h141v-1090q0 -137 -72 -209q-71 -71 -210 -71h-35v125zM125 1227v184h141v-184h-141z" />
<glyph unicode="k" horiz-adv-x="837" d="M121 0v1413h139v-905l354 551h154l-279 -408l318 -651h-160l-244 524l-143 -211v-313h-139z" />
<glyph unicode="l" horiz-adv-x="479" d="M121 281v1132h141v-1126q0 -162 146 -162h30v-125h-35q-137 0 -209 72q-73 73 -73 209z" />
<glyph unicode="m" horiz-adv-x="1323" d="M121 0v1059h137v-96q30 50 85 81q56 31 122 31q75 0 135 -36t94 -97q39 63 100 98t134 35q136 0 205 -81t69 -228v-766h-141v760q0 91 -44 141q-43 49 -118 49t-122 -50q-46 -49 -46 -138v-762h-139v760q0 90 -45 140t-121 50q-74 0 -119 -50t-45 -140v-760h-141z" />
<glyph unicode="n" horiz-adv-x="851" d="M121 0v1059h135v-96q30 51 86 81q57 31 123 31q128 0 197 -82q69 -83 69 -227v-766h-139v760q0 92 -45 141t-121 49q-73 0 -120 -50q-46 -49 -46 -140v-760h-139z" />
<glyph unicode="o" horiz-adv-x="837" d="M102 344v371q0 186 84 273t236 87q148 0 230 -88q83 -89 83 -272v-371q0 -183 -83 -272q-82 -88 -230 -88q-152 0 -236 87t-84 273zM242 360q0 -138 46 -194q46 -57 132 -57t131 58t45 193v338q0 136 -45 194t-131 58t-132 -57q-46 -56 -46 -195v-338z" />
<glyph unicode="p" horiz-adv-x="843" d="M121 -311v1370h139v-103q69 119 201 119q127 0 204 -89q76 -88 76 -271v-371q0 -183 -76 -271q-77 -89 -202 -89q-135 0 -203 110v-405h-139zM260 358q0 -123 45 -186t131 -63q82 0 124 58q42 59 42 193v338q0 252 -166 252q-86 0 -131 -64q-45 -65 -45 -190v-338z" />
<glyph unicode="q" horiz-adv-x="843" d="M102 344v371q0 182 77 271t204 89q132 0 201 -119v103h139v-1370h-139v405q-68 -110 -203 -110q-125 0 -202 89t-77 271zM242 360q0 -134 42 -193q42 -58 124 -58q86 0 131 63t45 186v338q0 254 -176 254q-166 0 -166 -252v-338z" />
<glyph unicode="r" horiz-adv-x="593" d="M121 0v1059h135v-105q35 62 92 92q55 29 129 29q41 0 76 -8v-135q-55 18 -102 18q-85 0 -138 -53t-53 -145v-752h-139z" />
<glyph unicode="s" horiz-adv-x="782" d="M82 285v12h129v-12q0 -86 49 -132q50 -47 135 -47q80 0 128 42t48 128q0 69 -32 107q-33 39 -111 72l-133 55q-203 84 -203 276q0 130 83 210q82 79 222 79q138 0 220 -80q81 -80 81 -215v-26h-129v12q0 90 -45 139t-129 49q-77 0 -120 -42q-44 -42 -44 -115 q0 -56 29 -97q29 -42 100 -71l134 -56q108 -45 162 -108q55 -64 55 -178q0 -145 -85 -224t-235 -79q-143 0 -226 81t-83 220z" />
<glyph unicode="t" horiz-adv-x="604" d="M55 950v109h135v221l140 63v-284h202v-109h-202v-665q0 -81 39 -122q39 -40 118 -40h29v-123h-35q-291 0 -291 279v671h-135z" />
<glyph unicode="u" horiz-adv-x="851" d="M121 326v733h139v-639q0 -169 34 -240t134 -71q68 0 102 30q35 31 49 97q13 64 13 184v639h139v-733q0 -172 -75 -257t-230 -85t-230 85q-75 86 -75 257z" />
<glyph unicode="v" horiz-adv-x="759" d="M31 1059h151l199 -838l197 838h151l-280 -1059h-140z" />
<glyph unicode="w" horiz-adv-x="1181" d="M31 1059h151l160 -834l186 834h119l191 -834l159 834h154l-244 -1059h-133l-186 801l-182 -801h-136z" />
<glyph unicode="x" horiz-adv-x="714" d="M31 0l252 551l-234 508h150l161 -350l154 350h150l-236 -500l256 -559h-149l-181 393l-176 -393h-147z" />
<glyph unicode="y" horiz-adv-x="759" d="M31 1059h151l201 -809l195 809h151l-309 -1159q-30 -118 -105 -167q-74 -48 -202 -48h-21v125h35q79 0 123 30q42 29 59 103l8 32z" />
<glyph unicode="z" horiz-adv-x="770" d="M102 0v127l416 805h-416v127h566v-127l-416 -805h416v-127h-566z" />
<glyph unicode="{" horiz-adv-x="628" d="M102 612v129q76 1 106 38q30 36 30 122v383q0 117 51 174q52 58 157 58h80v-134h-51q-90 0 -90 -100v-348q0 -121 -24 -175t-93 -81q68 -30 93 -84q24 -52 24 -174v-359q0 -100 90 -100h51v-133h-80q-106 0 -157 57t-51 174v398q0 81 -30 117q-30 37 -106 38z" />
<glyph unicode="|" horiz-adv-x="544" d="M205 -170v1686h135v-1686h-135z" />
<glyph unicode="}" horiz-adv-x="628" d="M102 -39h50q90 0 90 100v359q0 124 23 174q25 55 95 84q-71 27 -95 81q-23 52 -23 175v348q0 100 -90 100h-50v134h80q106 0 158 -58q51 -57 51 -174v-383q0 -86 30 -122q30 -37 105 -38v-129q-75 -1 -105 -38q-30 -36 -30 -117v-398q0 -117 -51 -174t-158 -57h-80v133z " />
<glyph unicode="~" horiz-adv-x="860" d="M61 504q44 92 103 139q57 45 129 45q43 0 78 -15q33 -14 82 -46q44 -27 61 -35q21 -10 45 -10q40 0 66 22q24 20 63 90l111 -67q-46 -98 -102 -141q-58 -44 -130 -44q-41 0 -79 16q-31 13 -80 44q-68 45 -107 45q-36 0 -64 -23q-28 -24 -65 -88z" />
<glyph unicode="&#xa1;" horiz-adv-x="417" d="M125 -311l35 977h116l37 -977h-188zM137 860v199h160v-199h-160z" />
<glyph unicode="&#xa2;" horiz-adv-x="837" d="M102 344v371q0 169 71 258q70 88 200 100v180h108v-182q122 -17 188 -99q66 -83 66 -235v-28h-139v28q0 176 -115 205v-825q115 33 115 205v28h139v-26q0 -152 -66 -236q-66 -83 -188 -100v-193h-108v191q-271 30 -271 358zM242 360q0 -117 33 -174q33 -58 98 -73v833 q-64 -15 -98 -74q-33 -57 -33 -174v-338z" />
<glyph unicode="&#xa3;" horiz-adv-x="784" d="M53 621v133h125v358q0 152 69 237t202 85q130 0 198 -83t68 -235h-144q0 99 -29 141q-30 43 -89 43q-123 0 -123 -155v-391h239v-133h-239v-287q0 -65 -19 -116q-18 -48 -59 -83h479v-135h-643v139q51 24 71 72q19 45 19 125v285h-125z" />
<glyph unicode="&#xa4;" horiz-adv-x="1196" d="M121 299l139 137q-70 102 -70 234q0 135 72 231l-139 141l102 103l137 -139q104 71 236 71q129 0 233 -71l140 139l102 -103l-139 -139q72 -105 72 -233q0 -132 -70 -234l139 -139l-102 -104l-139 139q-108 -72 -236 -72q-130 0 -236 72l-139 -137zM336 670 q0 -116 74 -193q73 -76 188 -76q112 0 187 77q75 76 75 192q0 114 -75 190t-187 76q-115 0 -188 -76q-74 -77 -74 -190z" />
<glyph unicode="&#xa5;" horiz-adv-x="796" d="M16 1413h170l215 -645l213 645h166l-276 -731h217v-123h-248v-137h248v-121h-248v-301h-149v301h-248v121h248v137h-248v123h217z" />
<glyph unicode="&#xa6;" horiz-adv-x="544" d="M205 -170v725h135v-725h-135zM205 795v721h135v-721h-135z" />
<glyph unicode="&#xa7;" horiz-adv-x="876" d="M123 563q0 261 180 324q-81 34 -113 101t-32 173q0 145 71 223q72 80 213 80q150 0 214 -85q65 -86 65 -244h-141q0 99 -29 148q-29 48 -107 48q-76 0 -106 -43q-31 -45 -31 -127q0 -97 45 -144t166 -81q130 -34 183 -124q53 -89 53 -249q0 -257 -176 -317 q82 -33 117 -106q34 -69 34 -177q0 -147 -75 -227t-220 -80q-153 0 -219 82q-65 81 -65 250h141q0 -107 32 -154t113 -47q75 0 110 44q34 43 34 128q0 70 -19 114q-18 42 -64 69q-53 31 -135 53q-131 38 -185 126q-54 89 -54 242zM186 1413zM270 563q0 -117 39 -177t131 -60 q88 0 127 60t39 177q0 120 -38 181t-128 61q-92 0 -131 -62q-39 -61 -39 -180z" />
<glyph unicode="&#xa8;" horiz-adv-x="1026" d="M281 1186v176h153v-176h-153zM592 1186v176h153v-176h-153z" />
<glyph unicode="&#xa9;" horiz-adv-x="1527" d="M106 696q0 220 79 381q79 162 228 249t351 87q208 0 354 -88q147 -89 225 -250q78 -162 78 -379q0 -219 -78 -381q-78 -161 -226 -248q-149 -87 -353 -87q-205 0 -353 88q-150 90 -227 249q-78 162 -78 379zM219 696q0 -292 141 -454t404 -162q264 0 405 163 q142 165 142 453q0 292 -142 455q-141 162 -405 162t-405 -163q-140 -162 -140 -454zM528 567v267q0 268 240 268q112 0 174 -63q62 -64 62 -189v-23h-109v21q0 158 -125 158q-64 0 -99 -42q-34 -41 -34 -143v-241q0 -101 34 -144t99 -43q125 0 125 158v22h109v-22 q0 -128 -63 -191t-173 -63q-240 0 -240 270z" />
<glyph unicode="&#xaa;" horiz-adv-x="602" d="M74 1069q0 88 56 137t157 49h86v78q0 84 -80 84q-37 0 -57 -19q-21 -20 -21 -55v-10h-123v6q0 94 55 143q56 50 148 50q101 0 156 -55t55 -154v-442h-127v57q-27 -35 -55 -51q-29 -17 -74 -17q-86 0 -131 53t-45 146zM207 1073q0 -86 78 -86q40 0 64 26q24 25 24 70v78 h-68q-51 0 -74 -20q-24 -21 -24 -68zM281 1735z" />
<glyph unicode="&#xab;" horiz-adv-x="864" d="M41 541l367 374v-155l-213 -219l213 -219v-156zM379 541l364 374v-155l-211 -219l211 -219v-156z" />
<glyph unicode="&#xac;" horiz-adv-x="860" d="M86 541v125h690v-349h-139v224h-551z" />
<glyph unicode="&#xad;" horiz-adv-x="768" d="M102 645v133h564v-133h-564z" />
<glyph unicode="&#xae;" horiz-adv-x="966" d="M123 1022q0 180 98 284q99 105 262 105q169 0 265 -105t96 -284q0 -180 -98 -287q-97 -106 -263 -106t-263 106t-97 287zM195 1022q0 -158 75 -242q77 -86 213 -86q137 0 213 88t76 240t-77 238t-212 86q-136 0 -213 -88q-75 -85 -75 -236zM367 807v434h127 q127 0 127 -127q0 -80 -60 -113l72 -194h-80l-64 178h-49v-178h-73zM440 1053h47q34 0 47 14t13 49q0 33 -13 46q-14 14 -47 14h-47v-123z" />
<glyph unicode="&#xaf;" horiz-adv-x="1026" d="M276 1210v125h474v-125h-474z" />
<glyph unicode="&#xb0;" horiz-adv-x="720" d="M106 1180q0 108 73 181t181 73q109 0 182 -73q72 -72 72 -181t-72 -181q-71 -71 -182 -71q-110 0 -181 71q-73 73 -73 181zM215 1180q0 -65 41 -108q41 -42 104 -42q64 0 105 42q41 43 41 108q0 64 -41 108q-40 43 -105 43q-64 0 -104 -43q-41 -44 -41 -108z" />
<glyph unicode="&#xb1;" horiz-adv-x="860" d="M82 49v135h698v-135h-698zM82 580v135h283v280h133v-280h282v-135h-282v-281h-133v281h-283z" />
<glyph unicode="&#xb2;" horiz-adv-x="555" d="M66 881v123l235 364q25 40 35 68q10 27 10 65v41q0 41 -17 62q-18 22 -53 22q-69 0 -69 -94v-45h-137v61q0 92 57 148q56 55 154 55q94 0 150 -56t56 -149v-49q0 -54 -16 -96q-17 -43 -51 -96l-191 -297h258v-127h-421z" />
<glyph unicode="&#xb3;" horiz-adv-x="548" d="M61 1071v51h136v-47q0 -39 18 -60q19 -22 53 -22q74 0 74 94v74q0 52 -19 75q-19 24 -63 24h-37v124h37q78 0 78 91v61q0 90 -70 90q-34 0 -52 -21q-17 -20 -17 -61v-47h-138v53q0 93 57 147t152 54q99 0 154 -55t55 -154v-49q0 -61 -21 -101q-20 -40 -69 -63 q53 -23 74 -64q20 -40 20 -112v-72q0 -98 -58 -155q-60 -58 -155 -58q-99 0 -154 55t-55 148z" />
<glyph unicode="&#xb4;" horiz-adv-x="1026" d="M360 1180l187 264h151l-223 -264h-115z" />
<glyph unicode="&#xb5;" horiz-adv-x="845" d="M121 -315v1374h137v-764q0 -92 45 -140q46 -49 119 -49q70 0 118 51q46 49 46 138v764h139v-1059h-133v96q-30 -55 -82 -84q-50 -28 -113 -28q-86 0 -137 53v-352h-139z" />
<glyph unicode="&#xb6;" horiz-adv-x="1064" d="M123 983q0 119 49 217q50 99 141 156t215 57h353v-1724h-136v1591h-147v-1591h-135v862q-155 15 -247 135q-93 122 -93 297z" />
<glyph unicode="&#xb7;" horiz-adv-x="327" d="M84 463v182h160v-182h-160z" />
<glyph unicode="&#xb8;" horiz-adv-x="1026" d="M377 -311l141 336h133l-119 -336h-155z" />
<glyph unicode="&#xb9;" horiz-adv-x="407" d="M43 1475v161l127 101h145v-856h-145v696z" />
<glyph unicode="&#xba;" horiz-adv-x="604" d="M84 1116v172q0 131 56 187q57 57 163 57q107 0 162 -57q55 -56 55 -187v-172q0 -129 -55 -187q-56 -59 -162 -59q-219 0 -219 246zM217 1114q0 -123 86 -123q84 0 84 123v176q0 123 -84 123q-86 0 -86 -123v-176zM289 1735z" />
<glyph unicode="&#xbb;" horiz-adv-x="864" d="M121 166v156l213 219l-213 219v155l366 -374zM459 166v156l213 219l-213 219v155l364 -374z" />
<glyph unicode="&#xbc;" horiz-adv-x="1300" d="M43 1151v162l127 100h145v-856h-145v696zM276 0l508 1413h129l-507 -1413h-130zM768 152v127l188 577h144l-189 -577h131v196h144v-196h63v-127h-63v-152h-144v152h-274z" />
<glyph unicode="&#xbd;" horiz-adv-x="1318" d="M43 1151v162l127 100h145v-856h-145v696zM276 0l508 1413h129l-507 -1413h-130zM829 0v123l236 364q25 40 35 68q10 27 10 66v41q0 40 -17 61q-18 22 -53 22q-69 0 -69 -94v-45h-137v62q0 92 57 147q56 55 153 55q95 0 151 -56t56 -148v-50q0 -54 -16 -96 q-17 -44 -51 -96l-191 -297h258v-127h-422z" />
<glyph unicode="&#xbe;" horiz-adv-x="1355" d="M61 748v51h136v-47q0 -40 18 -61t53 -21q74 0 74 94v74q0 51 -19 74q-19 24 -63 24h-37v125h37q78 0 78 90v61q0 91 -70 91q-33 0 -52 -22q-17 -20 -17 -60v-47h-138v53q0 92 57 146t152 54q99 0 154 -55t55 -153v-50q0 -61 -21 -101q-20 -38 -69 -62q53 -23 74 -65 q20 -40 20 -112v-71q0 -99 -58 -156q-59 -57 -155 -57q-100 0 -154 54q-55 55 -55 149zM381 0l508 1413h129l-508 -1413h-129zM823 152v127l189 577h143l-188 -577h131v196h143v-196h64v-127h-64v-152h-143v152h-275z" />
<glyph unicode="&#xbf;" horiz-adv-x="743" d="M76 -2q0 78 21 139t81 162l70 117q35 61 45 96q10 36 10 96v72h150v-80q0 -70 -14 -118q-14 -50 -62 -126l-82 -135q-39 -62 -54 -110q-16 -50 -16 -113q0 -201 152 -201q87 0 122 60q33 57 33 192h150q-4 -385 -303 -385q-147 0 -225 89t-78 245zM297 860v199h160v-199 h-160z" />
<glyph unicode="&#xc0;" horiz-adv-x="944" d="M18 0l385 1413h138l385 -1413h-158l-90 360h-414l-90 -360h-156zM246 1798h151l187 -264h-115zM297 489h348l-174 699z" />
<glyph unicode="&#xc1;" horiz-adv-x="944" d="M18 0l385 1413h138l385 -1413h-158l-90 360h-414l-90 -360h-156zM297 489h348l-174 699zM342 1534l186 264h152l-223 -264h-115z" />
<glyph unicode="&#xc2;" horiz-adv-x="944" d="M18 0l385 1413h138l385 -1413h-158l-90 360h-414l-90 -360h-156zM207 1518l199 292h131l204 -292h-137l-129 184l-131 -184h-137zM297 489h348l-174 699z" />
<glyph unicode="&#xc3;" horiz-adv-x="944" d="M18 0l385 1413h138l385 -1413h-158l-90 360h-414l-90 -360h-156zM252 1520v147q39 41 63 54q29 16 64 16q29 0 52 -10t50 -27q32 -20 50 -28q21 -9 49 -9q31 0 52 15q19 13 60 61v-144q-34 -40 -59 -54q-27 -15 -66 -15q-33 0 -56 10q-14 6 -56 29q-29 17 -45 24 q-18 8 -37 8q-34 0 -59 -16q-24 -16 -62 -61zM297 489h348l-174 699z" />
<glyph unicode="&#xc4;" horiz-adv-x="944" d="M18 0l385 1413h138l385 -1413h-158l-90 360h-414l-90 -360h-156zM240 1540v176h153v-176h-153zM297 489h348l-174 699zM551 1540v176h154v-176h-154z" />
<glyph unicode="&#xc5;" horiz-adv-x="944" d="M18 0l385 1413q-51 21 -81 66q-31 47 -31 104q0 77 51 130q51 52 129 52q80 0 132 -52t52 -130q0 -59 -30 -104q-29 -44 -84 -66l385 -1413h-158l-90 360h-414l-90 -360h-156zM297 489h348l-174 699zM373 1583q0 -45 27 -74q27 -28 71 -28q46 0 73 28q27 29 27 74t-27 75 t-73 30q-44 0 -71 -30t-27 -75z" />
<glyph unicode="&#xc6;" horiz-adv-x="1409" d="M18 0l617 1413h700v-133h-463v-494h396v-135h-396v-518h463v-133h-610v352h-399l-152 -352h-156zM381 483h344v801z" />
<glyph unicode="&#xc7;" d="M106 412v589q0 214 106 323q105 108 280 108q166 0 274 -103q106 -102 106 -309v-19h-149v15q0 146 -63 213t-166 67q-120 0 -179 -74t-59 -235v-577q0 -291 238 -291q107 0 168 67t61 207v19h145v-21q0 -173 -74 -271q-75 -99 -202 -126l-109 -305h-155l125 297 q-158 12 -252 118q-95 107 -95 308z" />
<glyph unicode="&#xc8;" horiz-adv-x="825" d="M123 0v1413h629v-133h-482v-494h414v-135h-414v-518h482v-133h-629zM209 1798h151l187 -264h-115z" />
<glyph unicode="&#xc9;" horiz-adv-x="825" d="M123 0v1413h629v-133h-482v-494h414v-135h-414v-518h482v-133h-629zM305 1534l187 264h151l-223 -264h-115z" />
<glyph unicode="&#xca;" horiz-adv-x="825" d="M123 0v1413h629v-133h-482v-494h414v-135h-414v-518h482v-133h-629zM170 1518l199 292h131l205 -292h-138l-129 184l-131 -184h-137z" />
<glyph unicode="&#xcb;" horiz-adv-x="825" d="M123 0v1413h629v-133h-482v-494h414v-135h-414v-518h482v-133h-629zM203 1540v176h153v-176h-153zM514 1540v176h154v-176h-154z" />
<glyph unicode="&#xcc;" horiz-adv-x="417" d="M-18 1798h151l186 -264h-114zM135 0v1413h148v-1413h-148z" />
<glyph unicode="&#xcd;" horiz-adv-x="417" d="M78 1534l186 264h152l-223 -264h-115zM135 0v1413h148v-1413h-148z" />
<glyph unicode="&#xce;" horiz-adv-x="417" d="M-57 1518l198 292h131l205 -292h-137l-129 184l-131 -184h-137zM135 0v1413h148v-1413h-148z" />
<glyph unicode="&#xcf;" horiz-adv-x="417" d="M-25 1540v176h154v-176h-154zM135 0v1413h148v-1413h-148zM287 1540v176h153v-176h-153z" />
<glyph unicode="&#xd0;" horiz-adv-x="1034" d="M61 651v133h119v629h367q171 0 276 -106q105 -107 105 -322v-557q0 -212 -105 -320t-276 -108h-367v651h-119zM330 133h217q111 0 171 74q60 73 60 219v545q0 157 -59 232q-60 77 -172 77h-217v-496h219v-133h-219v-518z" />
<glyph unicode="&#xd1;" horiz-adv-x="1028" d="M123 0v1413h149l484 -1087v1087h149v-1413h-149l-484 1085v-1085h-149zM295 1520v147q39 41 63 54q29 16 64 16q29 0 52 -10t50 -27q32 -20 50 -28q21 -9 49 -9q31 0 52 15q19 13 60 61v-144q-34 -40 -59 -54q-27 -15 -66 -15q-33 0 -56 10q-14 6 -56 29q-28 17 -45 24 q-18 8 -37 8q-34 0 -59 -16q-24 -16 -62 -61z" />
<glyph unicode="&#xd2;" d="M106 412v589q0 217 105 324t278 107q174 0 279 -107q104 -105 104 -324v-589q0 -213 -105 -321q-104 -107 -278 -107t-278 107q-105 108 -105 321zM256 410q0 -291 236 -291q111 0 171 72t60 219v577q0 158 -59 233q-60 76 -172 76q-121 0 -178 -75q-58 -76 -58 -234 v-577zM262 1798h152l186 -264h-115z" />
<glyph unicode="&#xd3;" d="M106 412v589q0 217 105 324t278 107q174 0 279 -107q104 -105 104 -324v-589q0 -213 -105 -321q-104 -107 -278 -107t-278 107q-105 108 -105 321zM256 410q0 -291 236 -291q111 0 171 72t60 219v577q0 158 -59 233q-60 76 -172 76q-121 0 -178 -75q-58 -76 -58 -234 v-577zM358 1534l187 264h151l-223 -264h-115z" />
<glyph unicode="&#xd4;" d="M106 412v589q0 217 105 324t278 107q174 0 279 -107q104 -105 104 -324v-589q0 -213 -105 -321q-104 -107 -278 -107t-278 107q-105 108 -105 321zM223 1518l199 292h131l205 -292h-137l-129 184l-132 -184h-137zM256 410q0 -291 236 -291q111 0 171 72t60 219v577 q0 158 -59 233q-60 76 -172 76q-121 0 -178 -75q-58 -76 -58 -234v-577z" />
<glyph unicode="&#xd5;" d="M106 412v589q0 217 105 324t278 107q174 0 279 -107q104 -105 104 -324v-589q0 -213 -105 -321q-104 -107 -278 -107t-278 107q-105 108 -105 321zM256 410q0 -291 236 -291q111 0 171 72t60 219v577q0 158 -59 233q-60 76 -172 76q-121 0 -178 -75q-58 -76 -58 -234 v-577zM268 1520v147q38 40 64 54q29 16 63 16q29 0 52 -10q26 -11 51 -27q32 -20 50 -28q21 -9 48 -9q31 0 52 15t61 61v-144q-33 -39 -60 -54t-65 -15q-34 0 -57 10q-14 6 -56 29q-29 17 -45 24q-18 8 -37 8q-33 0 -58 -16q-26 -17 -63 -61z" />
<glyph unicode="&#xd6;" d="M106 412v589q0 217 105 324t278 107q174 0 279 -107q104 -105 104 -324v-589q0 -213 -105 -321q-104 -107 -278 -107t-278 107q-105 108 -105 321zM256 410q0 -291 236 -291q111 0 171 72t60 219v577q0 158 -59 233q-60 76 -172 76q-121 0 -178 -75q-58 -76 -58 -234 v-577zM256 1540v176h154v-176h-154zM567 1540v176h154v-176h-154z" />
<glyph unicode="&#xd7;" horiz-adv-x="860" d="M129 352l213 213l-213 213l90 88l213 -211l211 211l88 -88l-211 -213l211 -213l-88 -88l-211 213l-213 -213z" />
<glyph unicode="&#xd8;" d="M106 412v589q0 217 105 324t278 107q142 0 238 -70l41 92h109l-76 -172q71 -105 71 -281v-589q0 -213 -105 -321q-104 -107 -278 -107q-136 0 -231 67l-41 -92h-108l73 168q-76 107 -76 285zM256 410q0 -57 8 -99l400 908q-56 77 -172 77q-121 0 -178 -75 q-58 -76 -58 -234v-577zM317 188q57 -69 175 -69q111 0 171 72t60 219v577q0 58 -8 100z" />
<glyph unicode="&#xd9;" horiz-adv-x="983" d="M123 360v1053h149v-1044q0 -121 59 -186q58 -64 161 -64q102 0 160 65q59 67 59 185v1044h149v-1053q0 -170 -102 -273t-266 -103q-106 0 -191 47q-84 46 -131 133q-47 86 -47 196zM264 1798h152l186 -264h-115z" />
<glyph unicode="&#xda;" horiz-adv-x="983" d="M123 360v1053h149v-1044q0 -121 59 -186q58 -64 161 -64q102 0 160 65q59 67 59 185v1044h149v-1053q0 -170 -102 -273t-266 -103q-106 0 -191 47q-84 46 -131 133q-47 86 -47 196zM360 1534l187 264h151l-223 -264h-115z" />
<glyph unicode="&#xdb;" horiz-adv-x="983" d="M123 360v1053h149v-1044q0 -121 59 -186q58 -64 161 -64q102 0 160 65q59 67 59 185v1044h149v-1053q0 -170 -102 -273t-266 -103q-106 0 -191 47q-84 46 -131 133q-47 86 -47 196zM225 1518l199 292h131l205 -292h-137l-129 184l-132 -184h-137z" />
<glyph unicode="&#xdc;" horiz-adv-x="983" d="M123 360v1053h149v-1044q0 -121 59 -186q58 -64 161 -64q102 0 160 65q59 67 59 185v1044h149v-1053q0 -170 -102 -273t-266 -103q-106 0 -191 47q-84 46 -131 133q-47 86 -47 196zM258 1540v176h154v-176h-154zM569 1540v176h154v-176h-154z" />
<glyph unicode="&#xdd;" horiz-adv-x="802" d="M18 1413h164l219 -647l220 647h163l-309 -825v-588h-147v588zM279 1534l186 264h151l-223 -264h-114z" />
<glyph unicode="&#xde;" horiz-adv-x="901" d="M123 0v1413h147v-258h211q189 0 277 -103t88 -309q0 -403 -365 -403h-211v-340h-147zM270 471h203q115 0 169 65q54 64 54 207q0 146 -54 212q-55 67 -169 67h-203v-551z" />
<glyph unicode="&#xdf;" horiz-adv-x="845" d="M121 0v1069q0 177 73 270t238 93q136 0 219 -84q82 -83 82 -232q0 -119 -26 -174q-27 -56 -97 -96q59 -30 87 -76q28 -47 37 -117q9 -72 9 -202q0 -182 -16 -272q-17 -94 -72 -140q-56 -47 -170 -47h-55v127h39q63 0 91 31t35 95q7 60 7 206q0 128 -7 187q-7 62 -36 97 t-92 35h-43v125h43q73 0 99 51q26 52 26 160q0 104 -41 151q-42 48 -121 48q-168 0 -168 -189v-1116h-141z" />
<glyph unicode="&#xe0;" horiz-adv-x="821" d="M82 299q0 143 81 224t234 81h164v170q0 178 -164 178q-75 0 -116 -41t-41 -114v-17h-131v19q0 130 78 202q80 74 210 74q148 0 226 -81q77 -80 77 -226v-768h-133v98q-72 -114 -215 -114q-131 0 -200 83q-70 84 -70 232zM184 1444h152l186 -264h-114zM221 301 q0 -197 164 -197q83 0 130 53q46 52 46 146v197h-149q-191 0 -191 -199z" />
<glyph unicode="&#xe1;" horiz-adv-x="821" d="M82 299q0 143 81 224t234 81h164v170q0 178 -164 178q-75 0 -116 -41t-41 -114v-17h-131v19q0 130 78 202q80 74 210 74q148 0 226 -81q77 -80 77 -226v-768h-133v98q-72 -114 -215 -114q-131 0 -200 83q-70 84 -70 232zM221 301q0 -197 164 -197q83 0 130 53 q46 52 46 146v197h-149q-191 0 -191 -199zM281 1180l186 264h151l-223 -264h-114z" />
<glyph unicode="&#xe2;" horiz-adv-x="821" d="M82 299q0 143 81 224t234 81h164v170q0 178 -164 178q-75 0 -116 -41t-41 -114v-17h-131v19q0 130 78 202q80 74 210 74q148 0 226 -81q77 -80 77 -226v-768h-133v98q-72 -114 -215 -114q-131 0 -200 83q-70 84 -70 232zM145 1163l199 293h131l205 -293h-137l-129 185 l-131 -185h-138zM221 301q0 -197 164 -197q83 0 130 53q46 52 46 146v197h-149q-191 0 -191 -199z" />
<glyph unicode="&#xe3;" horiz-adv-x="821" d="M82 299q0 143 81 224t234 81h164v170q0 178 -164 178q-75 0 -116 -41t-41 -114v-17h-131v19q0 130 78 202q80 74 210 74q148 0 226 -81q77 -80 77 -226v-768h-133v98q-72 -114 -215 -114q-131 0 -200 83q-70 84 -70 232zM190 1165v148q38 40 64 54q27 15 63 15 q32 0 53 -9q23 -10 50 -27q32 -20 50 -28q21 -9 48 -9q31 0 52 15q24 17 61 60v-143q-33 -39 -60 -54q-29 -16 -65 -16q-31 0 -56 11q-29 13 -57 28q-37 21 -45 25q-18 8 -37 8q-33 0 -58 -16t-63 -62zM221 301q0 -197 164 -197q83 0 130 53q46 52 46 146v197h-149 q-191 0 -191 -199z" />
<glyph unicode="&#xe4;" horiz-adv-x="821" d="M82 299q0 143 81 224t234 81h164v170q0 178 -164 178q-75 0 -116 -41t-41 -114v-17h-131v19q0 130 78 202q80 74 210 74q148 0 226 -81q77 -80 77 -226v-768h-133v98q-72 -114 -215 -114q-131 0 -200 83q-70 84 -70 232zM178 1186v176h154v-176h-154zM221 301 q0 -197 164 -197q83 0 130 53q46 52 46 146v197h-149q-191 0 -191 -199zM489 1186v176h154v-176h-154z" />
<glyph unicode="&#xe5;" horiz-adv-x="821" d="M82 299q0 143 81 224t234 81h164v170q0 178 -164 178q-75 0 -116 -41t-41 -114v-17h-131v19q0 130 78 202q80 74 210 74q148 0 226 -81q77 -80 77 -226v-768h-133v98q-72 -114 -215 -114q-131 0 -200 83q-70 84 -70 232zM221 301q0 -197 164 -197q83 0 130 53 q46 52 46 146v197h-149q-191 0 -191 -199zM229 1321q0 76 52 130q51 52 129 52q80 0 132 -52t52 -130t-52 -130t-132 -52q-78 0 -129 52q-52 54 -52 130zM311 1321q0 -44 28 -74q27 -28 71 -28q45 0 72 28q28 30 28 74t-28 75q-26 29 -72 29q-45 0 -71 -29q-28 -31 -28 -75z " />
<glyph unicode="&#xe6;" horiz-adv-x="1296" d="M82 295q0 141 81 221q82 80 234 80h164v178q0 178 -164 178q-75 0 -116 -41t-41 -114v-17h-131v19q0 130 78 202q80 74 210 74q166 0 242 -100q82 100 238 100q147 0 232 -94t85 -279v-213h-494v-127q0 -137 49 -198q48 -60 136 -60q82 0 126 53t44 158v9h137v-7 q0 -165 -81 -249t-226 -84q-176 0 -260 118q-41 -58 -106 -88t-146 -30q-139 0 -215 82t-76 229zM221 297q0 -193 164 -193q82 0 130 54q46 52 46 147v187h-149q-191 0 -191 -195zM700 596h355v106q0 134 -45 191t-131 57q-87 0 -133 -57q-46 -56 -46 -195v-102z" />
<glyph unicode="&#xe7;" horiz-adv-x="837" d="M102 344v371q0 186 84 273t236 87q148 0 231 -84q82 -83 82 -254v-28h-139v28q0 213 -172 213q-90 0 -136 -57q-46 -56 -46 -195v-338q0 -138 46 -194q46 -57 134 -57q174 0 174 213v28h139v-26q0 -136 -52 -216q-53 -82 -151 -110l-108 -309h-156l125 295 q-291 21 -291 360z" />
<glyph unicode="&#xe8;" horiz-adv-x="835" d="M102 360v342q0 184 83 279q82 94 231 94q147 0 232 -94t85 -279v-215h-491v-125q0 -138 48 -198t136 -60q168 0 168 211v9h137v-7q0 -165 -81 -249t-228 -84q-320 0 -320 376zM182 1444h152l186 -264h-114zM242 594h354v108q0 135 -46 191q-46 57 -132 57t-131 -58 t-45 -194v-104z" />
<glyph unicode="&#xe9;" horiz-adv-x="835" d="M102 360v342q0 184 83 279q82 94 231 94q147 0 232 -94t85 -279v-215h-491v-125q0 -138 48 -198t136 -60q168 0 168 211v9h137v-7q0 -165 -81 -249t-228 -84q-320 0 -320 376zM242 594h354v108q0 135 -46 191q-46 57 -132 57t-131 -58t-45 -194v-104zM279 1180l186 264 h151l-223 -264h-114z" />
<glyph unicode="&#xea;" horiz-adv-x="835" d="M102 360v342q0 184 83 279q82 94 231 94q147 0 232 -94t85 -279v-215h-491v-125q0 -138 48 -198t136 -60q168 0 168 211v9h137v-7q0 -165 -81 -249t-228 -84q-320 0 -320 376zM143 1163l199 293h131l205 -293h-137l-129 185l-131 -185h-138zM242 594h354v108 q0 135 -46 191q-46 57 -132 57t-131 -58t-45 -194v-104z" />
<glyph unicode="&#xeb;" horiz-adv-x="835" d="M102 360v342q0 184 83 279q82 94 231 94q147 0 232 -94t85 -279v-215h-491v-125q0 -138 48 -198t136 -60q168 0 168 211v9h137v-7q0 -165 -81 -249t-228 -84q-320 0 -320 376zM176 1186v176h154v-176h-154zM242 594h354v108q0 135 -46 191q-46 57 -132 57t-131 -58 t-45 -194v-104zM487 1186v176h154v-176h-154z" />
<glyph unicode="&#xec;" horiz-adv-x="405" d="M-25 1444h152l186 -264h-114zM133 0v1059h139v-1059h-139z" />
<glyph unicode="&#xed;" horiz-adv-x="405" d="M72 1180l186 264h152l-224 -264h-114zM133 0v1059h139v-1059h-139z" />
<glyph unicode="&#xee;" horiz-adv-x="405" d="M-63 1163l198 293h131l205 -293h-137l-129 185l-131 -185h-137zM133 0v1059h139v-1059h-139z" />
<glyph unicode="&#xef;" horiz-adv-x="405" d="M-31 1186v176h154v-176h-154zM133 0v1059h139v-1059h-139zM281 1186v176h153v-176h-153z" />
<glyph unicode="&#xf0;" horiz-adv-x="831" d="M102 365v231q0 371 279 371q70 0 117 -25l-115 197l-172 -56l-33 105l150 47l-107 184h156l82 -141l166 53l30 -104l-141 -45l78 -135q76 -130 107 -234q30 -101 30 -240v-204q0 -387 -315 -387q-312 0 -312 383zM242 340q0 -231 174 -231t174 231v272q0 230 -174 230 t-174 -228v-274z" />
<glyph unicode="&#xf1;" horiz-adv-x="851" d="M121 0v1059h135v-96q30 51 86 81q57 31 123 31q128 0 197 -82q69 -83 69 -227v-766h-139v760q0 92 -45 141t-121 49q-73 0 -120 -50q-46 -49 -46 -140v-760h-139zM205 1165v148q39 41 63 54q27 15 64 15q31 0 52 -9q23 -10 50 -27q32 -20 50 -28q21 -9 48 -9q32 0 53 15 t60 60v-143q-34 -40 -59 -54q-29 -16 -66 -16q-31 0 -56 11q-24 10 -56 28q-33 19 -46 25q-18 8 -36 8q-34 0 -59 -16q-22 -15 -62 -62z" />
<glyph unicode="&#xf2;" horiz-adv-x="837" d="M102 344v371q0 186 84 273t236 87q148 0 230 -88q83 -89 83 -272v-371q0 -183 -83 -272q-82 -88 -230 -88q-152 0 -236 87t-84 273zM193 1444h151l186 -264h-114zM242 360q0 -138 46 -194q46 -57 132 -57t131 58t45 193v338q0 136 -45 194t-131 58t-132 -57 q-46 -56 -46 -195v-338z" />
<glyph unicode="&#xf3;" horiz-adv-x="837" d="M102 344v371q0 186 84 273t236 87q148 0 230 -88q83 -89 83 -272v-371q0 -183 -83 -272q-82 -88 -230 -88q-152 0 -236 87t-84 273zM242 360q0 -138 46 -194q46 -57 132 -57t131 58t45 193v338q0 136 -45 194t-131 58t-132 -57q-46 -56 -46 -195v-338zM289 1180l186 264 h152l-224 -264h-114z" />
<glyph unicode="&#xf4;" horiz-adv-x="837" d="M102 344v371q0 186 84 273t236 87q148 0 230 -88q83 -89 83 -272v-371q0 -183 -83 -272q-82 -88 -230 -88q-152 0 -236 87t-84 273zM154 1163l198 293h131l205 -293h-137l-129 185l-131 -185h-137zM242 360q0 -138 46 -194q46 -57 132 -57t131 58t45 193v338 q0 136 -45 194t-131 58t-132 -57q-46 -56 -46 -195v-338z" />
<glyph unicode="&#xf5;" horiz-adv-x="837" d="M102 344v371q0 186 84 273t236 87q148 0 230 -88q83 -89 83 -272v-371q0 -183 -83 -272q-82 -88 -230 -88q-152 0 -236 87t-84 273zM199 1165v148q39 41 63 54q27 15 64 15q31 0 52 -9q23 -10 50 -27q32 -20 50 -28q21 -9 48 -9q32 0 53 15t60 60v-143q-34 -40 -59 -54 q-29 -16 -66 -16q-31 0 -56 11q-29 13 -57 28q-37 21 -45 25q-18 8 -37 8q-33 0 -58 -16q-22 -15 -62 -62zM242 360q0 -138 46 -194q46 -57 132 -57t131 58t45 193v338q0 136 -45 194t-131 58t-132 -57q-46 -56 -46 -195v-338z" />
<glyph unicode="&#xf6;" horiz-adv-x="837" d="M102 344v371q0 186 84 273t236 87q148 0 230 -88q83 -89 83 -272v-371q0 -183 -83 -272q-82 -88 -230 -88q-152 0 -236 87t-84 273zM186 1186v176h154v-176h-154zM242 360q0 -138 46 -194q46 -57 132 -57t131 58t45 193v338q0 136 -45 194t-131 58t-132 -57 q-46 -56 -46 -195v-338zM498 1186v176h153v-176h-153z" />
<glyph unicode="&#xf7;" horiz-adv-x="860" d="M82 498v135h698v-135h-698zM334 295q0 42 28 69t70 27t69 -27t27 -69q0 -41 -27 -70q-27 -28 -69 -28t-70 28t-28 70zM334 844q0 41 28 68q30 28 70 28q41 0 69 -28q27 -27 27 -68q0 -42 -27 -70q-27 -29 -69 -29q-41 0 -70 29q-28 28 -28 70z" />
<glyph unicode="&#xf8;" horiz-adv-x="837" d="M102 -61l70 149q-70 90 -70 256v371q0 186 84 273t236 87q116 0 188 -51l43 90h82l-67 -145q67 -89 67 -254v-371q0 -183 -83 -272q-82 -88 -230 -88q-116 0 -193 51l-45 -96h-82zM242 360q0 -60 10 -104l297 637q-43 57 -129 57t-132 -57q-46 -56 -46 -195v-338z M289 164q46 -55 131 -55q86 0 131 58t45 193v338q0 59 -8 101z" />
<glyph unicode="&#xf9;" horiz-adv-x="851" d="M121 326v733h139v-639q0 -169 34 -240t134 -71q68 0 102 30q35 31 49 97q13 64 13 184v639h139v-733q0 -172 -75 -257t-230 -85t-230 85q-75 86 -75 257zM199 1444h151l187 -264h-115z" />
<glyph unicode="&#xfa;" horiz-adv-x="851" d="M121 326v733h139v-639q0 -169 34 -240t134 -71q68 0 102 30q35 31 49 97q13 64 13 184v639h139v-733q0 -172 -75 -257t-230 -85t-230 85q-75 86 -75 257zM295 1180l186 264h152l-223 -264h-115z" />
<glyph unicode="&#xfb;" horiz-adv-x="851" d="M121 326v733h139v-639q0 -169 34 -240t134 -71q68 0 102 30q35 31 49 97q13 64 13 184v639h139v-733q0 -172 -75 -257t-230 -85t-230 85q-75 86 -75 257zM160 1163l198 293h131l205 -293h-137l-129 185l-131 -185h-137z" />
<glyph unicode="&#xfc;" horiz-adv-x="851" d="M121 326v733h139v-639q0 -169 34 -240t134 -71q68 0 102 30q35 31 49 97q13 64 13 184v639h139v-733q0 -172 -75 -257t-230 -85t-230 85q-75 86 -75 257zM193 1186v176h153v-176h-153zM504 1186v176h153v-176h-153z" />
<glyph unicode="&#xfd;" horiz-adv-x="759" d="M31 1059h151l201 -809l195 809h151l-309 -1159q-30 -118 -105 -167q-74 -48 -202 -48h-21v125h35q79 0 123 30q42 29 59 103l8 32zM254 1180l186 264h152l-223 -264h-115z" />
<glyph unicode="&#xfe;" horiz-adv-x="843" d="M121 -311v1724h139v-457q69 119 201 119q127 0 204 -89q76 -88 76 -271v-371q0 -183 -76 -271q-77 -89 -202 -89q-134 0 -203 112v-407h-139zM260 358q0 -123 45 -186t131 -63q82 0 124 58q42 59 42 193v338q0 252 -166 252q-86 0 -131 -64q-45 -65 -45 -190v-338z" />
<glyph unicode="&#xff;" horiz-adv-x="759" d="M31 1059h151l201 -809l195 809h151l-309 -1159q-30 -118 -105 -167q-74 -48 -202 -48h-21v125h35q79 0 123 30q42 29 59 103l8 32zM152 1186v176h153v-176h-153zM463 1186v176h153v-176h-153z" />
<glyph unicode="&#x152;" horiz-adv-x="1398" d="M106 412v592q0 215 100 323q99 107 271 107q164 0 260 -99v78h588v-133h-455v-358q2 -36 2 -84v-52h385v-135h-385v-59q0 -48 -2 -86v-373h455v-133h-588v86q-95 -102 -260 -102q-172 0 -271 106q-100 108 -100 322zM256 410q0 -291 236 -291q111 0 171 72t60 219v579 q0 158 -59 233q-60 76 -172 76q-121 0 -178 -75q-58 -76 -58 -234v-579z" />
<glyph unicode="&#x153;" horiz-adv-x="1331" d="M102 344v371q0 186 84 273t236 87q170 0 246 -108q82 108 243 108q148 0 233 -94t85 -279v-213h-494v-127q0 -138 48 -198t137 -60q82 0 126 53t44 158v9h137v-7q0 -166 -82 -249q-83 -84 -230 -84q-168 0 -247 106q-79 -106 -246 -106q-152 0 -236 87t-84 273zM242 360 q0 -138 46 -194q46 -57 132 -57t131 58t45 193v338q0 136 -45 194t-131 58t-132 -57q-46 -56 -46 -195v-338zM735 596h355v106q0 133 -46 191q-45 57 -131 57q-85 0 -132 -57q-46 -56 -46 -195v-102z" />
<glyph unicode="&#x178;" horiz-adv-x="802" d="M18 1413h164l219 -647l220 647h163l-309 -825v-588h-147v588zM176 1540v176h154v-176h-154zM487 1540v176h154v-176h-154z" />
<glyph unicode="&#x2c6;" horiz-adv-x="1026" d="M246 1163l198 293h131l205 -293h-137l-129 185l-131 -185h-137z" />
<glyph unicode="&#x2dc;" horiz-adv-x="1026" d="M293 1165v148q39 41 63 54q27 15 64 15q31 0 52 -9q23 -10 50 -27q32 -20 50 -28q21 -9 49 -9q31 0 52 15t60 60v-143q-34 -40 -59 -54q-29 -16 -66 -16q-31 0 -56 11q-24 10 -56 28q-37 21 -45 25q-18 8 -37 8q-34 0 -59 -16q-22 -15 -62 -62z" />
<glyph unicode="&#x2000;" horiz-adv-x="905" />
<glyph unicode="&#x2001;" horiz-adv-x="1810" />
<glyph unicode="&#x2002;" horiz-adv-x="905" />
<glyph unicode="&#x2003;" horiz-adv-x="1810" />
<glyph unicode="&#x2004;" horiz-adv-x="603" />
<glyph unicode="&#x2005;" horiz-adv-x="452" />
<glyph unicode="&#x2006;" horiz-adv-x="301" />
<glyph unicode="&#x2007;" horiz-adv-x="301" />
<glyph unicode="&#x2008;" horiz-adv-x="226" />
<glyph unicode="&#x2009;" horiz-adv-x="362" />
<glyph unicode="&#x200a;" horiz-adv-x="100" />
<glyph unicode="&#x2010;" horiz-adv-x="768" d="M102 645v133h564v-133h-564z" />
<glyph unicode="&#x2011;" horiz-adv-x="768" d="M102 645v133h564v-133h-564z" />
<glyph unicode="&#x2012;" horiz-adv-x="768" d="M102 645v133h564v-133h-564z" />
<glyph unicode="&#x2013;" horiz-adv-x="854" d="M0 645v133h854v-133h-854z" />
<glyph unicode="&#x2014;" horiz-adv-x="1705" d="M0 645v133h1706v-133h-1706z" />
<glyph unicode="&#x2018;" horiz-adv-x="307" d="M84 1001v359l139 121v-480h-139zM121 1413z" />
<glyph unicode="&#x2019;" horiz-adv-x="307" d="M84 934v479h139v-358z" />
<glyph unicode="&#x201a;" horiz-adv-x="307" d="M84 190h139v-358l-139 -121v479z" />
<glyph unicode="&#x201c;" horiz-adv-x="573" d="M84 1001v359l139 121v-480h-139zM188 1413zM350 1001v359l139 121v-480h-139z" />
<glyph unicode="&#x201d;" horiz-adv-x="573" d="M84 934v479h139v-358zM350 934v479h139v-358z" />
<glyph unicode="&#x201e;" horiz-adv-x="573" d="M84 190h139v-358l-139 -121v479zM350 190h139v-358l-139 -121v479z" />
<glyph unicode="&#x2022;" horiz-adv-x="864" d="M182 631q0 109 72 179q73 71 178 71q108 0 179 -71t71 -179q0 -105 -71 -178q-71 -72 -179 -72q-106 0 -178 72t-72 178z" />
<glyph unicode="&#x2026;" horiz-adv-x="1175" d="M84 0v182h160v-182h-160zM508 0v182h160v-182h-160zM932 0v182h160v-182h-160z" />
<glyph unicode="&#x202f;" horiz-adv-x="362" />
<glyph unicode="&#x2039;" horiz-adv-x="528" d="M41 541l367 374v-155l-213 -219l213 -219v-156z" />
<glyph unicode="&#x203a;" horiz-adv-x="548" d="M121 166v156l213 219l-213 219v155l366 -374z" />
<glyph unicode="&#x205f;" horiz-adv-x="452" />
<glyph unicode="&#x20ac;" horiz-adv-x="931" d="M61 518v127h129v135h-129v129h129v158q0 169 79 267q80 100 243 100q148 0 228 -87q78 -86 83 -247h-139q-6 100 -45 150t-125 50q-174 0 -174 -223v-168h356l-24 -129h-332v-135h305l-24 -127h-281v-158q0 -117 38 -181q37 -62 136 -62q84 0 123 50q40 50 47 152h141 q-4 -166 -86 -250q-82 -85 -227 -85q-175 0 -248 100q-74 101 -74 283v151h-129z" />
<glyph unicode="&#x2122;" horiz-adv-x="1370" d="M61 1290v123h482v-123h-174v-684h-133v684h-175zM651 606v807h133l166 -500h4l162 500h131v-807h-125v492h-4l-125 -367h-86l-125 367h-4v-492h-127z" />
<glyph unicode="&#x25fc;" horiz-adv-x="1054" d="M0 0v1055h1055v-1055h-1055z" />
</font>
</defs>
</svg>
