<?xml version="1.0" standalone="no"?>
<!DOCTYPE svg PUBLIC "-//W3C//DTD SVG 1.1//EN" "http://www.w3.org/Graphics/SVG/1.1/DTD/svg11.dtd" >
<svg xmlns="http://www.w3.org/2000/svg" xmlns:xlink="http://www.w3.org/1999/xlink" version="1.1">
<metadata></metadata>
<defs>
<font id="d-din_expdinexp-bold" horiz-adv-x="1378" >
<font-face units-per-em="2048" ascent="1702" descent="-346" />
<missing-glyph horiz-adv-x="468" />
<glyph horiz-adv-x="0" />
<glyph unicode="&#xd;" horiz-adv-x="468" />
<glyph horiz-adv-x="1228" />
<glyph horiz-adv-x="1228" />
<glyph unicode=" "  horiz-adv-x="468" />
<glyph unicode="&#x09;" horiz-adv-x="468" />
<glyph unicode="&#xa0;" horiz-adv-x="468" />
<glyph unicode="!" horiz-adv-x="509" d="M111 1413h288l-49 -942h-190zM121 0v266h268v-266h-268z" />
<glyph unicode="&#x22;" horiz-adv-x="811" d="M78 803v610h239v-610h-239zM496 803v610h237v-610h-237z" />
<glyph unicode="#" horiz-adv-x="1232" d="M37 418v188h239l31 225h-213v189h238l51 393h211l-51 -393h229l51 393h211l-51 -393h213v-189h-238l-28 -225h209v-188h-234l-55 -418h-213l55 418h-229l-55 -418h-211l55 418h-215zM487 606h230l31 225h-230z" />
<glyph unicode="$" horiz-adv-x="1095" d="M57 465h236q12 -99 73 -143q59 -43 185 -43q113 0 171 40t58 121q0 72 -39 111t-127 49l-153 21q-371 50 -371 356q0 157 95 257q95 99 268 122v160h182v-158q169 -18 266 -115t109 -262h-240q-8 87 -63 127q-56 41 -162 41q-102 0 -154 -40q-53 -41 -53 -114 q0 -65 44 -103q43 -37 142 -52l160 -23q346 -49 346 -358q0 -171 -104 -272q-103 -100 -291 -121v-189h-182v186q-182 18 -285 122q-104 105 -111 280z" />
<glyph unicode="%" horiz-adv-x="2013" d="M94 877v229q0 157 80 239q79 80 234 80q305 0 305 -319v-229q0 -336 -310 -336q-309 0 -309 336zM305 887q0 -88 22 -127q21 -37 79 -37q57 0 76 37q20 38 20 127v192q0 91 -21 128q-21 38 -75 38q-58 0 -79 -38q-22 -39 -22 -128v-192zM451 0l907 1423h209l-910 -1423 h-206zM1300 324v229q0 157 80 239q79 80 234 80q305 0 305 -319v-229q0 -336 -309 -336q-310 0 -310 336zM1511 334q0 -88 22 -127q21 -37 79 -37t77 37t19 127v192q0 92 -20 128q-21 38 -76 38q-58 0 -79 -38q-22 -39 -22 -128v-192z" />
<glyph unicode="&#x26;" horiz-adv-x="1363" d="M94 373q0 124 65 222q64 97 208 187q-80 99 -115 172q-33 69 -33 148q0 153 106 247q105 93 273 93q170 0 276 -94q107 -95 107 -246q0 -108 -63 -190q-64 -83 -213 -179l225 -262l184 207l158 -143l-203 -228l21 -22q33 -37 61 -52q27 -14 72 -14h45v-219h-111 q-73 0 -126 27q-51 26 -113 100l-7 6q-89 -86 -184 -125q-90 -37 -201 -37q-202 0 -317 112t-115 290zM336 383q0 -90 54 -141q55 -52 149 -52q58 0 116 25q56 24 119 84l-268 317q-94 -62 -132 -114q-38 -55 -38 -119zM457 1112q0 -47 23 -93q25 -51 89 -126 q103 62 142 113q37 49 37 102q0 62 -40 99q-41 38 -108 38q-68 0 -105 -36q-38 -36 -38 -97z" />
<glyph unicode="'" horiz-adv-x="395" d="M78 803v610h239v-610h-239z" />
<glyph unicode="(" horiz-adv-x="661" d="M94 674q0 236 73 452t216 390h186q-109 -181 -167 -400q-56 -211 -56 -444q0 -234 56 -445q57 -215 165 -399h-186q-144 186 -214 396q-73 217 -73 450z" />
<glyph unicode=")" horiz-adv-x="661" d="M94 -172q110 188 166 399q57 215 57 445q0 233 -56 444q-58 219 -167 400h187q142 -179 215 -392q73 -212 73 -450q0 -236 -72 -450q-70 -210 -214 -396h-189z" />
<glyph unicode="*" horiz-adv-x="847" d="M94 1014l185 94l-185 94l60 111l200 -101v201h142v-203l200 103l58 -111l-185 -94l187 -94l-62 -111l-198 101v-207h-142v209l-200 -103z" />
<glyph unicode="+" horiz-adv-x="1083" d="M98 449v233h328v328h233v-328h326v-233h-326v-328h-233v328h-328z" />
<glyph unicode="," horiz-adv-x="395" d="M78 281h239v-410l-239 -203v613z" />
<glyph unicode="-" horiz-adv-x="819" d="M94 590v235h633v-235h-633z" />
<glyph unicode="." horiz-adv-x="440" d="M78 0v291h284v-291h-284z" />
<glyph unicode="/" horiz-adv-x="911" d="M94 -20l510 1443h215l-512 -1443h-213z" />
<glyph unicode="0" horiz-adv-x="1155" d="M113 496v438q0 249 120 375q121 127 355 127q238 0 356 -127q119 -128 119 -375v-438q0 -256 -119 -387q-120 -132 -356 -132q-475 0 -475 519zM383 518q0 -161 47 -234t158 -73q113 0 160 73t47 234v377q0 159 -49 233q-48 72 -158 72q-112 0 -158 -72q-47 -73 -47 -233 v-377z" />
<glyph unicode="1" horiz-adv-x="776" d="M74 958v277l301 178h268v-1413h-268v1133z" />
<glyph unicode="2" horiz-adv-x="1114" d="M102 1006v49q0 173 123 277q124 104 336 104q140 0 250 -51q105 -49 163 -140q56 -88 56 -207v-26q0 -110 -43 -197q-44 -89 -133 -178l-381 -401h559v-236h-921v213l528 565q67 66 94 118t27 114v22q0 82 -54 129q-55 47 -149 47q-93 0 -145 -45q-54 -46 -54 -125v-32 h-256z" />
<glyph unicode="3" horiz-adv-x="1136" d="M102 362v23h250v-16q0 -80 56 -122t159 -42q102 0 158 50q55 49 55 140v31q0 96 -58 142t-177 46h-80v228h78q104 0 158 45q55 46 55 129v24q0 80 -51 124q-52 44 -146 44q-97 0 -147 -43q-52 -44 -52 -123v-18h-245v18q0 191 116 292q117 102 334 102q213 0 334 -99 t121 -270v-27q0 -98 -50 -172q-48 -71 -147 -116q108 -38 165 -121q56 -83 56 -205v-33q0 -193 -128 -304q-129 -112 -345 -112q-225 0 -348 100q-121 99 -121 285z" />
<glyph unicode="4" horiz-adv-x="1181" d="M80 225v236l452 952h275l-455 -952h369v332h268v-332h129v-236h-129v-225h-268v225h-641z" />
<glyph unicode="5" horiz-adv-x="1120" d="M113 340v16h256v-8q0 -63 52 -103t140 -40q101 0 152 57t51 162v63q0 110 -52 166q-53 58 -151 58q-64 0 -115 -28q-48 -26 -73 -75h-236v805h848v-229h-616v-330q101 76 249 76q195 0 303 -114q107 -113 107 -318v-78q0 -209 -123 -326t-346 -117q-203 0 -326 97 q-120 95 -120 266z" />
<glyph unicode="6" horiz-adv-x="1165" d="M102 408v41q0 153 103 335l364 629h291l-336 -579q56 28 150 28q185 0 297 -109t112 -294v-43q0 -205 -133 -322t-358 -117q-232 0 -361 114t-129 317zM371 406q0 -96 58 -148q59 -53 163 -53q103 0 164 53q59 52 59 148v36q0 96 -59 146q-60 51 -164 51t-163 -51 q-58 -51 -58 -144v-38z" />
<glyph unicode="7" horiz-adv-x="1038" d="M68 1180v233h915v-233l-498 -1180h-272l502 1180h-647z" />
<glyph unicode="8" horiz-adv-x="1183" d="M113 399v29q0 103 52 185q53 84 146 128q-78 39 -123 113t-45 168v22q0 115 56 204q56 90 159 138q106 50 246 50t246 -50q104 -49 160 -138q55 -88 55 -204v-22q0 -93 -46 -167q-47 -75 -124 -114q93 -46 145 -130t52 -181v-29q0 -196 -134 -310t-356 -114t-356 114 q-133 114 -133 308zM377 403q0 -94 59 -146t168 -52q107 0 166 52t59 146v31q0 91 -59 141q-61 52 -166 52q-106 0 -167 -52q-60 -51 -60 -141v-31zM406 1020q0 -80 51 -126q50 -46 147 -46q96 0 146 46q51 46 51 126v22q0 79 -52 122q-53 44 -145 44q-93 0 -146 -44 q-52 -43 -52 -122v-22z" />
<glyph unicode="9" horiz-adv-x="1165" d="M102 956v43q0 205 131 321t359 116q230 0 361 -114q130 -114 130 -314v-43q0 -159 -104 -336l-365 -629h-288l333 580q-64 -29 -147 -29q-184 0 -297 111t-113 294zM371 973q0 -95 58 -147t163 -52t163 52t58 145v39q0 94 -58 146t-163 52q-104 0 -163 -53 q-58 -52 -58 -147v-35z" />
<glyph unicode=":" horiz-adv-x="440" d="M78 0v291h284v-291h-284zM78 692v291h284v-291h-284z" />
<glyph unicode=";" horiz-adv-x="440" d="M78 692v291h284v-291h-284zM119 281h239v-410l-239 -203v613z" />
<glyph unicode="&#x3c;" horiz-adv-x="1083" d="M98 457v211l885 346v-236l-569 -217l569 -215v-237z" />
<glyph unicode="=" horiz-adv-x="1083" d="M100 236v231h883v-231h-883zM100 664v231h883v-231h-883z" />
<glyph unicode="&#x3e;" horiz-adv-x="1083" d="M98 109v237l570 215l-570 217v236l885 -346v-211z" />
<glyph unicode="?" horiz-adv-x="1024" d="M55 1040q12 394 447 394q212 0 333 -98q119 -97 119 -269q0 -171 -133 -295l-116 -125q-47 -46 -65 -84q-17 -37 -17 -104v-64h-254v94q0 100 22 156q23 58 94 123l105 109q57 53 80 92q22 38 22 86q0 72 -49 109q-50 38 -147 38q-99 0 -145 -40q-47 -41 -48 -122h-248z M360 0v258h269v-258h-269z" />
<glyph unicode="@" horiz-adv-x="1789" d="M94 504v143q0 232 102 409t283 275q183 99 418 99q230 0 414 -98q182 -97 284 -273q103 -177 103 -402v-143q0 -196 -99 -300q-99 -103 -247 -103q-93 0 -158 34q-64 34 -100 99q-66 -133 -263 -133q-309 0 -309 370v181q0 174 73 274q71 98 222 98q74 0 130 -28 q55 -27 83 -76v82h223v-584q0 -64 28 -97q27 -32 73 -32q57 0 86 50q28 49 28 163v143q0 176 -68 302q-70 129 -197 198q-129 70 -306 70q-267 0 -421 -154q-152 -152 -152 -420v-145q0 -176 68 -305q69 -131 198 -203t307 -72q120 0 221 26q93 24 203 79l90 -174 q-121 -71 -242 -103q-123 -33 -272 -33q-235 0 -418 99q-181 98 -283 275t-102 409zM752 494q0 -94 32 -142q33 -49 107 -49q135 0 135 184v172q0 183 -135 183q-71 0 -106 -48q-33 -46 -33 -132v-168z" />
<glyph unicode="A" horiz-adv-x="1394" d="M8 0l580 1413h219l579 -1413h-286l-103 274h-600l-102 -274h-287zM481 498h432l-217 575z" />
<glyph unicode="B" horiz-adv-x="1339" d="M121 0v1413h612q241 0 367 -101q127 -102 127 -292q0 -97 -52 -173t-149 -120q109 -44 165 -125t56 -196q0 -196 -126 -301t-361 -105h-639zM389 233h375q217 0 217 191q0 178 -227 178h-365v-369zM389 836h346q223 0 223 168q0 176 -213 176h-356v-344z" />
<glyph unicode="C" d="M113 598v221q0 309 159 465t445 156q260 0 415 -128q154 -127 154 -356v-16h-268v8q0 119 -80 188q-78 68 -221 68q-169 0 -251 -98q-83 -100 -83 -301v-203q0 -194 84 -289q84 -94 252 -94q139 0 220 67q79 66 79 183v10h266v-10q0 -233 -154 -363q-153 -129 -415 -129 q-285 0 -444 156q-158 155 -158 465z" />
<glyph unicode="D" horiz-adv-x="1355" d="M121 0v1413h551q283 0 437 -151q155 -152 155 -467v-174q0 -315 -158 -468t-444 -153h-541zM389 233h281q165 0 245 94t80 294v159q0 209 -80 304q-81 96 -245 96h-281v-947z" />
<glyph unicode="E" horiz-adv-x="1202" d="M121 0v1413h1009v-233h-741v-351h637v-233h-637v-363h741v-233h-1009z" />
<glyph unicode="F" horiz-adv-x="1191" d="M121 0v1413h1009v-233h-741v-363h641v-233h-641v-584h-268z" />
<glyph unicode="G" d="M113 598v221q0 309 159 465t445 156q170 0 299 -57t199 -164q71 -109 71 -256v-17h-268v8q0 113 -80 182q-78 68 -221 68q-169 0 -251 -97q-83 -98 -83 -300v-203q0 -198 83 -292q82 -93 253 -93q152 0 227 67q74 66 74 199v52h-309v221h575v-234q0 -274 -152 -410 q-154 -137 -419 -137q-284 0 -443 156t-159 465z" />
<glyph unicode="H" horiz-adv-x="1374" d="M121 0v1413h268v-582h596v582h268v-1413h-268v598h-596v-598h-268z" />
<glyph unicode="I" horiz-adv-x="534" d="M133 0v1413h268v-1413h-268z" />
<glyph unicode="J" horiz-adv-x="741" d="M49 0v236h125q95 0 129 35q35 37 35 128v1014h270v-1059q0 -176 -92 -265t-272 -89h-195z" />
<glyph unicode="K" horiz-adv-x="1388" d="M121 0v1413h268v-686l602 686h344l-526 -569l567 -844h-325l-422 651l-240 -258v-393h-268z" />
<glyph unicode="L" horiz-adv-x="1167" d="M121 0v1413h268v-1180h729v-233h-997z" />
<glyph unicode="M" horiz-adv-x="1656" d="M121 0v1413h268l442 -809l437 809h268v-1413h-268v895l-346 -623h-181l-352 629v-901h-268z" />
<glyph unicode="N" horiz-adv-x="1431" d="M121 0v1413h268l653 -938v938h269v-1413h-269l-653 936v-936h-268z" />
<glyph unicode="O" d="M113 598v221q0 309 156 465t433 156q272 0 428 -156t156 -465v-221q0 -308 -159 -464q-160 -157 -433 -157q-275 0 -428 156t-153 465zM383 602q0 -195 79 -289t240 -94q316 0 316 383v203q0 399 -316 399q-161 0 -240 -98t-79 -301v-203z" />
<glyph unicode="P" horiz-adv-x="1286" d="M121 0v1413h610q237 0 372 -115q134 -114 134 -327q0 -206 -134 -320q-133 -114 -382 -114h-332v-537h-268zM389 772h352q228 0 228 201q0 104 -60 155q-61 52 -168 52h-352v-408z" />
<glyph unicode="Q" d="M113 598v221q0 309 156 465t433 156q272 0 428 -156t156 -465v-221q0 -345 -205 -504l162 -297l-205 -112l-170 311q-84 -19 -174 -19q-275 0 -428 156t-153 465zM383 602q0 -195 79 -289t240 -94q316 0 316 383v203q0 399 -316 399q-161 0 -240 -98t-79 -301v-203z" />
<glyph unicode="R" horiz-adv-x="1359" d="M121 0v1413h614q234 0 366 -110q134 -111 134 -320q0 -151 -73 -251q-72 -99 -214 -144l350 -588h-319l-309 555h-281v-555h-268zM389 784h354q226 0 226 199q0 97 -60 147q-61 50 -166 50h-354v-396z" />
<glyph unicode="S" horiz-adv-x="1245" d="M57 430h256q15 -114 91 -163q77 -50 225 -50q289 0 289 191q0 84 -58 128q-56 43 -188 58l-150 18q-430 52 -430 396q0 198 144 312t391 114q238 0 374 -109q136 -108 152 -313h-258q-7 101 -75 149q-67 47 -199 47q-133 0 -201 -47t-68 -133q0 -78 60 -121 q58 -42 190 -59l170 -23q200 -27 305 -126t105 -271q0 -213 -152 -327q-150 -113 -416 -113q-259 0 -399 113q-141 114 -158 329z" />
<glyph unicode="T" horiz-adv-x="1140" d="M12 1180v233h1116v-233h-423v-1180h-269v1180h-424z" />
<glyph unicode="U" horiz-adv-x="1384" d="M121 508v905h268v-897q0 -142 78 -219q77 -76 223 -76t225 76q80 77 80 219v897h269v-905q0 -157 -71 -276q-70 -118 -201 -181q-130 -63 -302 -63q-170 0 -299 63q-130 64 -200 181q-70 118 -70 276z" />
<glyph unicode="V" horiz-adv-x="1275" d="M8 1413h287l342 -1018l344 1018h287l-525 -1413h-215z" />
<glyph unicode="W" horiz-adv-x="1916" d="M8 1413h275l268 -1034l248 1034h331l273 -1034l242 1034h264l-396 -1413h-245l-303 1087l-306 -1087h-243z" />
<glyph unicode="X" horiz-adv-x="1363" d="M8 0l510 733l-473 680h330l313 -467l293 467h324l-465 -668l516 -745h-330l-354 530l-340 -530h-324z" />
<glyph unicode="Y" horiz-adv-x="1245" d="M8 1413h303l312 -592l311 592h303l-479 -829v-584h-269v582z" />
<glyph unicode="Z" horiz-adv-x="1148" d="M61 0v236l705 944h-690v233h997v-233l-702 -944h723v-236h-1033z" />
<glyph unicode="[" horiz-adv-x="698" d="M121 -172v1690h485v-236h-231v-1219h231v-235h-485z" />
<glyph unicode="\" horiz-adv-x="911" d="M94 1423h213l512 -1443h-213z" />
<glyph unicode="]" horiz-adv-x="700" d="M94 63h232v1217h-232v233h486v-1685h-486v235z" />
<glyph unicode="^" horiz-adv-x="1083" d="M86 555l348 868h213l348 -868h-211l-243 623l-244 -623h-211z" />
<glyph unicode="_" horiz-adv-x="1153" d="M0 -82h1153v-166h-1153v166z" />
<glyph unicode="`" horiz-adv-x="1024" d="M96 1477h330l270 -273h-239z" />
<glyph unicode="a" horiz-adv-x="1132" d="M76 317q0 152 105 232q106 80 304 80h285v63q0 191 -225 191q-103 0 -149 -37t-46 -94v-7h-241v7q0 152 119 238q120 87 323 87q227 0 349 -102t122 -295v-680h-246v98q-62 -59 -135 -85q-71 -25 -174 -25q-192 0 -292 86q-99 86 -99 243zM322 324q0 -64 50 -99t150 -35 q248 0 248 199v66h-238q-107 0 -159 -32q-51 -31 -51 -99z" />
<glyph unicode="b" horiz-adv-x="1169" d="M111 0v1413h254v-469q51 66 127 103q73 36 170 36q191 0 303 -122t112 -355v-133q0 -154 -54 -265q-54 -112 -149 -169q-94 -57 -215 -57q-190 0 -301 127v-109h-247zM365 463q0 -116 63 -185t172 -69t166 69t57 205v111q0 264 -227 264q-109 0 -170 -68t-61 -192v-135z " />
<glyph unicode="c" horiz-adv-x="1144" d="M94 471v127q0 236 129 361q128 124 357 124q225 0 348 -104q125 -105 125 -289v-12h-248v8q0 79 -59 126q-58 46 -160 46q-119 0 -179 -63q-61 -64 -61 -201v-121q0 -138 62 -202q61 -62 184 -62q96 0 154 44q57 43 57 120v8h248v-8q0 -182 -125 -287 q-123 -104 -346 -104q-229 0 -357 124q-129 124 -129 365z" />
<glyph unicode="d" horiz-adv-x="1169" d="M94 467v133q0 155 52 262q52 108 146 165q91 56 214 56q189 0 301 -133v463h252v-1413h-248v115q-105 -133 -301 -133q-188 0 -302 124q-114 125 -114 361zM348 477q0 -135 58 -202q57 -66 161 -66q111 0 175 67q65 68 65 187v135q0 122 -62 192q-61 68 -172 68 q-107 0 -166 -66q-59 -67 -59 -204v-111z" />
<glyph unicode="e" horiz-adv-x="1169" d="M94 487v93q0 242 131 373q130 130 361 130q230 0 360 -129q131 -129 131 -368v-123h-731v-4q0 -256 262 -256q88 0 145 33t64 92l2 6h248v-12q-11 -154 -136 -247q-126 -93 -333 -93q-237 0 -370 129q-134 129 -134 376zM346 637h477v14q0 107 -64 161t-173 54 q-225 0 -240 -229z" />
<glyph unicode="f" horiz-adv-x="753" d="M74 887v178h143v43q0 151 80 228t235 77h166v-172h-94q-73 0 -104 -29t-31 -94v-53h229v-178h-229v-887h-252v887h-143z" />
<glyph unicode="g" horiz-adv-x="1169" d="M94 535v81q0 222 114 345q113 122 298 122q186 0 303 -133v115h250v-967q0 -202 -132 -318q-133 -116 -368 -116q-199 0 -317 80q-117 79 -123 233h243q15 -52 67 -82t142 -30q238 0 238 217v111q-102 -134 -299 -134q-188 0 -302 123t-114 353zM348 545q0 -131 56 -194 q57 -64 163 -64q111 0 175 65q65 67 65 178v84q0 112 -64 179q-62 65 -172 65q-106 0 -164 -62q-59 -64 -59 -192v-59z" />
<glyph unicode="h" horiz-adv-x="1171" d="M111 0v1413h254v-461q57 63 135 94t172 31q184 0 286 -108q103 -109 103 -305v-664h-254v612q0 240 -211 240q-109 0 -170 -62t-61 -188v-602h-254z" />
<glyph unicode="i" horiz-adv-x="493" d="M121 0v1065h252v-1065h-252zM121 1217v202h252v-202h-252z" />
<glyph unicode="j" horiz-adv-x="493" d="M-123 -100h96q85 0 116 30q32 30 32 111v1024h252v-1040q0 -177 -88 -261q-87 -83 -275 -83h-133v219zM121 1217v202h252v-202h-252z" />
<glyph unicode="k" horiz-adv-x="1181" d="M111 0v1413h254v-799l432 451h325l-428 -416l459 -649h-322l-315 477l-151 -147v-330h-254z" />
<glyph unicode="l" horiz-adv-x="643" d="M111 344v1069h254v-1053q0 -78 31 -109q32 -32 114 -32h96v-219h-141q-181 0 -267 85q-87 85 -87 259z" />
<glyph unicode="m" horiz-adv-x="1835" d="M111 0v1065h247v-115q54 60 136 94q80 33 165 33q97 0 177 -36q82 -37 133 -107q134 143 342 143q197 0 305 -109t108 -304v-664h-254v612q0 121 -52 180q-52 60 -152 60q-104 0 -163 -65t-59 -181v-606h-253v623q0 114 -53 172q-52 57 -150 57q-106 0 -165 -65 q-58 -64 -58 -185v-602h-254z" />
<glyph unicode="n" horiz-adv-x="1171" d="M111 0v1065h247v-115q56 60 139 94q81 33 175 33q184 0 286 -109q103 -111 103 -304v-664h-254v612q0 240 -211 240q-109 0 -170 -62t-61 -188v-602h-254z" />
<glyph unicode="o" horiz-adv-x="1153" d="M94 471v127q0 236 129 361q128 124 357 124q225 0 353 -125t128 -360v-127q0 -240 -128 -365q-127 -124 -353 -124q-229 0 -357 124q-129 124 -129 365zM346 473q0 -264 234 -264q229 0 229 264v121q0 137 -59 200q-60 64 -170 64q-234 0 -234 -264v-121z" />
<glyph unicode="p" horiz-adv-x="1169" d="M111 -319v1384h247v-121q118 139 304 139q191 0 303 -122t112 -355v-133q0 -154 -54 -265q-54 -112 -149 -169q-94 -57 -215 -57q-189 0 -294 127v-428h-254zM365 463q0 -116 63 -185t172 -69t166 69t57 205v111q0 264 -227 264q-109 0 -170 -68t-61 -192v-135z" />
<glyph unicode="q" horiz-adv-x="1169" d="M94 467v133q0 227 115 356q114 127 301 127q183 0 301 -133v115h248v-1384h-252v434q-102 -133 -297 -133q-188 0 -302 124q-114 125 -114 361zM348 477q0 -135 58 -202q57 -66 161 -66q111 0 175 67q65 68 65 187v135q0 122 -62 192q-61 68 -172 68q-107 0 -166 -66 q-59 -67 -59 -204v-111z" />
<glyph unicode="r" horiz-adv-x="806" d="M111 0v1065h247v-121q52 71 135 108q79 35 177 35q57 0 100 -8v-241q-66 26 -152 26q-121 0 -187 -70t-66 -204v-590h-254z" />
<glyph unicode="s" horiz-adv-x="1077" d="M76 328v6h237v-4q0 -64 60 -101q58 -36 176 -36q108 0 165 30q56 29 56 90q0 49 -40 76q-40 26 -130 37l-158 18q-177 22 -265 96q-85 72 -85 208q0 157 119 243t326 86q211 0 333 -86q121 -85 121 -237v-9h-235v7q0 61 -56 94t-165 33q-105 0 -155 -30t-50 -85 q0 -45 35 -72q35 -28 116 -35l170 -20q185 -21 273 -97t88 -210q0 -165 -128 -254q-127 -88 -349 -88q-216 0 -338 89q-121 88 -121 251z" />
<glyph unicode="t" horiz-adv-x="808" d="M51 887v178h187v209l251 88v-297h242v-178h-242v-543q0 -69 30 -99t99 -30h91v-215h-138q-162 0 -247 85q-86 86 -86 243v559h-187z" />
<glyph unicode="u" horiz-adv-x="1171" d="M111 446v619h254v-606q0 -125 52 -187q53 -63 169 -63q120 0 170 62q51 63 51 188v606h254v-619q0 -231 -120 -348q-119 -116 -355 -116q-238 0 -356 117q-119 118 -119 347z" />
<glyph unicode="v" horiz-adv-x="1103" d="M18 1065h275l260 -723l258 723h274l-430 -1065h-209z" />
<glyph unicode="w" horiz-adv-x="1691" d="M18 1065h269l215 -713l248 713h190l252 -713l211 713h270l-366 -1065h-215l-246 721l-248 -721h-215z" />
<glyph unicode="x" horiz-adv-x="1052" d="M18 0l369 549l-348 516h278l218 -324l202 324h277l-355 -510l375 -555h-276l-240 356l-221 -356h-279z" />
<glyph unicode="y" horiz-adv-x="1105" d="M18 1065h275l276 -713l254 713h264l-452 -1157q-45 -118 -133 -170q-89 -53 -230 -53h-98v227h111q73 0 107 19q32 18 54 73l7 19z" />
<glyph unicode="z" horiz-adv-x="1026" d="M94 0v213l547 639h-547v213h840v-213l-549 -639h549v-213h-840z" />
<glyph unicode="{" horiz-adv-x="819" d="M94 567v217q103 0 144 38t41 126v307q0 261 286 261h162v-205h-82q-69 0 -98 -23t-29 -78v-274q0 -114 -33 -173t-110 -87q77 -28 110 -87t33 -173v-283q0 -55 29 -78q28 -22 98 -22h82v-205h-162q-286 0 -286 262v313q0 88 -41 126t-144 38z" />
<glyph unicode="|" horiz-adv-x="606" d="M186 -172v1688h236v-1688h-236z" />
<glyph unicode="}" horiz-adv-x="819" d="M94 33h80q70 0 99 23q30 24 30 77v283q0 114 33 173t110 87q-77 28 -110 87q-33 58 -33 173v274q0 55 -29 78t-100 23h-80v205h162q285 0 285 -261v-307q0 -86 41 -125q40 -39 145 -39v-217q-105 0 -145 -39q-41 -39 -41 -125v-313q0 -262 -285 -262h-162v205z" />
<glyph unicode="~" horiz-adv-x="1083" d="M80 502q51 111 125 166q77 57 168 57q54 0 96 -16q40 -15 100 -50q43 -23 74 -36t59 -13q46 0 77 27q34 30 63 88l164 -100q-46 -108 -124 -167q-77 -59 -171 -59q-54 0 -98 18q-49 20 -99 50q-42 23 -76 38q-25 11 -55 11q-43 0 -75 -27q-31 -27 -64 -88z" />
<glyph unicode="&#xa1;" horiz-adv-x="509" d="M111 -319l49 913h190l49 -913h-288zM119 797v268h272v-268h-272z" />
<glyph unicode="&#xa2;" horiz-adv-x="1144" d="M94 471v127q0 219 111 342t307 141v185h147v-187q187 -18 290 -120q104 -102 104 -269v-12h-248v8q0 79 -59 126q-58 46 -160 46q-119 0 -179 -63q-61 -64 -61 -201v-121q0 -138 62 -202q61 -62 184 -62q96 0 154 44q57 43 57 120v8h248v-8q0 -166 -104 -268 q-102 -101 -288 -119v-191h-147v189q-199 18 -308 142q-110 125 -110 345z" />
<glyph unicode="&#xa3;" horiz-adv-x="1060" d="M57 565v234h144v229q0 192 108 299q109 107 307 107q185 0 293 -93q107 -92 107 -258h-250q0 61 -37 92t-108 31q-73 0 -113 -38q-39 -38 -39 -109v-260h332v-234h-332v-127q0 -73 -17 -120q-18 -50 -55 -87h619v-231h-918v221q55 22 79 66q24 43 24 125v153h-144z" />
<glyph unicode="&#xa4;" horiz-adv-x="1218" d="M111 303l135 135q-53 91 -53 209q0 111 55 209l-137 137l149 150l135 -135q98 55 213 55t213 -55l137 135l148 -150l-135 -137q55 -98 55 -209q0 -116 -53 -211l135 -135l-150 -149l-135 135q-98 -58 -215 -58t-215 58l-133 -133zM399 647q0 -91 60 -154t149 -63 q92 0 152 63q59 62 59 154q0 94 -59 154q-60 61 -152 61q-89 0 -149 -61t-60 -154z" />
<glyph unicode="&#xa5;" horiz-adv-x="1142" d="M14 1413h291l273 -567l260 567h290l-378 -700h270v-181h-315v-112h315v-180h-315v-240h-267v240h-315v180h315v112h-315v181h270z" />
<glyph unicode="&#xa6;" horiz-adv-x="606" d="M186 -172v725h236v-725h-236zM186 795v721h236v-721h-236z" />
<glyph unicode="&#xa7;" horiz-adv-x="1146" d="M121 559q0 114 52 194q52 81 149 126q-150 79 -150 258q0 96 51 171q49 73 144 116q92 42 215 42q195 0 299 -94t104 -256h-229q0 67 -44 105q-42 36 -132 36q-78 0 -121 -31t-43 -91q0 -72 60 -108q58 -35 212 -73q338 -86 338 -379q0 -116 -55 -198t-148 -123 q87 -44 122 -109q36 -66 36 -157q0 -152 -114 -242t-302 -90q-195 0 -304 92q-107 91 -107 260h231q0 -69 46 -106t136 -37q83 0 126 33q44 33 44 92q0 73 -63 112q-64 40 -213 74q-340 85 -340 383zM367 565q0 -86 53 -133t155 -47q100 0 153 47q52 46 52 133q0 88 -52 134 t-153 46q-103 0 -155 -46q-53 -47 -53 -134z" />
<glyph unicode="&#xa8;" horiz-adv-x="1024" d="M168 1202v238h219v-238h-219zM637 1202v238h219v-238h-219z" />
<glyph unicode="&#xa9;" horiz-adv-x="1605" d="M113 700q0 214 86 378t244 252q160 89 370 89q211 0 370 -90t244 -253q86 -164 86 -376q0 -211 -86 -375q-85 -163 -244 -253t-370 -90t-370 90t-244 253q-86 164 -86 375zM279 700q0 -261 142 -410q143 -151 392 -151t392 151t143 410q0 260 -143 412t-392 152 t-392 -152q-142 -151 -142 -412zM475 655v90q0 173 91 263q92 90 247 90t243 -76q89 -77 89 -207v-10h-178v6q0 57 -40 90q-41 33 -108 33q-81 0 -121 -45q-41 -46 -41 -146v-88q0 -100 42 -145t124 -45q65 0 105 32q39 31 39 87v6h178v-6q0 -131 -89 -206q-88 -75 -243 -75 t-247 90q-91 90 -91 262z" />
<glyph unicode="&#xaa;" horiz-adv-x="772" d="M74 1079q0 94 65 141q66 48 195 48h166v22q0 55 -31 81t-96 26q-56 0 -84 -20q-27 -19 -27 -48v-4h-168v4q0 93 72 148q71 55 209 55q307 0 307 -254v-397h-176v61q-38 -36 -82 -53q-45 -17 -107 -17q-116 0 -180 56q-63 56 -63 151zM250 1085q0 -32 28 -51 q27 -18 80 -18q142 0 142 114v19h-144q-106 0 -106 -64z" />
<glyph unicode="&#xab;" horiz-adv-x="1191" d="M37 541l522 465v-256l-237 -209l237 -209v-256zM559 541l522 465v-256l-239 -209l239 -209v-256z" />
<glyph unicode="&#xac;" horiz-adv-x="1083" d="M102 520v228h877v-502h-252v274h-625z" />
<glyph unicode="&#xad;" horiz-adv-x="819" d="M94 590v235h633v-235h-633z" />
<glyph unicode="&#xae;" horiz-adv-x="1013" d="M121 1024q0 111 50 200t138 140q89 51 197 51q110 0 199 -51t138 -141q50 -91 50 -199q0 -110 -50 -201q-49 -90 -138 -141t-199 -51q-111 0 -198 51q-88 51 -137 141q-50 91 -50 201zM207 1024q0 -137 84 -224t215 -87q134 0 216 87q83 88 83 224q0 138 -84 223 q-84 86 -215 86t-215 -86q-84 -85 -84 -223zM348 809v434h180q76 0 117 -35t41 -100q0 -86 -76 -123l86 -176h-114l-76 160h-51v-160h-107zM455 1059h67q58 0 58 47t-58 47h-67v-94z" />
<glyph unicode="&#xaf;" horiz-adv-x="1024" d="M186 1208v226h652v-226h-652z" />
<glyph unicode="&#xb0;" horiz-adv-x="806" d="M113 1135q0 83 39 152q39 68 108 109q68 40 154 40q84 0 152 -40q69 -40 109 -109q40 -68 40 -152q0 -86 -40 -154q-42 -71 -109 -109t-152 -38q-129 0 -215 86t-86 215zM272 1135q0 -67 39 -107q39 -41 103 -41q60 0 101 42q40 41 40 106q0 64 -40 105q-41 42 -101 42 q-64 0 -103 -41t-39 -106z" />
<glyph unicode="&#xb1;" horiz-adv-x="1083" d="M98 -74v234h887v-234h-887zM98 575v234h328v328h233v-328h326v-234h-326v-327h-233v327h-328z" />
<glyph unicode="&#xb2;" horiz-adv-x="798" d="M94 1483v18q0 117 80 185q79 67 225 67q140 0 224 -70q82 -69 82 -180v-16q0 -73 -32 -129t-110 -125l-164 -170h306v-182h-603v163l316 318q37 33 55 62q16 26 16 57v12q0 84 -96 84q-46 0 -71 -22t-25 -60v-12h-203z" />
<glyph unicode="&#xb3;" horiz-adv-x="786" d="M88 1112v16h191v-12q0 -78 108 -78q50 0 78 23q27 23 27 63v15q0 94 -123 94h-50v174h48q110 0 110 80v14q0 80 -96 80q-100 0 -100 -76v-14h-189v12q0 124 77 187t220 63q135 0 213 -63t78 -172v-15q0 -53 -30 -97q-31 -46 -87 -69q66 -17 99 -68q34 -52 34 -126v-17 q0 -118 -84 -189q-85 -71 -221 -71q-149 0 -226 63t-77 183z" />
<glyph unicode="&#xb4;" horiz-adv-x="1024" d="M260 1204l221 273h281l-283 -273h-219z" />
<glyph unicode="&#xb5;" horiz-adv-x="1171" d="M111 -319v1384h254v-612q0 -121 54 -181q53 -59 156 -59q106 0 169 63t63 187v602h254v-1065h-248v115q-37 -57 -112 -93q-71 -34 -158 -34q-101 0 -178 41v-348h-254z" />
<glyph unicode="&#xb6;" horiz-adv-x="1429" d="M121 977q0 208 130 322q131 114 361 114h635v-1732h-223v1527h-176v-1527h-225v858h-5q-236 0 -367 114q-130 114 -130 324z" />
<glyph unicode="&#xb7;" horiz-adv-x="440" d="M78 426v291h284v-291h-284z" />
<glyph unicode="&#xb8;" horiz-adv-x="1024" d="M293 -319l178 346h207l-141 -346h-244z" />
<glyph unicode="&#xb9;" horiz-adv-x="583" d="M63 1419v217l183 103h211v-858h-211v639z" />
<glyph unicode="&#xba;" horiz-adv-x="774" d="M78 1174v65q0 141 82 217t227 76t227 -76t82 -217v-65q0 -146 -83 -224t-226 -78q-146 0 -228 77q-81 77 -81 225zM260 1176q0 -69 34 -104q35 -36 93 -36q59 0 93 36q34 35 34 104v63q0 63 -34 96t-93 33t-93 -33t-34 -96v-63z" />
<glyph unicode="&#xbb;" horiz-adv-x="1191" d="M111 76v256l239 209l-239 209v256l522 -465zM633 76v256l237 209l-237 209v256l522 -465z" />
<glyph unicode="&#xbc;" horiz-adv-x="1759" d="M63 1094v217l183 102h211v-858h-211v639zM252 0l907 1423h209l-909 -1423h-207zM1028 117v182l275 559h215l-275 -559h184v180h211v-180h62v-182h-62v-117h-211v117h-399z" />
<glyph unicode="&#xbd;" horiz-adv-x="1806" d="M63 1094v217l183 102h211v-858h-211v639zM252 0l907 1423h209l-909 -1423h-207zM1102 602v19q0 116 80 184q79 67 225 67q141 0 223 -69t82 -180v-17q0 -73 -32 -129q-33 -57 -109 -125l-164 -170h305v-182h-602v164l315 317q38 34 56 63q16 26 16 56v12q0 84 -96 84 q-48 0 -72 -21t-24 -61v-12h-203z" />
<glyph unicode="&#xbe;" horiz-adv-x="1949" d="M88 786v17h191v-12q0 -78 108 -78q52 0 78 22q27 23 27 64v14q0 94 -123 94h-50v174h48q110 0 110 80v15q0 79 -96 79q-100 0 -100 -75v-15h-189v13q0 123 77 186t220 63q135 0 213 -63t78 -172v-14q0 -54 -30 -99q-30 -44 -87 -67q65 -17 99 -69t34 -126v-16 q0 -119 -84 -190q-83 -70 -221 -70q-151 0 -226 62q-77 63 -77 183zM442 0l908 1423h209l-910 -1423h-207zM1219 117v182l274 559h215l-274 -559h184v180h211v-180h61v-182h-61v-117h-211v117h-399z" />
<glyph unicode="&#xbf;" horiz-adv-x="1024" d="M70 25q0 83 30 158q29 74 109 147l102 96q56 52 74 93q18 42 18 112v35h254v-66q0 -102 -24 -161t-101 -128l-98 -92q-59 -52 -80 -91q-22 -40 -22 -87q0 -74 50 -113t146 -39q98 0 145 41q47 40 48 123h248q-7 -393 -445 -393q-213 0 -334 97q-120 96 -120 268zM395 803 v262h269v-262h-269z" />
<glyph unicode="&#xc0;" horiz-adv-x="1394" d="M8 0l580 1413h219l579 -1413h-286l-103 274h-600l-102 -274h-287zM328 1825h305l246 -273h-230zM481 498h432l-217 575z" />
<glyph unicode="&#xc1;" horiz-adv-x="1394" d="M8 0l580 1413h219l579 -1413h-286l-103 274h-600l-102 -274h-287zM446 1552l246 273h305l-321 -273h-230zM481 498h432l-217 575z" />
<glyph unicode="&#xc2;" horiz-adv-x="1394" d="M8 0l580 1413h219l579 -1413h-286l-103 274h-600l-102 -274h-287zM328 1530l276 309h187l276 -309h-213l-156 164l-157 -164h-213zM481 498h432l-217 575z" />
<glyph unicode="&#xc3;" horiz-adv-x="1394" d="M8 0l580 1413h219l579 -1413h-286l-103 274h-600l-102 -274h-287zM371 1540v186q52 49 91 67q41 19 97 19q47 0 80 -10q45 -14 80 -30q48 -21 69 -28q29 -9 64 -9q45 0 78 17q31 16 94 65v-189q-50 -47 -91 -66q-43 -20 -95 -20q-48 0 -80 11q-48 17 -82 32q-2 0 -6 2 t-12 5t-15 6q-30 13 -50 17q-27 5 -46 5q-45 0 -80 -17q-33 -16 -96 -63zM481 498h432l-217 575z" />
<glyph unicode="&#xc4;" horiz-adv-x="1394" d="M8 0l580 1413h219l579 -1413h-286l-103 274h-600l-102 -274h-287zM352 1550v238h219v-238h-219zM481 498h432l-217 575zM823 1550v238h219v-238h-219z" />
<glyph unicode="&#xc5;" horiz-adv-x="1394" d="M8 0l580 1411q-46 28 -74 76q-27 47 -27 106q0 92 61 153q60 60 150 60q91 0 151 -60t60 -153q0 -59 -27 -107q-26 -47 -75 -75l579 -1411h-286l-103 274h-600l-102 -274h-287zM481 498h432l-217 575zM604 1593q0 -39 28 -69q27 -29 66 -29q42 0 69 29q28 30 28 69 q0 42 -28 72q-27 29 -69 29q-40 0 -67 -29t-27 -72z" />
<glyph unicode="&#xc6;" horiz-adv-x="2037" d="M8 0l817 1413h1141v-233h-731v-351h627v-233h-627v-363h731v-233h-1001v289h-498l-160 -289h-299zM590 512h375v676z" />
<glyph unicode="&#xc7;" d="M113 598v221q0 309 159 465t445 156q260 0 415 -128q154 -127 154 -356v-16h-268v8q0 119 -80 188q-78 68 -221 68q-169 0 -251 -98q-83 -100 -83 -301v-203q0 -194 84 -289q84 -94 252 -94q139 0 220 67q79 66 79 183v10h266v-10q0 -201 -116 -326t-318 -155l-125 -307 h-244l154 301q-249 21 -385 175q-137 155 -137 441z" />
<glyph unicode="&#xc8;" horiz-adv-x="1202" d="M121 0v1413h1009v-233h-741v-351h637v-233h-637v-363h741v-233h-1009zM246 1825h305l246 -273h-230z" />
<glyph unicode="&#xc9;" horiz-adv-x="1202" d="M121 0v1413h1009v-233h-741v-351h637v-233h-637v-363h741v-233h-1009zM442 1552l246 273h305l-321 -273h-230z" />
<glyph unicode="&#xca;" horiz-adv-x="1202" d="M121 0v1413h1009v-233h-741v-351h637v-233h-637v-363h741v-233h-1009zM246 1530l276 309h187l276 -309h-213l-156 164l-157 -164h-213z" />
<glyph unicode="&#xcb;" horiz-adv-x="1202" d="M121 0v1413h1009v-233h-741v-351h637v-233h-637v-363h741v-233h-1009zM270 1550v238h219v-238h-219zM741 1550v238h220v-238h-220z" />
<glyph unicode="&#xcc;" horiz-adv-x="534" d="M-104 1825h305l245 -273h-229zM133 0v1413h268v-1413h-268z" />
<glyph unicode="&#xcd;" horiz-adv-x="534" d="M92 1552l246 273h305l-321 -273h-230zM133 0v1413h268v-1413h-268z" />
<glyph unicode="&#xce;" horiz-adv-x="534" d="M-104 1530l276 309h186l277 -309h-213l-156 164l-157 -164h-213zM133 0v1413h268v-1413h-268z" />
<glyph unicode="&#xcf;" horiz-adv-x="534" d="M-80 1550v238h219v-238h-219zM133 0v1413h268v-1413h-268zM391 1550v238h219v-238h-219z" />
<glyph unicode="&#xd0;" horiz-adv-x="1421" d="M55 602v236h131v575h551q284 0 438 -151t154 -467v-174q0 -315 -158 -468q-157 -153 -444 -153h-541v602h-131zM455 233h280q166 0 246 94t80 294v159q0 209 -80 304q-81 96 -246 96h-280v-342h321v-236h-321v-369z" />
<glyph unicode="&#xd1;" horiz-adv-x="1431" d="M121 0v1413h268l653 -938v938h269v-1413h-269l-653 936v-936h-268zM389 1540v186q52 49 91 67q41 19 98 19q46 0 79 -10q45 -14 80 -30q46 -20 70 -28q29 -9 63 -9q45 0 78 17q31 16 94 65v-189q-50 -47 -91 -66q-43 -20 -95 -20q-48 0 -80 11q-48 17 -82 32q-2 0 -6 2 t-11.5 5t-14.5 6q-29 13 -51 17q-27 5 -46 5q-45 0 -80 -17q-33 -16 -96 -63z" />
<glyph unicode="&#xd2;" d="M113 598v221q0 309 156 465t433 156q272 0 428 -156t156 -465v-221q0 -308 -159 -464q-160 -157 -433 -157q-275 0 -428 156t-153 465zM330 1825h305l246 -273h-230zM383 602q0 -195 79 -289t240 -94q316 0 316 383v203q0 399 -316 399q-161 0 -240 -98t-79 -301v-203z " />
<glyph unicode="&#xd3;" d="M113 598v221q0 309 156 465t433 156q272 0 428 -156t156 -465v-221q0 -308 -159 -464q-160 -157 -433 -157q-275 0 -428 156t-153 465zM383 602q0 -195 79 -289t240 -94q316 0 316 383v203q0 399 -316 399q-161 0 -240 -98t-79 -301v-203zM440 1552l246 273h305 l-321 -273h-230z" />
<glyph unicode="&#xd4;" d="M113 598v221q0 309 156 465t433 156q272 0 428 -156t156 -465v-221q0 -308 -159 -464q-160 -157 -433 -157q-275 0 -428 156t-153 465zM330 1530l276 309h187l276 -309h-213l-156 164l-157 -164h-213zM383 602q0 -195 79 -289t240 -94q316 0 316 383v203q0 399 -316 399 q-161 0 -240 -98t-79 -301v-203z" />
<glyph unicode="&#xd5;" d="M113 598v221q0 309 156 465t433 156q272 0 428 -156t156 -465v-221q0 -308 -159 -464q-160 -157 -433 -157q-275 0 -428 156t-153 465zM373 1540v186q52 49 91 67q41 19 97 19q47 0 80 -10q45 -14 80 -30q46 -20 70 -28q29 -9 63 -9q45 0 78 17q31 16 94 65v-189 q-50 -47 -91 -66q-43 -20 -95 -20q-48 0 -80 11q-48 17 -82 32q-2 0 -6 2t-12 5t-15 6q-30 13 -50 17q-27 5 -46 5q-45 0 -80 -17q-33 -16 -96 -63zM383 602q0 -195 79 -289t240 -94q316 0 316 383v203q0 399 -316 399q-161 0 -240 -98t-79 -301v-203z" />
<glyph unicode="&#xd6;" d="M113 598v221q0 309 156 465t433 156q272 0 428 -156t156 -465v-221q0 -308 -159 -464q-160 -157 -433 -157q-275 0 -428 156t-153 465zM354 1550v238h219v-238h-219zM383 602q0 -195 79 -289t240 -94q316 0 316 383v203q0 399 -316 399q-161 0 -240 -98t-79 -301v-203z M825 1550v238h219v-238h-219z" />
<glyph unicode="&#xd7;" horiz-adv-x="1083" d="M141 322l244 243l-244 246l156 156l246 -244l243 244l156 -158l-244 -244l244 -243l-156 -158l-243 246l-246 -246z" />
<glyph unicode="&#xd8;" d="M113 -41l133 201q-131 160 -131 438v221q0 309 156 465t434 156q199 0 335 -82l72 106h164l-129 -194q141 -159 141 -451v-221q0 -308 -159 -464q-160 -157 -433 -157q-207 0 -344 89l-71 -107h-168zM385 602q0 -114 27 -192l489 735q-72 59 -196 59q-162 0 -241 -98 t-79 -301v-203zM496 283q78 -64 209 -64q315 0 315 383v203q0 128 -35 221z" />
<glyph unicode="&#xd9;" horiz-adv-x="1384" d="M121 508v905h268v-897q0 -142 78 -219q77 -76 223 -76t225 76q80 77 80 219v897h269v-905q0 -157 -71 -276q-70 -118 -201 -181q-130 -63 -302 -63q-170 0 -299 63q-130 64 -200 181q-70 118 -70 276zM322 1825h305l245 -273h-229z" />
<glyph unicode="&#xda;" horiz-adv-x="1384" d="M121 508v905h268v-897q0 -142 78 -219q77 -76 223 -76t225 76q80 77 80 219v897h269v-905q0 -157 -71 -276q-70 -118 -201 -181q-130 -63 -302 -63q-170 0 -299 63q-130 64 -200 181q-70 118 -70 276zM518 1552l246 273h305l-321 -273h-230z" />
<glyph unicode="&#xdb;" horiz-adv-x="1384" d="M121 508v905h268v-897q0 -142 78 -219q77 -76 223 -76t225 76q80 77 80 219v897h269v-905q0 -157 -71 -276q-70 -118 -201 -181q-130 -63 -302 -63q-170 0 -299 63q-130 64 -200 181q-70 118 -70 276zM322 1530l276 309h186l277 -309h-213l-156 164l-157 -164h-213z" />
<glyph unicode="&#xdc;" horiz-adv-x="1384" d="M121 508v905h268v-897q0 -142 78 -219q77 -76 223 -76t225 76q80 77 80 219v897h269v-905q0 -157 -71 -276q-70 -118 -201 -181q-130 -63 -302 -63q-170 0 -299 63q-130 64 -200 181q-70 118 -70 276zM346 1550v238h219v-238h-219zM817 1550v238h219v-238h-219z" />
<glyph unicode="&#xdd;" horiz-adv-x="1245" d="M8 1413h303l312 -592l311 592h303l-479 -829v-584h-269v582zM449 1552l245 273h305l-321 -273h-229z" />
<glyph unicode="&#xde;" horiz-adv-x="1286" d="M121 0v1413h268v-233h342q239 0 372 -114q134 -114 134 -329q0 -204 -134 -318q-133 -114 -382 -114h-332v-305h-268zM389 539h352q228 0 228 200q0 105 -60 156t-168 51h-352v-407z" />
<glyph unicode="&#xdf;" horiz-adv-x="1181" d="M111 0v999q0 220 117 327q118 108 370 108q228 0 349 -87q122 -87 122 -251q0 -87 -34 -145t-107 -95q92 -45 127 -131q35 -87 35 -254q0 -178 -40 -280q-41 -104 -131 -151q-91 -48 -253 -48h-95v213h74q81 0 121 25q41 26 56 82q16 61 16 159q0 103 -18 160 q-18 58 -63 84t-132 26h-54v211h72q174 0 174 129q0 70 -53 103t-164 33q-123 0 -180 -46q-55 -45 -55 -149v-1022h-254z" />
<glyph unicode="&#xe0;" horiz-adv-x="1132" d="M76 317q0 152 105 232q106 80 304 80h285v63q0 191 -225 191q-103 0 -149 -37t-46 -94v-7h-241v7q0 152 119 238q120 87 323 87q227 0 349 -102t122 -295v-680h-246v98q-62 -59 -135 -85q-71 -25 -174 -25q-192 0 -292 86q-99 86 -99 243zM178 1477h305l246 -273h-229z M322 324q0 -64 50 -99t150 -35q248 0 248 199v66h-238q-107 0 -159 -32q-51 -31 -51 -99z" />
<glyph unicode="&#xe1;" horiz-adv-x="1132" d="M76 317q0 152 105 232q106 80 304 80h285v63q0 191 -225 191q-103 0 -149 -37t-46 -94v-7h-241v7q0 152 119 238q120 87 323 87q227 0 349 -102t122 -295v-680h-246v98q-62 -59 -135 -85q-71 -25 -174 -25q-192 0 -292 86q-99 86 -99 243zM322 324q0 -64 50 -99t150 -35 q248 0 248 199v66h-238q-107 0 -159 -32q-51 -31 -51 -99zM322 1204l245 273h305l-321 -273h-229z" />
<glyph unicode="&#xe2;" horiz-adv-x="1132" d="M76 317q0 152 105 232q106 80 304 80h285v63q0 191 -225 191q-103 0 -149 -37t-46 -94v-7h-241v7q0 152 119 238q120 87 323 87q227 0 349 -102t122 -295v-680h-246v98q-62 -59 -135 -85q-71 -25 -174 -25q-192 0 -292 86q-99 86 -99 243zM178 1182l277 309h186l277 -309 h-213l-156 164l-158 -164h-213zM322 324q0 -64 50 -99t150 -35q248 0 248 199v66h-238q-107 0 -159 -32q-51 -31 -51 -99z" />
<glyph unicode="&#xe3;" horiz-adv-x="1132" d="M76 317q0 152 105 232q106 80 304 80h285v63q0 191 -225 191q-103 0 -149 -37t-46 -94v-7h-241v7q0 152 119 238q120 87 323 87q227 0 349 -102t122 -295v-680h-246v98q-62 -59 -135 -85q-71 -25 -174 -25q-192 0 -292 86q-99 86 -99 243zM221 1192v186q52 49 91 67 q41 19 98 19q46 0 79 -10q39 -12 80 -31q38 -17 70 -27t63 -10q44 0 78 18q35 18 94 64v-188q-52 -49 -91 -67q-41 -19 -95 -19q-48 0 -80 11q-48 17 -82 32q-2 0 -6 2t-11.5 5t-14.5 6q-29 13 -51 17q-27 5 -46 5q-43 0 -80 -18t-96 -62zM322 324q0 -64 50 -99t150 -35 q248 0 248 199v66h-238q-107 0 -159 -32q-51 -31 -51 -99z" />
<glyph unicode="&#xe4;" horiz-adv-x="1132" d="M76 317q0 152 105 232q106 80 304 80h285v63q0 191 -225 191q-103 0 -149 -37t-46 -94v-7h-241v7q0 152 119 238q120 87 323 87q227 0 349 -102t122 -295v-680h-246v98q-62 -59 -135 -85q-71 -25 -174 -25q-192 0 -292 86q-99 86 -99 243zM203 1202v238h219v-238h-219z M322 324q0 -64 50 -99t150 -35q248 0 248 199v66h-238q-107 0 -159 -32q-51 -31 -51 -99zM674 1202v238h219v-238h-219z" />
<glyph unicode="&#xe5;" horiz-adv-x="1132" d="M76 317q0 152 105 232q106 80 304 80h285v63q0 191 -225 191q-103 0 -149 -37t-46 -94v-7h-241v7q0 152 119 238q120 87 323 87q227 0 349 -102t122 -295v-680h-246v98q-62 -59 -135 -85q-71 -25 -174 -25q-192 0 -292 86q-99 86 -99 243zM322 324q0 -64 50 -99t150 -35 q248 0 248 199v66h-238q-107 0 -159 -32q-51 -31 -51 -99zM338 1370q0 93 60 153t151 60q90 0 150 -60q61 -61 61 -153q0 -89 -61 -150t-150 -61q-90 0 -151 61q-60 60 -60 150zM455 1370q0 -42 27 -70t67 -28q41 0 68 28q28 30 28 70q0 42 -28 72q-27 28 -68 28t-68 -28 q-26 -27 -26 -72z" />
<glyph unicode="&#xe6;" horiz-adv-x="1843" d="M76 322q0 153 105 232q104 79 304 79h285v59q0 191 -225 191q-103 0 -149 -37t-46 -94v-7h-241v7q0 152 119 238q120 87 323 87q238 0 360 -116q132 122 351 122q228 0 358 -130q131 -131 131 -371v-123h-729q0 -256 260 -256q90 0 145 33q56 33 66 92l2 6h248l-2 -12 q-6 -97 -63 -175q-57 -79 -157 -121q-103 -44 -239 -44q-246 0 -385 145q-135 -145 -393 -145q-207 0 -317 91q-111 91 -111 249zM322 330q0 -140 200 -140q125 0 187 53q61 52 61 152v64h-238q-106 0 -159 -31q-51 -30 -51 -98zM1022 633h477v16q0 107 -64 162t-173 55 q-228 0 -240 -233z" />
<glyph unicode="&#xe7;" horiz-adv-x="1144" d="M94 471v127q0 236 129 361q128 124 357 124q225 0 348 -104q125 -105 125 -289v-12h-248v8q0 79 -59 126q-58 46 -160 46q-119 0 -179 -63q-61 -64 -61 -201v-121q0 -138 62 -202q61 -62 184 -62q96 0 154 44q57 43 57 120v8h248v-8q0 -150 -85 -248q-85 -99 -239 -129 l-129 -315h-244l156 305q-197 17 -306 140q-110 125 -110 345z" />
<glyph unicode="&#xe8;" horiz-adv-x="1169" d="M94 487v93q0 242 131 373q130 130 361 130q230 0 360 -129q131 -129 131 -368v-123h-731v-4q0 -256 262 -256q88 0 145 33t64 92l2 6h248v-12q-11 -154 -136 -247q-126 -93 -333 -93q-237 0 -370 129q-134 129 -134 376zM213 1477h305l246 -273h-229zM346 637h477v14 q0 107 -64 161t-173 54q-225 0 -240 -229z" />
<glyph unicode="&#xe9;" horiz-adv-x="1169" d="M94 487v93q0 242 131 373q130 130 361 130q230 0 360 -129q131 -129 131 -368v-123h-731v-4q0 -256 262 -256q88 0 145 33t64 92l2 6h248v-12q-11 -154 -136 -247q-126 -93 -333 -93q-237 0 -370 129q-134 129 -134 376zM346 637h477v14q0 107 -64 161t-173 54 q-225 0 -240 -229zM354 1204l246 273h305l-321 -273h-230z" />
<glyph unicode="&#xea;" horiz-adv-x="1169" d="M94 487v93q0 242 131 373q130 130 361 130q230 0 360 -129q131 -129 131 -368v-123h-731v-4q0 -256 262 -256q88 0 145 33t64 92l2 6h248v-12q-11 -154 -136 -247q-126 -93 -333 -93q-237 0 -370 129q-134 129 -134 376zM213 1182l276 309h187l276 -309h-213l-155 164 l-158 -164h-213zM346 637h477v14q0 107 -64 161t-173 54q-225 0 -240 -229z" />
<glyph unicode="&#xeb;" horiz-adv-x="1169" d="M94 487v93q0 242 131 373q130 130 361 130q230 0 360 -129q131 -129 131 -368v-123h-731v-4q0 -256 262 -256q88 0 145 33t64 92l2 6h248v-12q-11 -154 -136 -247q-126 -93 -333 -93q-237 0 -370 129q-134 129 -134 376zM238 1202v238h219v-238h-219zM346 637h477v14 q0 107 -64 161t-173 54q-225 0 -240 -229zM709 1202v238h219v-238h-219z" />
<glyph unicode="&#xec;" horiz-adv-x="493" d="M-125 1477h305l246 -273h-229zM121 0v1065h252v-1065h-252z" />
<glyph unicode="&#xed;" horiz-adv-x="493" d="M72 1204l245 273h306l-322 -273h-229zM121 0v1065h252v-1065h-252z" />
<glyph unicode="&#xee;" horiz-adv-x="493" d="M-125 1182l277 309h186l276 -309h-213l-155 164l-158 -164h-213zM121 0v1065h252v-1065h-252z" />
<glyph unicode="&#xef;" horiz-adv-x="493" d="M-100 1202v238h219v-238h-219zM121 0v1065h252v-1065h-252zM371 1202v238h219v-238h-219z" />
<glyph unicode="&#xf0;" horiz-adv-x="1150" d="M94 446v56q0 201 110 326q109 124 294 124q102 0 170 -30l-148 182l-250 -70l-51 162l187 51l-144 176h277l94 -114l235 63l50 -160l-168 -47l77 -94q122 -153 177 -281q55 -129 55 -278v-51q0 -226 -130 -355q-131 -129 -354 -129q-226 0 -354 125q-127 124 -127 344z M330 455q0 -121 63 -189q63 -67 185 -67q118 0 181 67q62 66 62 189v49q0 112 -63 178t-180 66q-121 0 -185 -64q-63 -63 -63 -178v-51z" />
<glyph unicode="&#xf1;" horiz-adv-x="1171" d="M111 0v1065h247v-115q56 60 139 94q81 33 175 33q184 0 286 -109q103 -111 103 -304v-664h-254v612q0 240 -211 240q-109 0 -170 -62t-61 -188v-602h-254zM258 1192v186q52 49 91 67q41 19 97 19q47 0 80 -10q39 -12 80 -31q38 -17 70 -27t63 -10q43 0 78 18t94 64v-188 q-52 -49 -91 -67q-41 -19 -95 -19q-48 0 -80 11q-48 17 -82 32q-2 0 -6 2t-12 5t-15 6q-30 13 -50 17q-27 5 -46 5q-42 0 -80 -18q-37 -18 -96 -62z" />
<glyph unicode="&#xf2;" horiz-adv-x="1153" d="M94 471v127q0 236 129 361q128 124 357 124q225 0 353 -125t128 -360v-127q0 -240 -128 -365q-127 -124 -353 -124q-229 0 -357 124q-129 124 -129 365zM209 1477h305l246 -273h-230zM346 473q0 -264 234 -264q229 0 229 264v121q0 137 -59 200q-60 64 -170 64 q-234 0 -234 -264v-121z" />
<glyph unicode="&#xf3;" horiz-adv-x="1153" d="M94 471v127q0 236 129 361q128 124 357 124q225 0 353 -125t128 -360v-127q0 -240 -128 -365q-127 -124 -353 -124q-229 0 -357 124q-129 124 -129 365zM346 473q0 -264 234 -264q229 0 229 264v121q0 137 -59 200q-60 64 -170 64q-234 0 -234 -264v-121zM350 1204 l246 273h305l-321 -273h-230z" />
<glyph unicode="&#xf4;" horiz-adv-x="1153" d="M94 471v127q0 236 129 361q128 124 357 124q225 0 353 -125t128 -360v-127q0 -240 -128 -365q-127 -124 -353 -124q-229 0 -357 124q-129 124 -129 365zM209 1182l276 309h187l276 -309h-213l-155 164l-158 -164h-213zM346 473q0 -264 234 -264q229 0 229 264v121 q0 137 -59 200q-60 64 -170 64q-234 0 -234 -264v-121z" />
<glyph unicode="&#xf5;" horiz-adv-x="1153" d="M94 471v127q0 236 129 361q128 124 357 124q225 0 353 -125t128 -360v-127q0 -240 -128 -365q-127 -124 -353 -124q-229 0 -357 124q-129 124 -129 365zM252 1192v186q52 49 91 67q41 19 97 19q47 0 80 -10q39 -12 80 -31q38 -17 70 -27t63 -10q43 0 78 18t94 64v-188 q-52 -49 -91 -67q-41 -19 -95 -19q-48 0 -80 11q-48 17 -82 32q-2 0 -6 2t-12 5t-15 6q-30 13 -50 17q-27 5 -46 5q-42 0 -80 -18q-37 -18 -96 -62zM346 473q0 -264 234 -264q229 0 229 264v121q0 137 -59 200q-60 64 -170 64q-234 0 -234 -264v-121z" />
<glyph unicode="&#xf6;" horiz-adv-x="1153" d="M94 471v127q0 236 129 361q128 124 357 124q225 0 353 -125t128 -360v-127q0 -240 -128 -365q-127 -124 -353 -124q-229 0 -357 124q-129 124 -129 365zM233 1202v238h220v-238h-220zM346 473q0 -264 234 -264q229 0 229 264v121q0 137 -59 200q-60 64 -170 64 q-234 0 -234 -264v-121zM705 1202v238h219v-238h-219z" />
<glyph unicode="&#xf7;" horiz-adv-x="1083" d="M98 449v233h887v-233h-887zM406 225q0 59 38 98t97 39q58 0 97 -39q40 -40 40 -98q0 -57 -39 -97t-98 -40q-58 0 -97 40q-38 39 -38 97zM406 907q0 59 38 98t97 39q58 0 97 -39q40 -40 40 -98q0 -57 -40 -97t-97 -40q-58 0 -97 40q-38 39 -38 97z" />
<glyph unicode="&#xf8;" horiz-adv-x="1153" d="M94 -59l121 174q-121 124 -121 356v127q0 236 129 361q128 124 357 124q162 0 270 -63l70 98h141l-119 -170q119 -125 119 -350v-127q0 -240 -128 -365q-127 -124 -353 -124q-161 0 -271 61l-71 -102h-144zM346 473q0 -81 23 -139l344 489q-50 35 -133 35 q-234 0 -234 -264v-121zM446 240q57 -31 134 -31q229 0 229 264v121q0 76 -21 133z" />
<glyph unicode="&#xf9;" horiz-adv-x="1171" d="M111 446v619h254v-606q0 -125 52 -187q53 -63 169 -63q120 0 170 62q51 63 51 188v606h254v-619q0 -231 -120 -348q-119 -116 -355 -116q-238 0 -356 117q-119 118 -119 347zM215 1477h305l246 -273h-229z" />
<glyph unicode="&#xfa;" horiz-adv-x="1171" d="M111 446v619h254v-606q0 -125 52 -187q53 -63 169 -63q120 0 170 62q51 63 51 188v606h254v-619q0 -231 -120 -348q-119 -116 -355 -116q-238 0 -356 117q-119 118 -119 347zM358 1204l246 273h305l-321 -273h-230z" />
<glyph unicode="&#xfb;" horiz-adv-x="1171" d="M111 446v619h254v-606q0 -125 52 -187q53 -63 169 -63q120 0 170 62q51 63 51 188v606h254v-619q0 -231 -120 -348q-119 -116 -355 -116q-238 0 -356 117q-119 118 -119 347zM215 1182l277 309h186l276 -309h-213l-155 164l-158 -164h-213z" />
<glyph unicode="&#xfc;" horiz-adv-x="1171" d="M111 446v619h254v-606q0 -125 52 -187q53 -63 169 -63q120 0 170 62q51 63 51 188v606h254v-619q0 -231 -120 -348q-119 -116 -355 -116q-238 0 -356 117q-119 118 -119 347zM240 1202v238h219v-238h-219zM711 1202v238h219v-238h-219z" />
<glyph unicode="&#xfd;" horiz-adv-x="1105" d="M18 1065h275l276 -713l254 713h264l-452 -1157q-45 -118 -133 -170q-89 -53 -230 -53h-98v227h111q73 0 107 19q32 18 54 73l7 19zM383 1204l246 273h305l-322 -273h-229z" />
<glyph unicode="&#xfe;" horiz-adv-x="1169" d="M111 -319v1732h254v-469q51 66 127 103q73 36 170 36q191 0 303 -122t112 -355v-133q0 -154 -54 -265q-54 -112 -149 -169q-94 -57 -215 -57q-190 0 -301 127v-428h-247zM365 463q0 -116 63 -185t172 -69t166 69t57 205v111q0 264 -227 264q-109 0 -170 -68t-61 -192 v-135z" />
<glyph unicode="&#xff;" horiz-adv-x="1105" d="M18 1065h275l276 -713l254 713h264l-452 -1157q-45 -118 -133 -170q-89 -53 -230 -53h-98v227h111q73 0 107 19q32 18 54 73l7 19zM211 1202v238h219v-238h-219zM682 1202v238h219v-238h-219z" />
<glyph unicode="&#x152;" horiz-adv-x="2076" d="M113 598v221q0 309 155 464q157 157 422 157q193 0 338 -92v65h977v-233h-719v-351h615v-233h-615v-363h719v-233h-977v72q-146 -95 -344 -95q-264 0 -418 157q-153 156 -153 464zM383 602q0 -195 79 -289t240 -94q316 0 316 383v203q0 399 -316 399q-161 0 -240 -98 t-79 -301v-203z" />
<glyph unicode="&#x153;" horiz-adv-x="1882" d="M94 471v127q0 236 129 361q128 124 357 124q233 0 358 -131q131 131 362 131q228 0 359 -129t131 -368v-123h-729v-4q0 -256 262 -256q87 0 143 33t66 92l2 6h248l-2 -12q-11 -154 -135 -247q-125 -93 -334 -93q-244 0 -371 133q-127 -133 -360 -133q-229 0 -357 124 q-129 124 -129 365zM346 473q0 -264 234 -264q229 0 229 264v121q0 137 -59 200q-60 64 -170 64q-234 0 -234 -264v-121zM1061 637h477v14q0 107 -64 161t-174 54q-224 0 -239 -229z" />
<glyph unicode="&#x178;" horiz-adv-x="1245" d="M8 1413h303l312 -592l311 592h303l-479 -829v-584h-269v582zM276 1550v238h220v-238h-220zM748 1550v238h219v-238h-219z" />
<glyph unicode="&#x2c6;" horiz-adv-x="1024" d="M141 1182l277 309h186l277 -309h-213l-156 164l-156 -164h-215z" />
<glyph unicode="&#x2dc;" horiz-adv-x="1024" d="M184 1192v186q51 46 92 66t97 20q49 0 82 -10q39 -12 80 -31q50 -21 69 -27q30 -10 62 -10q42 0 77 18q38 20 95 64v-188q-51 -48 -92 -67t-95 -19q-47 0 -80 10q-36 11 -79 31q-58 24 -70 28q-27 9 -62 9q-41 0 -77 -17q-39 -19 -99 -63z" />
<glyph unicode="&#x2000;" horiz-adv-x="919" />
<glyph unicode="&#x2001;" horiz-adv-x="1839" />
<glyph unicode="&#x2002;" horiz-adv-x="919" />
<glyph unicode="&#x2003;" horiz-adv-x="1839" />
<glyph unicode="&#x2004;" horiz-adv-x="613" />
<glyph unicode="&#x2005;" horiz-adv-x="459" />
<glyph unicode="&#x2006;" horiz-adv-x="306" />
<glyph unicode="&#x2007;" horiz-adv-x="306" />
<glyph unicode="&#x2008;" horiz-adv-x="229" />
<glyph unicode="&#x2009;" horiz-adv-x="367" />
<glyph unicode="&#x200a;" horiz-adv-x="102" />
<glyph unicode="&#x2010;" horiz-adv-x="819" d="M94 590v235h633v-235h-633z" />
<glyph unicode="&#x2011;" horiz-adv-x="819" d="M94 590v235h633v-235h-633z" />
<glyph unicode="&#x2012;" horiz-adv-x="819" d="M94 590v235h633v-235h-633z" />
<glyph unicode="&#x2013;" horiz-adv-x="960" d="M0 590v235h961v-235h-961z" />
<glyph unicode="&#x2014;" horiz-adv-x="1918" d="M0 590v235h1919v-235h-1919z" />
<glyph unicode="&#x2018;" horiz-adv-x="395" d="M78 887v409l239 203v-612h-239z" />
<glyph unicode="&#x2019;" horiz-adv-x="395" d="M78 801v612h239v-409z" />
<glyph unicode="&#x201a;" horiz-adv-x="395" d="M78 281h239v-410l-239 -203v613z" />
<glyph unicode="&#x201c;" horiz-adv-x="815" d="M78 887v409l239 203v-612h-239zM498 887v409l239 203v-612h-239z" />
<glyph unicode="&#x201d;" horiz-adv-x="815" d="M78 801v612h239v-409zM498 801v612h239v-409z" />
<glyph unicode="&#x201e;" horiz-adv-x="813" d="M78 281h239v-410l-239 -203v613zM496 281h239v-410l-239 -203v613z" />
<glyph unicode="&#x2022;" horiz-adv-x="927" d="M166 631q0 131 84 215t215 84q129 0 213 -84t84 -215t-84 -215t-213 -84q-131 0 -215 84t-84 215z" />
<glyph unicode="&#x2026;" horiz-adv-x="1624" d="M78 0v291h284v-291h-284zM670 0v291h284v-291h-284zM1262 0v291h284v-291h-284z" />
<glyph unicode="&#x202f;" horiz-adv-x="367" />
<glyph unicode="&#x2039;" horiz-adv-x="669" d="M37 541l522 465v-256l-237 -209l237 -209v-256z" />
<glyph unicode="&#x203a;" horiz-adv-x="688" d="M111 76v256l239 209l-239 209v256l522 -465z" />
<glyph unicode="&#x205f;" horiz-adv-x="459" />
<glyph unicode="&#x20ac;" horiz-adv-x="1234" d="M55 494v165h125v103h-125v166h125v26q0 225 130 352q131 128 364 128q208 0 333 -99q124 -98 134 -272h-230q-17 80 -72 116q-58 38 -161 38q-248 0 -248 -263v-26h475l-31 -166h-444v-103h428l-33 -165h-395v-25q0 -136 60 -205t190 -69q108 0 164 37q58 38 74 120h225 q-15 -182 -141 -278q-127 -97 -330 -97q-233 0 -363 132q-129 131 -129 360v25h-125z" />
<glyph unicode="&#x2122;" horiz-adv-x="1828" d="M61 1247v166h699v-166h-256v-641h-187v641h-256zM874 606v807h173l243 -481h8l240 481h170v-807h-172v453h-8l-172 -336h-127l-176 336h-4v-453h-175z" />
<glyph unicode="&#x25fc;" horiz-adv-x="1064" d="M0 0v1065h1065v-1065h-1065z" />
<glyph unicode="&#xfb01;" horiz-adv-x="1177" d="M74 887v178h143v43q0 151 80 228t235 77h166v-172h-94q-73 0 -104 -29t-31 -94v-53h229v-178h-229v-887h-252v887h-143zM805 0v1065h252v-1065h-252zM805 1217v202h252v-202h-252z" />
<glyph unicode="&#xfb02;" horiz-adv-x="1327" d="M74 887v178h143v43q0 151 80 228t235 77h166v-172h-94q-73 0 -104 -29t-31 -94v-53h229v-178h-229v-887h-252v887h-143zM795 344v1069h254v-1053q0 -78 31 -109q32 -32 114 -32h96v-219h-141q-181 0 -267 85q-87 85 -87 259z" />
</font>
</defs>
</svg>
