<?xml version="1.0" standalone="no"?>
<!DOCTYPE svg PUBLIC "-//W3C//DTD SVG 1.1//EN" "http://www.w3.org/Graphics/SVG/1.1/DTD/svg11.dtd" >
<svg xmlns="http://www.w3.org/2000/svg" xmlns:xlink="http://www.w3.org/1999/xlink" version="1.1">
<metadata></metadata>
<defs>
<font id="d-din_condenseddinCnBd" horiz-adv-x="839" >
<font-face units-per-em="2048" ascent="1702" descent="-346" />
<missing-glyph horiz-adv-x="358" />
<glyph unicode="&#xfb01;" horiz-adv-x="1009" d="M55 915v166h109v62q0 270 278 270h103v-168h-31q-64 0 -89 -26q-26 -28 -26 -93v-45h146v-166h-146v-915h-235v915h-109zM680 0v1081h238v-1081h-238zM680 1214v199h238v-199h-238z" />
<glyph unicode="&#xfb02;" horiz-adv-x="1079" d="M55 915v166h109v62q0 270 278 270h103v-168h-31q-64 0 -89 -26q-26 -28 -26 -93v-45h146v-166h-146v-915h-235v915h-109zM672 336v1077h237v-1063q0 -137 131 -137h11v-213h-13q-366 0 -366 336z" />
<glyph horiz-adv-x="0" />
<glyph unicode="&#xd;" horiz-adv-x="358" />
<glyph unicode=" "  horiz-adv-x="358" />
<glyph unicode="&#x09;" horiz-adv-x="358" />
<glyph unicode="&#xa0;" horiz-adv-x="358" />
<glyph unicode="!" horiz-adv-x="425" d="M84 1413h258l-49 -962h-160zM100 0v260h224v-260h-224z" />
<glyph unicode="&#x22;" horiz-adv-x="718" d="M59 815v598h232v-598h-232zM428 815v598h231v-598h-231z" />
<glyph unicode="#" horiz-adv-x="946" d="M29 436v168h145l25 236h-129v168h145l43 405h186l-41 -405h183l41 405h188l-43 -405h146v-168h-162l-25 -236h148v-168h-166l-45 -436h-187l45 436h-182l-45 -436h-188l45 436h-127zM360 604h183l24 236h-182z" />
<glyph unicode="$" horiz-adv-x="876" d="M39 436h235q4 -84 36 -126t93 -42q64 0 94 38q29 36 29 120q0 64 -32 102q-34 40 -109 74l-100 45q-127 57 -180 136q-54 81 -54 221q0 148 79 240q80 93 214 114v188h174v-196q109 -30 172 -123q61 -91 66 -240h-230q-2 79 -27 120q-25 40 -87 40q-117 0 -117 -131 q0 -60 29 -98t90 -62l96 -39q140 -57 200 -146t60 -239q0 -149 -65 -241q-66 -93 -187 -121v-162h-174v149q-148 15 -224 113q-77 99 -81 266zM182 1413z" />
<glyph unicode="%" horiz-adv-x="1560" d="M63 774v422q0 229 228 229q227 0 227 -229v-422q0 -229 -227 -229q-228 0 -228 229zM231 799q0 -58 13 -81q13 -22 47 -22t48 22q13 20 13 81v372q0 62 -13 82q-13 21 -48 21t-47 -21q-13 -23 -13 -82v-372zM430 0l533 1430h167l-532 -1430h-168zM1042 215v422 q0 229 228 229q227 0 227 -229v-422q0 -229 -227 -229q-228 0 -228 229zM1210 240q0 -58 13 -81q13 -22 47 -22t48 22q13 20 13 81v372q0 62 -13 82q-14 21 -48 21q-35 0 -47 -21q-13 -23 -13 -82v-372z" />
<glyph unicode="&#x26;" horiz-adv-x="1052" d="M78 309q0 107 52 210q54 107 175 235q-79 130 -114 210q-33 76 -33 158q0 141 88 226q89 86 229 86q138 0 227 -86t89 -226q0 -86 -48 -184q-47 -96 -157 -213l125 -209l94 152l170 -117l-148 -229l37 -62q17 -29 36 -41q20 -12 48 -12h25v-207h-99q-66 0 -103 25 q-35 23 -79 92q-58 -75 -129 -106t-166 -31q-143 0 -231 90q-88 89 -88 239zM315 334q0 -66 30 -101q30 -34 81 -34q42 0 76 22q35 23 78 82l-158 258q-58 -65 -83 -120q-24 -53 -24 -107zM385 1135q0 -40 17 -85q18 -47 65 -128q59 69 77 111q19 45 19 102t-23 84 q-24 28 -65 28q-43 0 -66 -29q-24 -30 -24 -83z" />
<glyph unicode="'" horiz-adv-x="350" d="M59 815v598h232v-598h-232z" />
<glyph unicode="(" horiz-adv-x="557" d="M78 672q0 221 50 438q50 218 148 406h203q-80 -192 -125 -415q-43 -214 -43 -429t43 -429q45 -223 125 -415h-203q-98 189 -148 405q-50 217 -50 439z" />
<glyph unicode=")" horiz-adv-x="557" d="M78 -172q80 192 125 415q43 214 43 429t-43 429q-45 223 -125 415h203q98 -188 148 -406q50 -217 50 -438q0 -222 -50 -439q-50 -216 -148 -405h-203z" />
<glyph unicode="*" horiz-adv-x="688" d="M78 1196l61 109l137 -80v188h136v-192l137 79l59 -104l-143 -82l145 -86l-61 -106l-137 79v-198h-136v203l-137 -80l-59 104l141 82z" />
<glyph unicode="+" horiz-adv-x="858" d="M66 451v227h249v250h228v-250h250v-227h-250v-250h-228v250h-249z" />
<glyph unicode="," horiz-adv-x="350" d="M59 272h232v-413l-232 -187v600z" />
<glyph unicode="-" horiz-adv-x="718" d="M78 596v225h563v-225h-563z" />
<glyph unicode="." horiz-adv-x="358" d="M59 0v270h240v-270h-240z" />
<glyph unicode="/" horiz-adv-x="610" d="M78 -20l266 1450h188l-268 -1450h-186z" />
<glyph unicode="0" horiz-adv-x="837" d="M78 381v655q0 201 84 300q85 100 256 100q173 0 258 -100q84 -99 84 -300v-655q0 -203 -84 -302t-258 -99q-172 0 -256 99t-84 302zM330 383q0 -99 19 -137q19 -39 69 -39t71 39t21 137v651q0 96 -21 135t-71 39q-52 0 -70 -38t-18 -136v-651z" />
<glyph unicode="1" horiz-adv-x="600" d="M55 963v292l195 158h256v-1413h-256v1120z" />
<glyph unicode="2" horiz-adv-x="813" d="M70 0v219l358 580q36 60 52 105q16 46 16 112v80q0 112 -88 112q-86 0 -86 -123v-94h-244v125q0 146 92 232t244 86t240 -88q89 -89 89 -238v-100q0 -92 -24 -161q-22 -65 -78 -155l-291 -465h393v-227h-673z" />
<glyph unicode="3" horiz-adv-x="817" d="M68 305v105h243v-93q0 -110 88 -110q51 0 70 31q18 30 18 94v145q0 78 -20 107q-21 30 -82 30h-53v226h57q60 0 79 29t19 96v116q0 66 -19 95q-20 30 -69 30q-88 0 -88 -110v-86h-243v100q0 150 89 237t246 87q160 0 248 -88t88 -250v-97q0 -101 -30 -163 q-30 -61 -111 -99q88 -39 114 -98q27 -61 27 -174v-146q0 -158 -89 -249q-88 -90 -249 -90t-247 87q-86 88 -86 238z" />
<glyph unicode="4" horiz-adv-x="874" d="M55 236v227l281 950h252l-281 -950h172v311h252v-311h88v-227h-88v-236h-252v236h-424z" />
<glyph unicode="5" horiz-adv-x="831" d="M78 324v65h248v-55q0 -69 20 -98q22 -31 68 -31q45 0 67 31q21 30 21 98v248q0 120 -88 120q-34 0 -54 -17t-36 -54h-230v782h660v-229h-430v-316q62 54 159 54q271 0 271 -330v-262q0 -174 -87 -262t-251 -88t-251 88t-87 256z" />
<glyph unicode="6" horiz-adv-x="819" d="M70 326v211q0 97 16 161q18 72 53 152l250 563h260l-239 -551q33 15 77 15q124 0 193 -83q70 -84 70 -229v-248q0 -158 -90 -248q-89 -89 -250 -89q-166 0 -253 89t-87 257zM322 315q0 -108 88 -108q42 0 65 29t23 81v230q0 108 -88 108q-44 0 -66 -25t-22 -73v-242z" />
<glyph unicode="7" horiz-adv-x="780" d="M47 1186v227h686v-227l-346 -1186h-252l346 1186h-434z" />
<glyph unicode="8" d="M78 336v145q0 180 121 258q-60 34 -90 101q-31 68 -31 135v133q0 150 93 238q92 88 249 88q159 0 250 -88q92 -89 92 -238v-133q0 -68 -32 -135q-32 -66 -89 -101q121 -76 121 -258v-145q0 -173 -89 -265q-88 -91 -253 -91q-166 0 -254 91t-88 265zM332 334q0 -65 18 -98 t70 -33t70 33t18 98v166q0 121 -88 121q-49 0 -69 -32q-19 -31 -19 -89v-166zM332 963q0 -61 19 -92t69 -31q51 0 69 31q19 33 19 92v143q0 49 -23 77q-23 27 -65 27q-44 0 -66 -27q-22 -26 -22 -77v-143z" />
<glyph unicode="9" horiz-adv-x="819" d="M70 848v248q0 160 89 249t253 89q166 0 252 -89t86 -258v-210q0 -93 -16 -163t-52 -151l-252 -563h-260l240 551q-27 -14 -78 -14q-124 0 -193 83q-69 82 -69 228zM322 866q0 -108 90 -108q41 0 63 25q23 26 23 73v242q0 108 -86 108q-90 0 -90 -110v-230z" />
<glyph unicode=":" horiz-adv-x="358" d="M59 0v270h240v-270h-240zM59 692v271h240v-271h-240z" />
<glyph unicode=";" horiz-adv-x="358" d="M59 692v271h240v-271h-240zM68 272h231v-413l-231 -187v600z" />
<glyph unicode="&#x3c;" horiz-adv-x="858" d="M66 475v180l700 283v-203l-447 -170l447 -170v-202z" />
<glyph unicode="=" horiz-adv-x="858" d="M66 270v195h700v-195h-700zM66 666v192h700v-192h-700z" />
<glyph unicode="&#x3e;" horiz-adv-x="858" d="M66 193v202l444 170l-444 170v203l700 -283v-180z" />
<glyph unicode="?" horiz-adv-x="770" d="M41 1018q0 209 81 311q82 103 257 103q154 0 247 -90q91 -88 91 -248q0 -77 -19 -142q-18 -61 -73 -143l-80 -117q-37 -50 -46 -90q-10 -43 -10 -106v-90h-225v88q0 89 14 143q14 55 68 141l72 115q31 49 44 91q11 37 11 103q0 130 -96 130q-63 0 -81 -46 q-17 -43 -17 -153h-238zM264 0v260h225v-260h-225z" />
<glyph unicode="@" horiz-adv-x="1462" d="M78 408v350q0 207 81 360q82 155 228 237q148 83 344 83t345 -83q150 -83 229 -236q79 -152 79 -353v-324q0 -159 -72 -243t-210 -84q-86 0 -149 36q-62 36 -95 101q-24 -71 -73 -105q-47 -32 -130 -32q-113 0 -163 75q-52 78 -52 232v323q0 141 49 212q50 73 160 73 q56 0 94 -22q39 -22 66 -72v78h215v-621q0 -45 22 -70q21 -24 58 -24q43 0 62 31q18 30 18 84v370q0 222 -117 344q-117 121 -336 121q-224 0 -336 -124t-112 -369v-328q0 -514 448 -514q98 0 175 23q74 22 151 75l104 -147q-98 -71 -204 -106q-100 -33 -226 -33 q-205 0 -349 81q-145 81 -225 237q-79 154 -79 364zM653 416q0 -56 18 -84q18 -29 60 -29q47 0 64 32q16 31 16 87v313q0 107 -80 107q-78 0 -78 -107v-319z" />
<glyph unicode="A" horiz-adv-x="993" d="M12 0l363 1413h246l360 -1413h-262l-57 274h-330l-58 -274h-262zM379 500h237l-118 573z" />
<glyph unicode="B" horiz-adv-x="933" d="M86 0v1413h383q207 0 295 -91t88 -290q0 -103 -35 -178q-35 -74 -119 -113q92 -41 125 -120q33 -80 33 -211q0 -216 -88 -313t-299 -97h-383zM336 225h104q95 0 129 46q35 47 35 157q0 107 -38 154t-126 47h-104v-404zM336 846h106q89 0 123 40q35 41 35 130 q0 93 -35 133q-35 39 -123 39h-106v-342z" />
<glyph unicode="C" horiz-adv-x="958" d="M78 389v637q0 201 112 304q113 104 297 104q176 0 285 -103t109 -311v-43h-252v41q0 96 -40 142t-108 46q-79 0 -115 -55t-36 -166v-567q0 -207 151 -207q67 0 108 47q40 46 40 139v37h250v-39q0 -205 -114 -308q-113 -103 -292 -103q-183 0 -289 103t-106 302z" />
<glyph unicode="D" horiz-adv-x="948" d="M86 0v1413h391q178 0 286 -102q107 -101 107 -303v-602q0 -200 -112 -303t-293 -103h-379zM336 225h135q72 0 110 56q37 55 37 153v531q0 109 -36 164q-38 57 -111 57h-135v-961z" />
<glyph unicode="E" horiz-adv-x="768" d="M86 0v1413h631v-227h-381v-355h328v-225h-328v-381h381v-225h-631z" />
<glyph unicode="F" horiz-adv-x="759" d="M86 0v1413h631v-227h-379v-361h328v-227h-328v-598h-252z" />
<glyph unicode="G" horiz-adv-x="958" d="M78 389v637q0 201 112 304q113 104 297 104q176 0 285 -101t109 -297v-43h-252v43q0 82 -41 126t-107 44q-79 0 -115 -55t-36 -166v-567q0 -207 151 -207q73 0 111 50q37 49 37 145v149h-150v199h402v-365q0 -196 -114 -301q-113 -104 -294 -104q-183 0 -289 103 t-106 302z" />
<glyph unicode="H" horiz-adv-x="942" d="M86 0v1413h252v-582h266v582h252v-1413h-252v606h-266v-606h-252z" />
<glyph unicode="I" horiz-adv-x="438" d="M94 0v1413h250v-1413h-250z" />
<glyph unicode="J" horiz-adv-x="544" d="M35 0v227h33q131 0 131 138v1048h252v-1077q0 -336 -367 -336h-49z" />
<glyph unicode="K" horiz-adv-x="942" d="M86 0v1413h250v-665l301 665h252l-295 -582l340 -831h-268l-215 547l-115 -228v-319h-250z" />
<glyph unicode="L" horiz-adv-x="751" d="M86 0v1413h252v-1188h379v-225h-631z" />
<glyph unicode="M" horiz-adv-x="1169" d="M86 0v1413h252l246 -745l247 745h252v-1413h-252v827l-180 -553h-135l-178 547v-821h-252z" />
<glyph unicode="N" horiz-adv-x="970" d="M86 0v1413h252l295 -786v786h252v-1413h-252l-295 754v-754h-252z" />
<glyph unicode="O" horiz-adv-x="958" d="M78 389v637q0 201 112 304q113 104 297 104q177 0 286 -104q108 -103 108 -304v-637q0 -196 -114 -301q-113 -104 -294 -104q-183 0 -289 103t-106 302zM330 418q0 -207 151 -207q73 0 110 54q38 55 38 153v567q0 109 -37 165t-111 56q-79 0 -115 -55t-36 -166v-567z" />
<glyph unicode="P" horiz-adv-x="888" d="M86 0v1413h381q210 0 298 -110q89 -112 89 -334q0 -226 -91 -336q-91 -111 -296 -111h-131v-522h-250zM336 750h123q79 0 111 53t32 166t-32 166t-111 53h-123v-438z" />
<glyph unicode="Q" horiz-adv-x="958" d="M78 389v637q0 201 112 304q113 104 297 104q177 0 286 -104q108 -103 108 -304v-637q0 -127 -50 -216q-50 -90 -135 -136l92 -256l-213 -78l-100 281h-2q-183 0 -289 103t-106 302zM330 418q0 -207 151 -207q73 0 110 54q38 55 38 153v567q0 109 -37 165t-111 56 q-79 0 -115 -55t-36 -166v-567z" />
<glyph unicode="R" horiz-adv-x="942" d="M86 0v1413h385q209 0 296 -100q87 -101 87 -322q0 -141 -39 -235q-40 -96 -127 -142l211 -614h-262l-178 567h-121v-567h-252zM338 793h131q75 0 104 50t29 148q0 97 -28 148q-27 49 -105 49h-131v-395z" />
<glyph unicode="S" horiz-adv-x="872" d="M39 403h237q4 -103 42 -153q37 -49 112 -49q74 0 108 45q33 43 33 143q0 83 -37 130q-38 48 -128 89l-97 43q-137 62 -197 152q-61 91 -61 241q0 178 104 285t279 107q174 0 269 -106q96 -107 102 -304h-232q-1 96 -33 144q-32 49 -106 49q-137 0 -137 -162 q0 -75 34 -118q36 -46 113 -79l93 -41q149 -67 214 -164q66 -99 66 -262q0 -197 -102 -303t-291 -106q-186 0 -285 108q-98 107 -100 311z" />
<glyph unicode="T" horiz-adv-x="755" d="M8 1186v227h740v-227h-244v-1186h-250v1186h-246z" />
<glyph unicode="U" horiz-adv-x="942" d="M86 371v1042h252v-1036q0 -85 33 -126q33 -40 100 -40q133 0 133 166v1036h252v-1042q0 -115 -49 -203q-50 -89 -137 -136q-88 -48 -199 -48t-198 48q-88 49 -137 136q-50 89 -50 203z" />
<glyph unicode="V" horiz-adv-x="919" d="M12 1413h277l170 -1057l172 1057h276l-317 -1413h-260z" />
<glyph unicode="W" horiz-adv-x="1380" d="M12 1413h256l138 -1057l133 1057h307l133 -1057l137 1057h252l-252 -1413h-272l-154 868l-155 -868h-271z" />
<glyph unicode="X" horiz-adv-x="849" d="M12 0l289 733l-268 680h248l145 -442l143 442h248l-268 -680l289 -733h-248l-164 494l-166 -494h-248z" />
<glyph unicode="Y" horiz-adv-x="849" d="M12 1413h277l135 -541l135 541h279l-287 -862v-551h-252v555z" />
<glyph unicode="Z" horiz-adv-x="735" d="M43 0v227l397 959h-377v227h625v-227l-395 -959h403v-227h-653z" />
<glyph unicode="[" horiz-adv-x="579" d="M86 -172v1688h416v-228h-183v-1233h183v-227h-416z" />
<glyph unicode="\" horiz-adv-x="610" d="M78 1430h186l268 -1450h-188z" />
<glyph unicode="]" horiz-adv-x="579" d="M78 55h180v1233h-180v228h416v-1688h-416v227z" />
<glyph unicode="^" horiz-adv-x="858" d="M61 571l265 859h188l264 -859h-186l-172 576l-172 -576h-187z" />
<glyph unicode="_" horiz-adv-x="870" d="M0 -98h870v-142h-870v142z" />
<glyph unicode="`" horiz-adv-x="1024" d="M285 1487h252l202 -279h-202z" />
<glyph unicode="a" horiz-adv-x="829" d="M61 317q0 151 93 235q92 83 264 83h90v137q0 56 -26 87q-26 30 -74 30q-45 0 -72 -29q-27 -28 -27 -78v-16h-219v8q0 160 90 242q89 82 234 82q157 0 244 -93t87 -251v-754h-221v90q-44 -56 -84 -81t-106 -25q-135 0 -204 88t-69 245zM299 328q0 -68 27 -103t77 -35 q45 0 75 36t30 98v145h-62q-72 0 -109 -33q-38 -33 -38 -108z" />
<glyph unicode="b" d="M84 0v1413h238v-418q29 50 74 76q46 27 108 27q119 0 188 -84q70 -85 70 -266v-414q0 -181 -73 -266q-72 -84 -189 -84q-59 0 -102 22q-44 23 -85 70v-76h-229zM317 373q0 -176 105 -176q51 0 77 41q25 40 25 135v336q0 93 -25 134q-25 42 -77 42q-51 0 -78 -42t-27 -134 v-336z" />
<glyph unicode="c" horiz-adv-x="833" d="M78 375v332q0 208 88 299q89 92 256 92q163 0 248 -88q86 -89 86 -265v-40h-230v36q0 72 -27 108t-77 36q-53 0 -80 -42t-27 -134v-336q0 -92 27 -134t78 -42q53 0 79 35q27 36 27 110v35h230v-35q0 -180 -86 -269t-248 -89q-167 0 -256 92q-88 91 -88 299z" />
<glyph unicode="d" d="M78 334v414q0 183 70 266q70 84 190 84q60 0 106 -27q48 -28 76 -76v418h236v-1413h-228v76q-78 -92 -186 -92q-119 0 -191 84q-73 85 -73 266zM315 373q0 -94 26 -135t79 -41q104 0 104 176v336q0 94 -26 134q-27 42 -80 42q-52 0 -77 -42q-26 -43 -26 -134v-336z" />
<glyph unicode="e" horiz-adv-x="841" d="M78 408v264q0 222 85 323q86 103 253 103q166 0 257 -105q91 -104 91 -321v-215h-449v-99q0 -165 107 -165q104 0 104 137v10h230v-12q0 -169 -86 -257q-86 -87 -248 -87q-165 0 -254 98q-90 99 -90 326zM315 629h211v80q0 94 -26 134q-27 42 -80 42q-51 0 -78 -42 t-27 -134v-80z" />
<glyph unicode="f" horiz-adv-x="587" d="M55 915v166h109v62q0 270 278 270h103v-168h-31q-64 0 -89 -26q-26 -28 -26 -93v-45h146v-166h-146v-915h-235v915h-109z" />
<glyph unicode="g" d="M78 434v314q0 183 70 266q70 84 190 84q60 0 106 -27q48 -28 76 -76v86h236v-1069q0 -163 -89 -260q-89 -96 -247 -96q-150 0 -235 78q-84 77 -89 229h221q0 -49 27 -76q26 -26 78 -26t79 33t27 96v186q-78 -92 -186 -92q-119 0 -191 84q-73 85 -73 266zM315 473 q0 -94 26 -135t79 -41q104 0 104 176v236q0 94 -26 134q-27 42 -80 42q-52 0 -77 -42q-26 -43 -26 -134v-236z" />
<glyph unicode="h" d="M84 0v1413h238v-401q77 86 170 86q137 0 200 -84q64 -85 64 -242v-772h-238v770q0 54 -28 85q-27 30 -70 30q-45 0 -72 -30q-26 -29 -26 -85v-770h-238z" />
<glyph unicode="i" horiz-adv-x="421" d="M92 0v1081h238v-1081h-238zM92 1214v199h238v-199h-238z" />
<glyph unicode="j" horiz-adv-x="421" d="M-49 -111h10q131 0 131 138v1054h238v-1069q0 -336 -367 -336h-12v213zM92 1214v199h238v-199h-238z" />
<glyph unicode="k" horiz-adv-x="858" d="M84 0v1413h238v-772l258 440h247l-276 -424l287 -657h-263l-172 430l-81 -125v-305h-238z" />
<glyph unicode="l" horiz-adv-x="491" d="M84 336v1077h238v-1063q0 -137 131 -137h10v-213h-12q-367 0 -367 336z" />
<glyph unicode="m" horiz-adv-x="1273" d="M84 0v1081h227v-80q74 97 183 97q64 0 120 -30q57 -31 91 -83q41 50 97 81q58 32 116 32q146 0 209 -82t63 -244v-772h-238v770q0 55 -27 85t-71 30t-71 -30t-27 -85v-770h-238v770q0 54 -28 85q-27 30 -70 30q-45 0 -72 -30q-26 -29 -26 -85v-770h-238z" />
<glyph unicode="n" d="M84 0v1081h227v-80q77 97 181 97q264 0 264 -326v-772h-238v770q0 54 -28 85q-27 30 -70 30q-45 0 -72 -30q-26 -29 -26 -85v-770h-238z" />
<glyph unicode="o" horiz-adv-x="841" d="M78 375v332q0 208 88 299q89 92 256 92q168 0 255 -92t87 -299v-332q0 -207 -87 -299t-255 -92q-167 0 -256 92q-88 91 -88 299zM315 373q0 -92 27 -134t78 -42q53 0 80 42q26 40 26 134v336q0 94 -26 134q-27 42 -80 42q-51 0 -78 -42t-27 -134v-336z" />
<glyph unicode="p" d="M84 -324v1405h229v-86q70 103 191 103q119 0 188 -84q70 -85 70 -266v-414q0 -181 -73 -266q-72 -84 -189 -84q-109 0 -178 82v-390h-238zM317 373q0 -176 105 -176q51 0 77 41q25 40 25 135v336q0 93 -25 134q-25 42 -77 42q-51 0 -78 -42t-27 -134v-336z" />
<glyph unicode="q" d="M78 334v414q0 183 70 266q70 84 190 84q116 0 190 -103v86h228v-1405h-236v390q-69 -82 -178 -82q-119 0 -191 84q-73 85 -73 266zM315 373q0 -94 26 -135t79 -41q104 0 104 176v336q0 94 -26 134q-27 42 -80 42q-52 0 -77 -42q-26 -43 -26 -134v-336z" />
<glyph unicode="r" horiz-adv-x="626" d="M84 0v1081h227v-100q41 66 93 93q54 28 120 28q39 0 74 -8v-250q-53 20 -109 20q-75 0 -121 -48q-46 -47 -46 -136v-680h-238z" />
<glyph unicode="s" horiz-adv-x="802" d="M61 311v13h230v-13q0 -59 31 -95q30 -34 86 -34q53 0 80 30q28 31 28 87q0 43 -26 75q-27 33 -80 56l-123 53q-125 53 -172 125q-47 73 -47 180q0 133 92 222q91 88 241 88q151 0 242 -88q92 -89 92 -230v-20h-229v12q0 62 -29 96q-29 33 -78 33q-47 0 -74 -27 q-28 -28 -28 -75q0 -45 20 -72q22 -29 78 -53l133 -58q117 -51 168 -123q52 -73 52 -190q0 -141 -94 -230t-251 -89t-249 87q-93 88 -93 240z" />
<glyph unicode="t" horiz-adv-x="618" d="M39 915v166h121v191l237 96v-287h172v-166h-172v-565q0 -137 138 -137h8v-213h-8q-185 0 -280 81t-95 255v579h-121z" />
<glyph unicode="u" d="M84 362v719h238v-669q0 -80 5 -125q5 -43 25 -66q21 -24 68 -24q46 0 67 21t26 63q5 45 5 131v669h238v-719q0 -127 -29 -209q-29 -81 -101 -125q-73 -44 -206 -44q-194 0 -265 95t-71 283z" />
<glyph unicode="v" horiz-adv-x="837" d="M23 1081h262l135 -702l133 702h262l-270 -1081h-252z" />
<glyph unicode="w" horiz-adv-x="1247" d="M23 1081h262l108 -702l131 702h197l131 -702l109 702h264l-248 -1081h-232l-122 662l-125 -662h-230z" />
<glyph unicode="x" horiz-adv-x="778" d="M23 0l243 561l-229 520h242l120 -272l101 272h243l-237 -516l250 -565h-242l-133 303l-115 -303h-243z" />
<glyph unicode="y" horiz-adv-x="837" d="M23 1081h262l145 -657l135 657h250l-293 -1159q-24 -100 -77 -153q-54 -54 -132 -73q-82 -20 -204 -20h-9v209h86q108 0 138 56z" />
<glyph unicode="z" horiz-adv-x="786" d="M78 0v201l393 680h-393v200h631v-200l-387 -680h387v-201h-631z" />
<glyph unicode="{" horiz-adv-x="653" d="M78 571v211q78 0 106 34q29 35 29 116v330q0 122 63 188t185 66h114v-211h-40q-43 0 -65 -25q-21 -24 -21 -70v-260q0 -130 -24 -187t-101 -85q76 -29 101 -88q24 -57 24 -187v-270q0 -46 21 -70t65 -24h40v-211h-114q-122 0 -185 66t-63 188v342q0 79 -29 114 q-27 33 -106 33z" />
<glyph unicode="|" horiz-adv-x="540" d="M156 -172v1688h229v-1688h-229z" />
<glyph unicode="}" horiz-adv-x="653" d="M78 39h41q43 0 64 24q22 25 22 70v270q0 130 24 187q24 58 101 88q-78 29 -102 85q-23 55 -23 187v260q0 45 -22 70t-64 25h-41v211h117q120 0 183 -66q62 -65 62 -188v-330q0 -81 29 -116q28 -34 106 -34v-211q-79 0 -106 -33q-29 -35 -29 -114v-342q0 -123 -62 -188 q-63 -66 -183 -66h-117v211z" />
<glyph unicode="~" horiz-adv-x="858" d="M51 487q52 108 108 154q58 47 130 47q44 0 76 -14q37 -16 77 -41q8 -5 50 -26q22 -11 43 -11q34 0 54 20q22 22 56 84l146 -86q-50 -107 -106 -153q-58 -47 -132 -47q-41 0 -76 14q-41 16 -78 41q-2 1 -5 3t-9 5.5t-11 6.5q-21 13 -36 17q-18 5 -29 5q-30 0 -54 -21 q-23 -20 -56 -82z" />
<glyph unicode="&#xa1;" horiz-adv-x="425" d="M84 -324l49 953h160l49 -953h-258zM94 813v268h238v-268h-238z" />
<glyph unicode="&#xa2;" horiz-adv-x="907" d="M78 375v332q0 202 83 294q83 93 242 97v202h121v-213q232 -51 232 -342v-40h-230v36q0 72 -27 108t-77 36q-53 0 -80 -42t-27 -134v-336q0 -92 27 -134t78 -42q53 0 79 35q27 36 27 110v35h230v-35q0 -150 -60 -237t-172 -111v-199h-121v189q-160 5 -242 96 q-83 92 -83 295z" />
<glyph unicode="&#xa3;" horiz-adv-x="860" d="M39 592v227h125v285q0 159 82 244q83 86 248 86t246 -88t81 -250h-239q0 74 -19 106q-19 31 -61 31q-45 0 -66 -27q-20 -26 -20 -84v-303h246v-227h-246v-180q0 -63 -17 -108q-17 -46 -53 -77h459v-227h-731v231q54 20 72 61q18 40 18 124v176h-125z" />
<glyph unicode="&#xa4;" horiz-adv-x="1169" d="M84 295l133 135q-51 92 -51 207q0 110 53 207l-135 137l154 154l133 -136q101 56 213 56q111 0 211 -56l137 136l151 -154l-135 -135q56 -100 56 -209q0 -108 -54 -207l135 -137l-153 -154l-135 135q-98 -55 -213 -55q-119 0 -213 55l-135 -133zM385 637q0 -89 56 -148 t143 -59t143 59q57 60 57 148q0 87 -57 147t-143 60t-143 -60q-56 -59 -56 -147z" />
<glyph unicode="&#xa5;" horiz-adv-x="837" d="M10 1413h266l148 -547l141 547h262l-258 -731h187v-174h-211v-109h211v-174h-211v-225h-252v225h-211v174h211v109h-211v174h186z" />
<glyph unicode="&#xa6;" horiz-adv-x="540" d="M156 -172v721h229v-721h-229zM156 795v721h229v-721h-229z" />
<glyph unicode="&#xa7;" horiz-adv-x="837" d="M86 559q0 119 36 194q35 73 124 111q-76 30 -105 102q-28 69 -28 173q0 158 78 236q79 79 229 79q167 0 233 -84t66 -264h-215q0 87 -14 124q-14 36 -68 36q-50 0 -65 -33t-15 -94q0 -64 16 -97t53 -58t107 -48q133 -46 183 -133q51 -88 51 -244q0 -121 -36 -194 q-37 -75 -124 -109q77 -34 107 -103t30 -176q0 -321 -313 -321q-169 0 -236 85t-67 267h215q0 -90 15 -127t71 -37q51 0 69 33q19 35 19 92q0 64 -17 103q-16 37 -53 59q-39 23 -113 51q-131 47 -182 134t-51 243zM311 559q0 -101 21 -147q21 -47 86 -47q67 0 88 47 q20 44 20 147q0 105 -20 149q-21 46 -88 46t-87 -47q-20 -48 -20 -148zM371 1442z" />
<glyph unicode="&#xa8;" horiz-adv-x="1024" d="M256 1210v234h190v-234h-190zM575 1210v234h191v-234h-191z" />
<glyph unicode="&#xa9;" horiz-adv-x="1439" d="M78 702q0 338 168 527q167 188 475 188t474 -190q167 -191 167 -525t-168 -524t-473 -190q-307 0 -475 190t-168 524zM233 702q0 -276 123 -426q122 -149 365 -149q241 0 363 151t122 424q0 276 -123 426t-362 150q-241 0 -365 -151q-123 -150 -123 -425zM477 586v237 q0 147 63 213t183 66q240 0 240 -250v-29h-164v25q0 51 -21 78q-20 26 -55 26q-76 0 -76 -127v-241q0 -66 19 -98q17 -29 57 -29q76 0 76 106v25h164v-25q0 -128 -62 -193t-178 -65q-119 0 -183 67q-63 66 -63 214z" />
<glyph unicode="&#xaa;" horiz-adv-x="628" d="M76 1071q0 92 61 141q62 50 176 50h62v65q0 59 -68 59q-32 0 -49 -14q-18 -15 -18 -39v-6h-146v4q0 99 60 148q59 49 155 49q103 0 163 -58q58 -57 58 -151v-438h-147v51q-31 -33 -55 -46q-29 -16 -70 -16q-89 0 -136 53q-46 52 -46 148zM233 1077q0 -28 19 -47 q18 -18 51 -18q31 0 51 17q21 18 21 46v74h-43q-99 0 -99 -72zM287 1735z" />
<glyph unicode="&#xab;" horiz-adv-x="905" d="M29 541l397 405v-225l-176 -180l176 -181v-225zM424 541l397 405v-225l-178 -180l178 -181v-225z" />
<glyph unicode="&#xac;" horiz-adv-x="858" d="M72 524v213h712v-420h-237v207h-475z" />
<glyph unicode="&#xad;" horiz-adv-x="718" d="M78 596v225h563v-225h-563z" />
<glyph unicode="&#xae;" horiz-adv-x="876" d="M86 1034q0 183 93 285t257 102q168 0 261 -105q94 -106 94 -282q0 -178 -94 -284q-93 -105 -261 -105q-167 0 -259 104q-91 103 -91 285zM170 1034q0 -151 68 -231t198 -80q132 0 199 81q67 80 67 230q0 152 -68 230q-69 79 -198 79q-131 0 -198 -80q-68 -82 -68 -229z M322 819v434h120q127 0 127 -129q0 -75 -49 -112l64 -193h-95l-53 170h-24v-170h-90zM412 1069h20q27 0 37 11t10 42t-10 40q-11 9 -37 9h-20v-102z" />
<glyph unicode="&#xaf;" horiz-adv-x="1024" d="M268 1221v213h486v-213h-486z" />
<glyph unicode="&#xb0;" horiz-adv-x="665" d="M78 1182q0 108 73 181t181 73q110 0 183 -73t73 -181q0 -109 -73 -182q-72 -72 -183 -72q-109 0 -181 72q-73 73 -73 182zM215 1182q0 -54 33 -88q33 -35 84 -35q50 0 85 35q34 34 34 88t-34 88q-35 35 -85 35q-51 0 -84 -35q-33 -34 -33 -88z" />
<glyph unicode="&#xb1;" horiz-adv-x="858" d="M66 18v228h727v-228h-727zM66 590v227h249v250h228v-250h250v-227h-250v-250h-228v250h-249z" />
<glyph unicode="&#xb2;" horiz-adv-x="579" d="M63 881v139l242 358q25 37 34 58q9 22 9 59v45q0 24 -14 39q-15 16 -45 16q-56 0 -56 -49v-63h-163v80q0 86 61 135t162 49q102 0 161 -50q58 -49 58 -138v-64q0 -59 -15 -98q-13 -34 -51 -90l-194 -275h262v-151h-451z" />
<glyph unicode="&#xb3;" horiz-adv-x="569" d="M57 1061v63h164v-49q0 -55 58 -55q36 0 47 14q12 15 12 49v80q0 45 -13 62q-13 18 -57 18h-32v152h36q40 0 53 16t13 53v66q0 34 -13 48q-14 15 -46 15q-58 0 -58 -55v-51h-164v61q0 94 60 147q59 52 164 52q108 0 166 -52q59 -53 59 -147v-69q0 -59 -20 -94 q-19 -33 -74 -60q57 -24 75 -57q19 -35 19 -94v-95q0 -102 -60 -156q-61 -55 -165 -55q-107 0 -166 51q-58 50 -58 142z" />
<glyph unicode="&#xb4;" horiz-adv-x="1024" d="M285 1208l202 279h252l-252 -279h-202z" />
<glyph unicode="&#xb5;" d="M84 -324v1405h238v-770q0 -55 27 -85q26 -29 71 -29q44 0 70 29q28 31 28 85v770h238v-1081h-228v80q-18 -43 -57 -67q-37 -23 -80 -23q-49 0 -84 18v-332h-223z" />
<glyph unicode="&#xb6;" horiz-adv-x="1132" d="M86 975q0 119 50 221q49 99 144 159q92 58 216 58h508v-1737h-226v1545h-125v-1545h-227v859q-100 6 -177 66q-76 60 -120 158q-43 96 -43 216z" />
<glyph unicode="&#xb7;" horiz-adv-x="358" d="M59 438v271h240v-271h-240z" />
<glyph unicode="&#xb8;" horiz-adv-x="1024" d="M315 -324l150 344h180l-121 -344h-209z" />
<glyph unicode="&#xb9;" horiz-adv-x="440" d="M49 1450v197l131 88h170v-854h-170v657z" />
<glyph unicode="&#xba;" horiz-adv-x="634" d="M88 1104v190q0 126 58 180t173 54q111 0 169 -54q59 -54 59 -180v-190q0 -125 -59 -179q-60 -55 -169 -55q-113 0 -173 55q-58 54 -58 179zM246 1110q0 -96 71 -96q35 0 53 22q17 21 17 74v178q0 53 -17 74q-18 22 -53 22t-53 -22t-18 -74v-178zM291 1735z" />
<glyph unicode="&#xbb;" horiz-adv-x="905" d="M84 135v225l176 181l-176 180v225l397 -405zM479 135v225l176 181l-176 180v225l398 -405z" />
<glyph unicode="&#xbc;" horiz-adv-x="1425" d="M49 1128v197l131 88h170v-854h-170v658zM289 0l532 1430h168l-532 -1430h-168zM874 131v152l187 571h168l-185 -571h113v166h168v-166h59v-152h-59v-131h-168v131h-283z" />
<glyph unicode="&#xbd;" horiz-adv-x="1417" d="M49 1128v197l131 88h170v-854h-170v658zM289 0l532 1430h168l-532 -1430h-168zM901 0v139l242 359q26 38 34 57q9 23 9 59v45q0 23 -15 39q-15 17 -45 17q-55 0 -55 -49v-64h-164v80q0 85 62 135q61 49 161 49q102 0 161 -50t59 -138v-64q0 -56 -16 -98q-14 -37 -50 -90 l-194 -274h262v-152h-451z" />
<glyph unicode="&#xbe;" horiz-adv-x="1554" d="M57 739v64h164v-49q0 -56 58 -56q35 0 47 15t12 49v80q0 44 -13 61q-14 19 -57 19h-32v151h36q39 0 53 17q13 16 13 53v65q0 34 -13 48q-14 16 -46 16q-58 0 -58 -55v-52h-164v62q0 93 60 146q59 52 164 52q108 0 166 -52q59 -53 59 -146v-70q0 -58 -20 -93 q-19 -33 -74 -60q56 -24 75 -58q19 -35 19 -94v-94q0 -103 -60 -157t-165 -54q-108 0 -166 50t-58 142zM418 0l532 1430h168l-532 -1430h-168zM1004 131v152l186 571h168l-184 -571h112v166h168v-166h59v-152h-59v-131h-168v131h-282z" />
<glyph unicode="&#xbf;" horiz-adv-x="770" d="M53 -4q0 82 18 142q20 66 72 141l82 116q37 50 46 91q10 45 10 108v82h223v-82q0 -94 -12 -147q-12 -51 -68 -138l-72 -112q-32 -50 -45 -93q-12 -40 -12 -104q0 -129 98 -129q63 0 81 45t18 156h237q0 -212 -81 -314t-257 -102q-155 0 -247 90q-91 90 -91 250zM281 821 v260h223v-260h-223z" />
<glyph unicode="&#xc0;" horiz-adv-x="993" d="M12 0l363 1413h246l360 -1413h-262l-57 274h-330l-58 -274h-262zM209 1819h252l203 -279h-203zM379 500h237l-118 573z" />
<glyph unicode="&#xc1;" horiz-adv-x="993" d="M12 0l363 1413h246l360 -1413h-262l-57 274h-330l-58 -274h-262zM332 1540l203 279h251l-251 -279h-203zM379 500h237l-118 573z" />
<glyph unicode="&#xc2;" horiz-adv-x="993" d="M12 0l363 1413h246l360 -1413h-262l-57 274h-330l-58 -274h-262zM203 1528l207 303h170l211 -303h-179l-114 164l-117 -164h-178zM379 500h237l-118 573z" />
<glyph unicode="&#xc3;" horiz-adv-x="993" d="M12 0l363 1413h246l360 -1413h-262l-57 274h-330l-58 -274h-262zM266 1538v191q38 41 69 58q27 15 66 15q35 0 58 -10q22 -10 51 -29q25 -15 49 -25q17 -7 43 -7q32 0 55 15q26 18 70 64v-188q-38 -43 -65 -59q-28 -17 -68 -17q-36 0 -57 10q-25 12 -54 29q-36 21 -46 25 q-19 8 -44 8q-33 0 -58 -16q-23 -15 -69 -64zM379 500h237l-118 573z" />
<glyph unicode="&#xc4;" horiz-adv-x="993" d="M12 0l363 1413h246l360 -1413h-262l-57 274h-330l-58 -274h-262zM242 1542v234h190v-234h-190zM379 500h237l-118 573zM561 1542v234h191v-234h-191z" />
<glyph unicode="&#xc5;" horiz-adv-x="993" d="M12 0l363 1413q-33 27 -51 66q-19 41 -19 84q0 84 55 139t138 55q82 0 137 -55t55 -139q0 -45 -18 -84t-51 -66l360 -1413h-262l-57 274h-330l-58 -274h-262zM379 500h237l-118 573zM406 1563q0 -40 26 -66q27 -27 66 -27q38 0 64 27q26 28 26 66q0 39 -26 67 q-26 27 -64 27q-42 0 -67 -27q-25 -26 -25 -67zM551 1370z" />
<glyph unicode="&#xc6;" horiz-adv-x="1390" d="M12 0l533 1413h794v-227h-378v-355h327v-225h-327v-381h378v-225h-630v272h-334l-101 -272h-262zM457 498h252v690z" />
<glyph unicode="&#xc7;" horiz-adv-x="958" d="M78 389v637q0 201 112 304q113 104 297 104q176 0 285 -103t109 -311v-43h-252v41q0 96 -40 142t-108 46q-79 0 -115 -55t-36 -166v-567q0 -207 151 -207q67 0 108 47q40 46 40 139v37h250v-39q0 -167 -76 -265q-77 -99 -205 -132l-113 -322h-209l136 312 q-158 17 -245 117q-89 103 -89 284z" />
<glyph unicode="&#xc8;" horiz-adv-x="768" d="M86 0v1413h631v-227h-381v-355h328v-225h-328v-381h381v-225h-631zM121 1819h252l202 -279h-202z" />
<glyph unicode="&#xc9;" horiz-adv-x="768" d="M86 0v1413h631v-227h-381v-355h328v-225h-328v-381h381v-225h-631zM244 1540l202 279h252l-252 -279h-202z" />
<glyph unicode="&#xca;" horiz-adv-x="768" d="M86 0v1413h631v-227h-381v-355h328v-225h-328v-381h381v-225h-631zM115 1528l207 303h170l210 -303h-178l-114 164l-117 -164h-178z" />
<glyph unicode="&#xcb;" horiz-adv-x="768" d="M86 0v1413h631v-227h-381v-355h328v-225h-328v-381h381v-225h-631zM154 1542v234h190v-234h-190zM473 1542v234h191v-234h-191z" />
<glyph unicode="&#xcc;" horiz-adv-x="438" d="M-70 1819h252l203 -279h-203zM94 0v1413h250v-1413h-250z" />
<glyph unicode="&#xcd;" horiz-adv-x="438" d="M53 1540l203 279h252l-252 -279h-203zM94 0v1413h250v-1413h-250z" />
<glyph unicode="&#xce;" horiz-adv-x="438" d="M-76 1528l207 303h170l211 -303h-178l-115 164l-117 -164h-178zM94 0v1413h250v-1413h-250z" />
<glyph unicode="&#xcf;" horiz-adv-x="438" d="M-37 1542v234h191v-234h-191zM94 0v1413h250v-1413h-250zM283 1542v234h190v-234h-190z" />
<glyph unicode="&#xd0;" horiz-adv-x="989" d="M41 614v226h86v573h391q178 0 286 -102q107 -101 107 -303v-602q0 -200 -112 -303t-293 -103h-379v614h-86zM377 225h135q72 0 110 56q37 55 37 153v531q0 109 -36 164q-37 57 -111 57h-135v-346h176v-226h-176v-389z" />
<glyph unicode="&#xd1;" horiz-adv-x="970" d="M86 0v1413h252l295 -786v786h252v-1413h-252l-295 754v-754h-252zM254 1538v191q38 41 69 58q27 15 66 15q34 0 57 -10q25 -11 52 -29q25 -15 49 -25q17 -7 43 -7q32 0 55 15q26 18 70 64v-188q-37 -41 -66 -59q-28 -17 -67 -17q-37 0 -58 10t-53 29q-36 21 -46 25 q-19 8 -44 8q-33 0 -58 -16q-23 -15 -69 -64z" />
<glyph unicode="&#xd2;" horiz-adv-x="958" d="M78 389v637q0 201 112 304q113 104 297 104q177 0 286 -104q108 -103 108 -304v-637q0 -196 -114 -301q-113 -104 -294 -104q-183 0 -289 103t-106 302zM190 1819h252l203 -279h-203zM330 418q0 -207 151 -207q73 0 110 54q38 55 38 153v567q0 109 -37 165t-111 56 q-79 0 -115 -55t-36 -166v-567z" />
<glyph unicode="&#xd3;" horiz-adv-x="958" d="M78 389v637q0 201 112 304q113 104 297 104q177 0 286 -104q108 -103 108 -304v-637q0 -196 -114 -301q-113 -104 -294 -104q-183 0 -289 103t-106 302zM313 1540l203 279h252l-252 -279h-203zM330 418q0 -207 151 -207q73 0 110 54q38 55 38 153v567q0 109 -37 165 t-111 56q-79 0 -115 -55t-36 -166v-567z" />
<glyph unicode="&#xd4;" horiz-adv-x="958" d="M78 389v637q0 201 112 304q113 104 297 104q177 0 286 -104q108 -103 108 -304v-637q0 -196 -114 -301q-113 -104 -294 -104q-183 0 -289 103t-106 302zM184 1528l207 303h170l211 -303h-178l-115 164l-117 -164h-178zM330 418q0 -207 151 -207q73 0 110 54q38 55 38 153 v567q0 109 -37 165t-111 56q-79 0 -115 -55t-36 -166v-567z" />
<glyph unicode="&#xd5;" horiz-adv-x="958" d="M78 389v637q0 201 112 304q113 104 297 104q177 0 286 -104q108 -103 108 -304v-637q0 -196 -114 -301q-113 -104 -294 -104q-183 0 -289 103t-106 302zM248 1538v191q39 42 68 58q27 15 67 15q34 0 57 -10q25 -11 52 -29q25 -15 49 -25q17 -7 43 -7q32 0 55 15 q26 18 70 64v-188q-37 -41 -66 -59q-28 -17 -68 -17q-36 0 -57 10t-53 29q-36 21 -46 25q-19 8 -44 8q-34 0 -59 -16q-21 -13 -68 -64zM330 418q0 -207 151 -207q73 0 110 54q38 55 38 153v567q0 109 -37 165t-111 56q-79 0 -115 -55t-36 -166v-567z" />
<glyph unicode="&#xd6;" horiz-adv-x="958" d="M78 389v637q0 201 112 304q113 104 297 104q177 0 286 -104q108 -103 108 -304v-637q0 -196 -114 -301q-113 -104 -294 -104q-183 0 -289 103t-106 302zM223 1542v234h191v-234h-191zM330 418q0 -207 151 -207q73 0 110 54q38 55 38 153v567q0 109 -37 165t-111 56 q-79 0 -115 -55t-36 -166v-567zM543 1542v234h190v-234h-190z" />
<glyph unicode="&#xd7;" horiz-adv-x="858" d="M86 371l195 194l-195 193l150 149l194 -192l193 192l149 -149l-192 -193l192 -194l-149 -150l-193 195l-194 -195z" />
<glyph unicode="&#xd8;" horiz-adv-x="958" d="M78 -41l74 166q-74 101 -74 264v637q0 201 112 304q113 104 297 104q139 0 230 -60l43 96h121l-78 -174q78 -105 78 -270v-637q0 -196 -114 -301q-113 -104 -294 -104q-140 0 -235 61l-39 -86h-121zM330 518l274 608q-33 80 -123 80q-79 0 -115 -55t-36 -166v-467z M350 295q35 -84 131 -84q73 0 110 54q38 55 38 153v493z" />
<glyph unicode="&#xd9;" horiz-adv-x="942" d="M86 371v1042h252v-1036q0 -85 33 -126q33 -40 100 -40q133 0 133 166v1036h252v-1042q0 -115 -49 -203q-50 -89 -137 -136q-88 -48 -199 -48t-198 48q-88 49 -137 136q-50 89 -50 203zM182 1819h252l203 -279h-203z" />
<glyph unicode="&#xda;" horiz-adv-x="942" d="M86 371v1042h252v-1036q0 -85 33 -126q33 -40 100 -40q133 0 133 166v1036h252v-1042q0 -115 -49 -203q-50 -89 -137 -136q-88 -48 -199 -48t-198 48q-88 49 -137 136q-50 89 -50 203zM305 1540l203 279h252l-252 -279h-203z" />
<glyph unicode="&#xdb;" horiz-adv-x="942" d="M86 371v1042h252v-1036q0 -85 33 -126q33 -40 100 -40q133 0 133 166v1036h252v-1042q0 -115 -49 -203q-50 -89 -137 -136q-88 -48 -199 -48t-198 48q-88 49 -137 136q-50 89 -50 203zM176 1528l207 303h170l211 -303h-178l-115 164l-117 -164h-178z" />
<glyph unicode="&#xdc;" horiz-adv-x="942" d="M86 371v1042h252v-1036q0 -85 33 -126q33 -40 100 -40q133 0 133 166v1036h252v-1042q0 -115 -49 -203q-50 -89 -137 -136q-88 -48 -199 -48t-198 48q-88 49 -137 136q-50 89 -50 203zM215 1542v234h191v-234h-191zM535 1542v234h190v-234h-190z" />
<glyph unicode="&#xdd;" horiz-adv-x="849" d="M12 1413h277l135 -541l135 541h279l-287 -862v-551h-252v555zM258 1540l203 279h252l-252 -279h-203z" />
<glyph unicode="&#xde;" horiz-adv-x="888" d="M86 0v1413h250v-227h131q209 0 298 -111q89 -112 89 -334q0 -225 -91 -335q-91 -111 -296 -111h-131v-295h-250zM336 520h123q79 0 111 54q32 55 32 167q0 111 -32 164t-111 53h-123v-438z" />
<glyph unicode="&#xdf;" horiz-adv-x="860" d="M84 0v1063q0 371 346 371q161 0 252 -89q90 -89 90 -245q0 -112 -22 -165q-23 -55 -88 -101q52 -32 78 -73q27 -42 34 -107q8 -70 8 -193q0 -189 -18 -283t-81 -141q-64 -47 -196 -47h-53v200h33q36 0 53 26q16 26 21 78q4 47 4 167q0 109 -4 153q-4 49 -21 76 q-16 27 -53 27h-37v198h33q47 0 59 37q13 41 13 125q0 71 -26 108q-26 36 -79 36q-54 0 -81 -33t-27 -94v-1094h-238z" />
<glyph unicode="&#xe0;" horiz-adv-x="829" d="M61 317q0 151 93 235q92 83 264 83h90v137q0 56 -26 87q-26 30 -74 30q-45 0 -72 -29q-27 -28 -27 -78v-16h-219v8q0 160 90 242q89 82 234 82q157 0 244 -93t87 -251v-754h-221v90q-44 -56 -84 -81t-106 -25q-135 0 -204 88t-69 245zM125 1487h252l203 -279h-203z M299 328q0 -68 27 -103t77 -35q45 0 75 36t30 98v145h-62q-72 0 -109 -33q-38 -33 -38 -108z" />
<glyph unicode="&#xe1;" horiz-adv-x="829" d="M61 317q0 151 93 235q92 83 264 83h90v137q0 56 -26 87q-26 30 -74 30q-45 0 -72 -29q-27 -28 -27 -78v-16h-219v8q0 160 90 242q89 82 234 82q157 0 244 -93t87 -251v-754h-221v90q-44 -56 -84 -81t-106 -25q-135 0 -204 88t-69 245zM248 1208l203 279h251l-251 -279 h-203zM299 328q0 -68 27 -103t77 -35q45 0 75 36t30 98v145h-62q-72 0 -109 -33q-38 -33 -38 -108z" />
<glyph unicode="&#xe2;" horiz-adv-x="829" d="M61 317q0 151 93 235q92 83 264 83h90v137q0 56 -26 87q-26 30 -74 30q-45 0 -72 -29q-27 -28 -27 -78v-16h-219v8q0 160 90 242q89 82 234 82q157 0 244 -93t87 -251v-754h-221v90q-44 -56 -84 -81t-106 -25q-135 0 -204 88t-69 245zM119 1196l207 303h170l211 -303 h-179l-114 164l-117 -164h-178zM299 328q0 -68 27 -103t77 -35q45 0 75 36t30 98v145h-62q-72 0 -109 -33q-38 -33 -38 -108z" />
<glyph unicode="&#xe3;" horiz-adv-x="829" d="M61 317q0 151 93 235q92 83 264 83h90v137q0 56 -26 87q-26 30 -74 30q-45 0 -72 -29q-27 -28 -27 -78v-16h-219v8q0 160 90 242q89 82 234 82q157 0 244 -93t87 -251v-754h-221v90q-44 -56 -84 -81t-106 -25q-135 0 -204 88t-69 245zM182 1206v191q38 41 69 58 q27 15 66 15q35 0 58 -10q26 -11 51 -28q30 -18 49 -26q17 -7 43 -7q32 0 55 15q24 16 70 65v-189q-38 -43 -65 -59q-28 -17 -68 -17q-33 0 -57 11q-33 15 -54 28q-36 21 -46 25q-19 8 -44 8q-33 0 -58 -16q-23 -15 -69 -64zM299 328q0 -68 27 -103t77 -35q45 0 75 36t30 98 v145h-62q-72 0 -109 -33q-38 -33 -38 -108z" />
<glyph unicode="&#xe4;" horiz-adv-x="829" d="M61 317q0 151 93 235q92 83 264 83h90v137q0 56 -26 87q-26 30 -74 30q-45 0 -72 -29q-27 -28 -27 -78v-16h-219v8q0 160 90 242q89 82 234 82q157 0 244 -93t87 -251v-754h-221v90q-44 -56 -84 -81t-106 -25q-135 0 -204 88t-69 245zM158 1210v234h190v-234h-190z M299 328q0 -68 27 -103t77 -35q45 0 75 36t30 98v145h-62q-72 0 -109 -33q-38 -33 -38 -108zM477 1210v234h191v-234h-191z" />
<glyph unicode="&#xe5;" horiz-adv-x="829" d="M61 317q0 151 93 235q92 83 264 83h90v137q0 56 -26 87q-26 30 -74 30q-45 0 -72 -29q-27 -28 -27 -78v-16h-219v8q0 160 90 242q89 82 234 82q157 0 244 -93t87 -251v-754h-221v90q-44 -56 -84 -81t-106 -25q-135 0 -204 88t-69 245zM221 1292q0 85 55 140t138 55 q82 0 137 -55t55 -140q0 -82 -55 -137t-137 -55q-83 0 -138 55t-55 137zM299 328q0 -68 27 -103t77 -35q45 0 75 36t30 98v145h-62q-72 0 -109 -33q-38 -33 -38 -108zM322 1292q0 -39 25 -65q26 -27 67 -27q38 0 64 27q26 28 26 65q0 40 -26 68q-25 26 -64 26q-42 0 -67 -26 t-25 -68z" />
<glyph unicode="&#xe6;" horiz-adv-x="1271" d="M61 317q0 151 93 235q92 83 264 83h90v137q0 56 -26 87q-26 30 -74 30q-45 0 -72 -29q-27 -28 -27 -78v-16h-219v8q0 160 90 242q89 82 234 82q130 0 215 -66q79 66 217 66q165 0 257 -104q91 -103 91 -322v-215h-449v-99q0 -165 107 -165q104 0 104 137v10h232v-12 q0 -170 -87 -257t-247 -87q-156 0 -238 79q-95 -79 -231 -79q-145 0 -234 90q-90 92 -90 243zM299 328q0 -68 27 -103t77 -35q45 0 75 36t30 98v145h-62q-72 0 -109 -33q-38 -33 -38 -108zM745 629h211v80q0 94 -26 134q-27 42 -78 42q-53 0 -80 -42t-27 -134v-80z" />
<glyph unicode="&#xe7;" horiz-adv-x="833" d="M78 375v332q0 208 88 299q89 92 256 92q163 0 248 -88q86 -89 86 -265v-40h-230v36q0 72 -27 108t-77 36q-53 0 -80 -42t-27 -134v-336q0 -92 27 -134t78 -42q53 0 79 35q27 36 27 110v35h230v-35q0 -280 -207 -342l-115 -324h-209l135 312q-138 15 -210 106 q-72 92 -72 281z" />
<glyph unicode="&#xe8;" horiz-adv-x="841" d="M78 408v264q0 222 85 323q86 103 253 103q166 0 257 -105q91 -104 91 -321v-215h-449v-99q0 -165 107 -165q104 0 104 137v10h230v-12q0 -169 -86 -257q-86 -87 -248 -87q-165 0 -254 98q-90 99 -90 326zM131 1487h252l203 -279h-203zM315 629h211v80q0 94 -26 134 q-27 42 -80 42q-51 0 -78 -42t-27 -134v-80z" />
<glyph unicode="&#xe9;" horiz-adv-x="841" d="M78 408v264q0 222 85 323q86 103 253 103q166 0 257 -105q91 -104 91 -321v-215h-449v-99q0 -165 107 -165q104 0 104 137v10h230v-12q0 -169 -86 -257q-86 -87 -248 -87q-165 0 -254 98q-90 99 -90 326zM254 1208l203 279h252l-252 -279h-203zM315 629h211v80 q0 94 -26 134q-27 42 -80 42q-51 0 -78 -42t-27 -134v-80z" />
<glyph unicode="&#xea;" horiz-adv-x="841" d="M78 408v264q0 222 85 323q86 103 253 103q166 0 257 -105q91 -104 91 -321v-215h-449v-99q0 -165 107 -165q104 0 104 137v10h230v-12q0 -169 -86 -257q-86 -87 -248 -87q-165 0 -254 98q-90 99 -90 326zM125 1196l207 303h170l211 -303h-178l-115 164l-117 -164h-178z M315 629h211v80q0 94 -26 134q-27 42 -80 42q-51 0 -78 -42t-27 -134v-80z" />
<glyph unicode="&#xeb;" horiz-adv-x="841" d="M78 408v264q0 222 85 323q86 103 253 103q166 0 257 -105q91 -104 91 -321v-215h-449v-99q0 -165 107 -165q104 0 104 137v10h230v-12q0 -169 -86 -257q-86 -87 -248 -87q-165 0 -254 98q-90 99 -90 326zM164 1210v234h190v-234h-190zM315 629h211v80q0 94 -26 134 q-27 42 -80 42q-51 0 -78 -42t-27 -134v-80zM483 1210v234h191v-234h-191z" />
<glyph unicode="&#xec;" horiz-adv-x="421" d="M-78 1483h252l203 -279h-203zM92 0v1081h238v-1081h-238z" />
<glyph unicode="&#xed;" horiz-adv-x="421" d="M45 1204l203 279h252l-252 -279h-203zM92 0v1081h238v-1081h-238z" />
<glyph unicode="&#xee;" horiz-adv-x="421" d="M-84 1192l207 303h170l211 -303h-178l-115 164l-117 -164h-178zM92 0v1081h238v-1081h-238z" />
<glyph unicode="&#xef;" horiz-adv-x="421" d="M-45 1206v234h190v-234h-190zM92 0v1081h238v-1081h-238zM274 1206v234h191v-234h-191z" />
<glyph unicode="&#xf0;" horiz-adv-x="817" d="M78 362v222q0 179 67 270q68 92 199 92q56 0 105 -20l-91 176l-172 -55l-51 151l148 47l-95 185h228l61 -123l152 49l49 -154l-127 -41l55 -106q77 -151 105 -250t28 -234v-209q0 -186 -85 -284t-248 -98t-245 97q-83 98 -83 285zM315 338q0 -59 25 -95q24 -34 70 -34 q44 0 68 34q24 35 24 95v268q0 57 -24 87t-68 30q-46 0 -70 -30q-25 -31 -25 -87v-268z" />
<glyph unicode="&#xf1;" d="M84 0v1081h227v-80q77 97 181 97q264 0 264 -326v-772h-238v770q0 54 -28 85q-27 30 -70 30q-45 0 -72 -30q-26 -29 -26 -85v-770h-238zM188 1206v191q38 41 69 58q27 15 67 15q34 0 57 -10q26 -11 51 -28q30 -18 49 -26q17 -7 43 -7q34 0 56 15q21 14 69 65v-189 q-38 -43 -65 -59q-28 -17 -68 -17q-33 0 -57 11q-29 13 -53 28q-33 19 -47 25q-19 8 -44 8q-33 0 -58 -16q-23 -15 -69 -64z" />
<glyph unicode="&#xf2;" horiz-adv-x="841" d="M78 375v332q0 208 88 299q89 92 256 92q168 0 255 -92t87 -299v-332q0 -207 -87 -299t-255 -92q-167 0 -256 92q-88 91 -88 299zM131 1487h252l203 -279h-203zM315 373q0 -92 27 -134t78 -42q53 0 80 42q26 40 26 134v336q0 94 -26 134q-27 42 -80 42q-51 0 -78 -42 t-27 -134v-336z" />
<glyph unicode="&#xf3;" horiz-adv-x="841" d="M78 375v332q0 208 88 299q89 92 256 92q168 0 255 -92t87 -299v-332q0 -207 -87 -299t-255 -92q-167 0 -256 92q-88 91 -88 299zM254 1208l203 279h252l-252 -279h-203zM315 373q0 -92 27 -134t78 -42q53 0 80 42q26 40 26 134v336q0 94 -26 134q-27 42 -80 42 q-51 0 -78 -42t-27 -134v-336z" />
<glyph unicode="&#xf4;" horiz-adv-x="841" d="M78 375v332q0 208 88 299q89 92 256 92q168 0 255 -92t87 -299v-332q0 -207 -87 -299t-255 -92q-167 0 -256 92q-88 91 -88 299zM125 1196l207 303h170l211 -303h-178l-115 164l-117 -164h-178zM315 373q0 -92 27 -134t78 -42q53 0 80 42q26 40 26 134v336q0 94 -26 134 q-27 42 -80 42q-51 0 -78 -42t-27 -134v-336z" />
<glyph unicode="&#xf5;" horiz-adv-x="841" d="M78 375v332q0 208 88 299q89 92 256 92q168 0 255 -92t87 -299v-332q0 -207 -87 -299t-255 -92q-167 0 -256 92q-88 91 -88 299zM188 1206v191q38 41 69 58q27 15 67 15q34 0 57 -10q26 -11 51 -28q30 -18 49 -26q17 -7 43 -7q34 0 56 15q21 14 69 65v-189 q-38 -43 -65 -59q-28 -17 -68 -17q-33 0 -57 11q-29 13 -53 28q-33 19 -47 25q-19 8 -44 8q-33 0 -58 -16q-23 -15 -69 -64zM315 373q0 -92 27 -134t78 -42q53 0 80 42q26 40 26 134v336q0 94 -26 134q-27 42 -80 42q-51 0 -78 -42t-27 -134v-336z" />
<glyph unicode="&#xf6;" horiz-adv-x="841" d="M78 375v332q0 208 88 299q89 92 256 92q168 0 255 -92t87 -299v-332q0 -207 -87 -299t-255 -92q-167 0 -256 92q-88 91 -88 299zM164 1210v234h190v-234h-190zM315 373q0 -92 27 -134t78 -42q53 0 80 42q26 40 26 134v336q0 94 -26 134q-27 42 -80 42q-51 0 -78 -42 t-27 -134v-336zM483 1210v234h191v-234h-191z" />
<glyph unicode="&#xf7;" horiz-adv-x="858" d="M66 451v227h727v-227h-727zM299 236q0 52 38 92q37 39 91 39q53 0 92 -39t39 -92q0 -55 -39 -92q-40 -38 -92 -38q-53 0 -91 38t-38 92zM299 901q0 53 38 91t91 38q52 0 92 -38q39 -38 39 -91t-39 -92t-92 -39q-54 0 -91 39q-38 40 -38 92z" />
<glyph unicode="&#xf8;" horiz-adv-x="841" d="M78 -59l74 151q-74 101 -74 283v332q0 208 88 299q89 92 256 92q119 0 192 -43l39 82h111l-72 -150q72 -95 72 -280v-332q0 -207 -87 -299t-255 -92q-116 0 -193 41l-41 -84h-110zM315 434l191 397q-25 54 -86 54q-51 0 -78 -42t-27 -134v-275zM336 248q27 -51 84 -51 q53 0 80 42q26 40 26 134v270z" />
<glyph unicode="&#xf9;" d="M84 362v719h238v-669q0 -80 5 -125q5 -43 25 -66q21 -24 68 -24q46 0 67 21t26 63q5 45 5 131v669h238v-719q0 -127 -29 -209q-29 -81 -101 -125q-73 -44 -206 -44q-194 0 -265 95t-71 283zM131 1487h252l203 -279h-203z" />
<glyph unicode="&#xfa;" d="M84 362v719h238v-669q0 -80 5 -125q5 -43 25 -66q21 -24 68 -24q46 0 67 21t26 63q5 45 5 131v669h238v-719q0 -127 -29 -209q-29 -81 -101 -125q-73 -44 -206 -44q-194 0 -265 95t-71 283zM254 1208l203 279h252l-252 -279h-203z" />
<glyph unicode="&#xfb;" d="M84 362v719h238v-669q0 -80 5 -125q5 -43 25 -66q21 -24 68 -24q46 0 67 21t26 63q5 45 5 131v669h238v-719q0 -127 -29 -209q-29 -81 -101 -125q-73 -44 -206 -44q-194 0 -265 95t-71 283zM125 1196l207 303h170l211 -303h-178l-115 164l-117 -164h-178z" />
<glyph unicode="&#xfc;" d="M84 362v719h238v-669q0 -80 5 -125q5 -43 25 -66q21 -24 68 -24q46 0 67 21t26 63q5 45 5 131v669h238v-719q0 -127 -29 -209q-29 -81 -101 -125q-73 -44 -206 -44q-194 0 -265 95t-71 283zM164 1210v234h190v-234h-190zM483 1210v234h191v-234h-191z" />
<glyph unicode="&#xfd;" horiz-adv-x="837" d="M23 1081h262l145 -657l135 657h250l-293 -1159q-24 -100 -77 -153q-54 -54 -132 -73q-82 -20 -204 -20h-9v209h86q108 0 138 56zM254 1208l203 279h252l-252 -279h-203z" />
<glyph unicode="&#xfe;" d="M84 -324v1737h238v-418q29 50 74 76q46 27 108 27q119 0 188 -84q70 -85 70 -266v-414q0 -181 -73 -266q-72 -84 -189 -84q-59 0 -102 22q-44 23 -85 70v-400h-229zM317 373q0 -176 105 -176q51 0 77 41q25 40 25 135v336q0 93 -25 134q-25 42 -77 42q-51 0 -78 -42 t-27 -134v-336z" />
<glyph unicode="&#xff;" horiz-adv-x="837" d="M23 1081h262l145 -657l135 657h250l-293 -1159q-24 -100 -77 -153q-54 -54 -132 -73q-82 -20 -204 -20h-9v209h86q108 0 138 56zM164 1210v234h190v-234h-190zM483 1210v234h191v-234h-191z" />
<glyph unicode="&#x152;" horiz-adv-x="1312" d="M78 389v637q0 205 97 306q97 102 278 102q120 0 211 -64v43h598v-227h-381v-355h327v-225h-327v-381h381v-225h-598v57q-95 -73 -224 -73q-179 0 -270 101q-92 103 -92 304zM330 418q0 -207 151 -207q73 0 110 54q38 55 38 153v567q0 109 -37 165t-111 56q-79 0 -115 -55 t-36 -166v-567z" />
<glyph unicode="&#x153;" horiz-adv-x="1290" d="M78 375v332q0 208 88 299q89 92 256 92q143 0 227 -66q78 66 215 66q166 0 257 -105q91 -104 91 -321v-215h-448v-99q0 -165 106 -165q105 0 105 137v10h229v-12q0 -169 -86 -257q-86 -87 -248 -87q-143 0 -221 65q-83 -65 -227 -65q-167 0 -256 92q-88 91 -88 299z M315 373q0 -92 27 -134t78 -42q53 0 80 42q26 40 26 134v336q0 94 -26 134q-27 42 -80 42q-51 0 -78 -42t-27 -134v-336zM764 629h211v80q0 92 -27 134t-80 42q-50 0 -77 -42t-27 -134v-80z" />
<glyph unicode="&#x178;" horiz-adv-x="849" d="M12 1413h277l135 -541l135 541h279l-287 -862v-551h-252v555zM168 1542v234h190v-234h-190zM487 1542v234h191v-234h-191z" />
<glyph unicode="&#x2c6;" horiz-adv-x="1024" d="M217 1196l207 303h170l211 -303h-178l-115 164l-117 -164h-178z" />
<glyph unicode="&#x2dc;" horiz-adv-x="1024" d="M281 1206v191q39 42 68 58q27 15 67 15q34 0 57 -10q26 -11 51 -28q30 -18 49 -26q17 -7 43 -7q34 0 56 15q21 14 69 65v-189q-38 -43 -65 -59q-28 -17 -68 -17q-33 0 -57 11q-28 13 -53 28q-36 21 -46 25q-19 8 -44 8q-34 0 -59 -16q-21 -13 -68 -64z" />
<glyph unicode="&#x2000;" horiz-adv-x="915" />
<glyph unicode="&#x2001;" horiz-adv-x="1831" />
<glyph unicode="&#x2002;" horiz-adv-x="915" />
<glyph unicode="&#x2003;" horiz-adv-x="1831" />
<glyph unicode="&#x2004;" horiz-adv-x="610" />
<glyph unicode="&#x2005;" horiz-adv-x="457" />
<glyph unicode="&#x2006;" horiz-adv-x="305" />
<glyph unicode="&#x2007;" horiz-adv-x="305" />
<glyph unicode="&#x2008;" horiz-adv-x="228" />
<glyph unicode="&#x2009;" horiz-adv-x="366" />
<glyph unicode="&#x200a;" horiz-adv-x="101" />
<glyph unicode="&#x2010;" horiz-adv-x="718" d="M78 596v225h563v-225h-563z" />
<glyph unicode="&#x2011;" horiz-adv-x="718" d="M78 596v225h563v-225h-563z" />
<glyph unicode="&#x2012;" horiz-adv-x="718" d="M78 596v225h563v-225h-563z" />
<glyph unicode="&#x2013;" horiz-adv-x="854" d="M0 596v225h854v-225h-854z" />
<glyph unicode="&#x2014;" horiz-adv-x="1705" d="M0 596v225h1706v-225h-1706z" />
<glyph unicode="&#x2018;" horiz-adv-x="350" d="M59 889v414l232 186v-600h-232zM145 1413z" />
<glyph unicode="&#x2019;" horiz-adv-x="350" d="M59 813v600h232v-414z" />
<glyph unicode="&#x201a;" horiz-adv-x="350" d="M59 272h232v-413l-232 -187v600z" />
<glyph unicode="&#x201c;" horiz-adv-x="718" d="M59 889v414l232 186v-600h-232zM379 1413zM428 889v414l231 186v-600h-231z" />
<glyph unicode="&#x201d;" horiz-adv-x="718" d="M59 813v600h232v-414zM428 813v600h231v-414z" />
<glyph unicode="&#x201e;" horiz-adv-x="718" d="M59 272h232v-413l-232 -187v600zM428 272h231v-413l-231 -187v600z" />
<glyph unicode="&#x2022;" horiz-adv-x="811" d="M125 631q0 119 80 199q79 79 198 79q121 0 201 -80t80 -198q0 -119 -80 -199t-201 -80q-118 0 -198 80t-80 199z" />
<glyph unicode="&#x2026;" horiz-adv-x="1302" d="M59 0v270h240v-270h-240zM530 0v270h240v-270h-240zM1004 0v270h239v-270h-239z" />
<glyph unicode="&#x202f;" horiz-adv-x="366" />
<glyph unicode="&#x2039;" horiz-adv-x="509" d="M29 541l397 405v-225l-176 -180l176 -181v-225z" />
<glyph unicode="&#x203a;" horiz-adv-x="524" d="M84 135v225l176 181l-176 180v225l397 -405z" />
<glyph unicode="&#x205f;" horiz-adv-x="457" />
<glyph unicode="&#x20ac;" horiz-adv-x="929" d="M41 494v165h113v105h-113v166h113v129q0 181 89 278t263 97q169 0 257 -94t89 -275h-236q-1 75 -26 112q-23 35 -78 35q-59 0 -82 -36q-24 -38 -24 -111v-135h315l-29 -166h-286v-105h270l-31 -165h-239v-138q0 -79 23 -115q24 -38 79 -38q54 0 79 37q24 36 29 110h236 q-15 -368 -348 -368q-179 0 -264 94q-86 95 -86 282v136h-113z" />
<glyph unicode="&#x2122;" horiz-adv-x="1271" d="M43 1255v158h469v-158h-150v-649h-172v649h-147zM598 606v807h174l123 -446h4l115 446h172v-807h-160v420h-4l-78 -293h-102l-80 293h-4v-420h-160z" />
<glyph unicode="&#x25fc;" horiz-adv-x="1085" d="M0 0v1085h1085v-1085h-1085z" />
</font>
</defs>
</svg>
